<mxfile host="app.diagrams.net" modified="2024-01-13T16:40:18.758Z" agent="Mozilla/5.0 (Windows NT 10.0; Win64; x64) AppleWebKit/537.36 (KHTML, like Gecko) Chrome/120.0.0.0 Safari/537.36 Edg/120.0.0.0" etag="qPD_uBkPUn-c0BgjquQa" version="22.1.18" type="github">
  <diagram name="Страница — 1" id="qPxtWNu6p_OgDzHoxO2w">
    <mxGraphModel dx="1282" dy="1738" grid="1" gridSize="10" guides="1" tooltips="1" connect="1" arrows="1" fold="1" page="1" pageScale="1" pageWidth="827" pageHeight="1169" math="0" shadow="0">
      <root>
        <mxCell id="0" />
        <mxCell id="1" parent="0" />
        <mxCell id="Blg_qwweMGSraaD5Vuuv-1" value="" style="shape=image;verticalLabelPosition=bottom;labelBackgroundColor=default;verticalAlign=top;aspect=fixed;imageAspect=0;image=data:image/png,iVBORw0KGgoAAAANSUhEUgAAA2QAAAKWCAYAAAAmxVpuAAAAAXNSR0IArs4c6QAAAARnQU1BAACxjwv8YQUAAAAJcEhZcwAAEnQAABJ0Ad5mH3gAAABhaVRYdFNuaXBNZXRhZGF0YQAAAAAAeyJjbGlwUG9pbnRzIjpbeyJ4IjowLCJ5IjowfSx7IngiOjg2OSwieSI6MH0seyJ4Ijo4NjksInkiOjY2Mn0seyJ4IjowLCJ5Ijo2NjJ9XX185FWSAAD/OElEQVR4XuydB3xVRfbHfyGEGkJIaIGEqlQRRUWxF6xr72LX/YsVse6qa13b2te1rq4Fe3dta+9iB0RFWgpppBDSCwnl/36TOxjjfe/NTMLNA89393yCc+95Z+acO3Pn3DI3bl0IhKGhoQElJSUYMmSIVxKdxsZG9TchIQFxcXHq35Gg+TVr1ijp0qWLkQ5ZvXq10qGdTp06eaXRKSwsRFJSEhITE72SyKxduxarVq1C165dje3o9nD/zp07e6XRob+5f3x8vLEf6urqUFZWhoyMDK8kOowRf5+2TGNEf9MXQcSooKAAycnJ6Nmzp1cSmSBjVF9fr3xAPVM/1NbWory8HOnp6V5JdNgeXbcNGaOmpialYxujvLw8pKamokePHl5JZOhr2tK+MyHIGNXU1KCqqgqDBg3ySqLTlhjxWDWFfqMu7djEKDc3F/3790e3bt28ksgEFSO2hWOdbYwYH/Yl2nnmmWdw3nnnGfv97rvvxrRp09CvXz+v1J+gY5STk4O0tDRjW22JEc8rFBNcY1RZWan0BgwY4JVEx/a85xojPTexjVF2djYGDx6sfGGCy3mP+1NP+8EEHSP6gH4zjRHPRTyGODaYYhsjxoZtYh1N/UZs54+arKwsNU9lHU1wiZHWsYkR/WA7NyErV65UtqKNVy0JMkb8fdoyjRFtZGZmYvjw4ca+i/UYcd5NOA8yJdrcxNy6IAiCIHQwffv2VRds5s6d65VEZs6cOejTp4/V5EYQBEEQgkQSMkEQBGGjgVcWDznkEHzyySfqSnIkuP3jjz/GwQcf7JUIgiAIQuwhCZkgCIKwUdG7d28ccMABePzxx/H999+rR2Jawv9m+aOPPor99ttP7S8IgiAIsYokZIIgCMJGx+jRo3HaaadhwYIF6h2x1157De+//776y/9m+YknnohRo0Z5GoIgCIIQm8StWrUq7KIefNFtxYoV6oVWU/iCHOFjJSYv/PFKppZwL7r5QTu2OqS4uFgt6GG6YARt0JZL3bi/zUuCfBmROlpM4EuCfEnXZjEClxhpnSBiVFRUpBZeMV0wItZjxIVX+LI7X943xdZO0DHi4jh8L6d79+5eSWRiPUZcLIILe9gsRtCWGJm+cExcY8TFcfi+lenCB0HFSNvRfjO1xfiwL/ktRlBaWqoWmuF2jhtc5IjvjMV6jPLz81V7TF+qj/UYceEVzhts3tcLMkbEpj2Ex9XAgQPV4gImaH8HFSO9v6ktnou4qAfHBlNiPUbLli1T81TTRT3aEiMbnZYxsmlPRUWF0ktJSfFKohPLMaItxojjsqktF3+76LjGiPNuwnmQKdFi1Knlxtai8dsWTjR+28KJ7f5aNH7bwont/hSN37b2FI3ftkhiq6Px29beovHbFk5s96do/La1p2j8trW3BGmH+G0LJ7b7UzR+29pTNH7bIklQOi6i8dsWTjR+2/ykJX7b21M0ftvCicZvG5OabbbZBrvssov6y/9muab1/u0tLfHbHk5c9tf4bfcTm31bisZvWySx1dH4bWtPaYnf9nBiuz9F47fNT2z2bSkav23tKRq/be0pGr9tkcRVh/ht8xObfVuKxm9bJLHV0fhta0/R+G2LJK46xG+bn9js21I0ftvCicZvWzjR+G1TEsoM23XZe155IaZLYjI7ZdbIDNVmqVPqcIlLmyUxicuy91zmUy9VaYJuD9tiesWG8Moirx5QTP0Q5LL3/GsTI+rQD7RjEyOXZe9dYkTh/jYxYp/Qx5ypH1yWvY/1GNkue08bHBts+quOke4TprjEyGXZe8aINkz7a8sY2Swz7Bojl2XvaWtDx4jt51hnGyO97L3NnWbbMdU1Rjy2qWMbI5dl72M5Ri7L3gcZI0I7NjGyXfY+6BixXvSbaYxclr23jRHHK7aH0A+m2M4fNbbL3rvEiPvbjsPc33ZuQlyWvQ8qRrZzE8Jj1WXZe1t/Bxkjl2Xvo81NIt4hcxGN37ZIYqtju39bxMVWUDpBikv9XHRcROw0i62exm9be4rGb1s0sdWz3d9VNH7bIomtju3+bRFXW7Z6tvu3RVxsuegEJUHVLdbt2Opp/La1p7jacNFz0XERVzu2ehq/be0prjY0ftvCie3+ruJqx1UvCHGpm8ZvWzix3d9VotkxTwcFQRAEQRAEQRCEdkUSMkEQBEEQBEEQhA5CEjJBEARBEARBEIQOQhIyQRAEQRAEQRCEDkISMkEQBEEQBEEQhA5CEjJBEARBEARBEIQOQhIyQRAEQRAEQRCEDkISMkEQBEEQBEEQhA6iE7+g3Z6i8dvWnhKEDS1B2QrKTpASVJvEjpto/La1p2j8trW3BGmH+G1rTwnChpagbAVlhxKkrSAkqPZsinaI37b2lCBsaAnKVpB2iN+29pQgbGgJylZQdoKUoNoUK3biGhsbm/fyYdWqVVixYgUGDx7slURnzZo16m+nTp3Ul6ejwUqsXbtW/Y2PjzfSIdSh2OiQ4uJiJCYmomfPnl5JZFgvtsmlbtyfeqasXr16vd9MbdXX16O8vByDBg3ySqLjEiOtY+sH6pra0RQVFSEpKQk9evTwSiIT6zGqq6tDZWUl0tLSvJLoxHqMCgsL0adPH3Tv3t0riUxbYsS6UUxxiVFtbS1qamowYMAAryQ6bI+2YWKnZYw6d+6s/kZD6/Cv9h3/bUJ+fj769u2Lbt26eSWRoa9pi3Uz9ZtLjFh/xki3x9QW48O+pGNkomd7LLjEiGgdbcsUxqh///7o0qWLVxIZ7W+bfqSPH9sYUc/Gd6SqqkrNG/r16+eVRCfWY5SXl4eBAwciISHBK4lM0DGiHWJqi+eipqYmNTaYEusxWrZsmZqnmtrqiBjZtKeiokLVLyUlxSuJTizHiLYYo4yMjPXHazTYfu3vWIwR592E8yBTosUorqGhIWJCtnLlSquJJJ0YzpgfdIb+a6unHW9DSUmJSshsJvu2drQOsdGz9R0JxU91Xp4wTHGJkW6Pi55tjJg0MyGzmezb2tE6ZEPHiEkzJyo2k/1YjxGT5uTkZOPJvosdrWPTHuISI070OeHn5NiUtsTI1A/Lly9XE0L2c61TVlaGBQsWqH9HgsccxznTk62um43ftA6x8YPGRIfJSnp6upqc8JzE406XRbsQFUSMCO0Q235UUFCgkhfThEzXb0P3IxcdUl1drWJkM9kPMka27SFMmjl2myZkun5Bxcj2mOO4wIQsNTXVK4lOrMeIYyTnqTZjna3vtI6LH2xjxKSZvrCZ7MdyjGiHMeKYbWrLxXdax8UPtjHivJvwfGRKNN/FhXb49ezYCk4CmMAMGTLEK4kOOzphxzBxCB3B7JTCk5KpE7k/s00OkjaO5JV9TvaZlJlABzY2Nqq6mdrR7eH+NlceeCJjlm6TqXMiyQkarzyYwvbw921iRF/TFzYx0jq0YxMjTlJ4kJvexQwyRuwT+pgz9QPvvvBqCgcjU2I9RhxceUI3vbBBGxwbbPprkDFiMsaJis2dZsaINkz7a8sYde3a1SttPt4p33//PTIzM7F48WL8/PPP66+SUlrCvjFq1Cjvv8KjfWfqg1iF4yIvAFBanjj5l8JYb7/99hg/frwaB8eOHYtx48ap45P+thlTw8UoGjy2qWvbj3JyctRE0tQWY8r6ufQj7QcT2Bb63bYfcSLJ/mdz8cn2vNeWGBHasYlRdna2uvvCcdUE1xhRh8ePbYz0eG8aI56L6Aubi0+2MWJs2CbW0dRvxHb+qMnKylLzVNPzhEuMuD/1bGJEP9jOTQhvhNCWzZ3moGJkOzchtMFz2/Dhw419p/s47cRijDjvJjYXNqLNTeJCjmrXhIwNIzRqEiyapwMpemAxQTvepkMRl4SMBzoHflM7uj3c33SAIPS3PpBM/RDrCZlLjFwSsqBixLtduuOa+sElIWN7dN02ZIx4AqSObYxsEzL6mrZsBr0gY+SSkLnEiH38xx9/xFtvvYWFCxcqYf9ln9x8881VP+ZJeMyYMcq/nDRxMtjyTiRtMl5/FFoe2xr6nncumKQxceWkmSd83l3n5Iw+YqLDJwd23HFH7LXXXipJizbut7QVqwmZaz/SkzUT9LFq249cEjLb855rjPTcxDZGtgmZy3mP+1NP+8EEHSP6gH4zjZFLQmYbI8aGbWIdTf1GbOePGtuEzCVGWscmRvSD7dyEuCRkQcaIv09bpjGiDZeELJZj5JKQRZubSEIWBZdg6fZwf9MBgth2KCIJWbAxkoSsGUnIzGPE+M+fP18lYZ999hlyc3NVorDDDjtg2LBh6t+bbbYZevfurepNYQLG36XYxuaPAI9ZHk8UHiOMBYVjG//S33zckwkP/83EjUnCbrvthn322QdbbLGF8ndrWvYjjiemsB7UZbxsYiUJmSRkhPtTT/vBBB0j+oB+M42RJGSxP9mXhCz2YyQJWQtcgkUkIZOEjLjGSBKyZiQhixwjLob05Zdf4v3338ecOXPU7zP5YiKw7bbbYuTIkeoYp/9YV/618b8QGfqb4ymPBSYJnLB9/fXX6t07JmccWyZMmIBdd91VJWn65fmW/YjjiSmSkDUjCZnbeY/7U0/7wQQdI/qAfjONkSRksT/Zl4Qs9mO0IRIyc+uCIAhCRDjZf+aZZ3DeeefhlltuUY/THXDAAbjhhhtw9dVXY/r06evv0DBBZyLAi0M2JwIhOvQpF5bghSr6eu+998aZZ56pYnDllVfiT3/6k5qY3nnnnSomTz755PoTrCAIgiAEjcwCBEEQ2gjv6nJSf/HFF+PRRx9VdwiYlF1wwQU49dRTVUKw1VZbqSTMdPVQof2gz5mcMQZTp07F8ccfj5kzZ+Kcc85RMWHszj77bMyaNUsSM0EQBCFwJCETBEFwhInYE088gcsvvxzPPvusuivDBIx3Yw4++GCVANh8w0jY8PCRET6uxdgwRowVY8ZHB59//nmVqDFBKy0t9TQEQRAEYcMiCZkgCIIlfF7/vffew4033oiXX35ZfS/m2GOPVY+/HXbYYWqVRNNvtAkdB++cjR49GocccgjOOussdeeM7228+uqruOiii/DBBx+o9xIEQRAEYUMiCZkgCIIFXOjoP//5Dx577DH1ArG+y3LkkUeqb2BJIrbxwZgxMWMM+agp//JF79tuuw333XefeoyRL38LgiAIwoZAEjJBEARDuFLf7bffjnfffVdN4JmIHXfccXJHbBOBjzPyo9vTpk1T7wNOnDhR3S1jYvbdd9+pO6OCIAiC0N5IQiYIghAFLuf9yiuv4K677lIfc+YqfUzGJk2aJIt0bILwnT9+nuDSSy9VCfcPP/yAf/7zn3jzzTfVHVLeGRUEQRCE9iKuqakp4nfI+GKzzTeu+Lw919cPt85+a/h9Aj4Kwr+m308g1KHY6BB+LLRXr17G3yFjvdgmm28u6Lpxf9NvIRB+G0S3x9QWv2vAb1bwOymmuMRIT0Bs/E0d27gSfiuOH201/Q5ZrMeI34rj8uc237iK9RhxMQsu2W6ajNDXtOUSI/rAZll4lxjxu1XV1dVqYYeW0Df8PT6e+OKLL2LEiBFqgr799tsbjyHCxg/fF+TnDIqLi1UyznfOWn5ry7Uf8SPh/B3T72npPuHSx236EffnGGTbj/gtP84bbL5x1ZaxjuOJKVrH1I5m2bJlauw2XZgn6BhpH5ja4rmIY5rNN65sx1TXGNkeCxp+K47zVFNbHREjm/bwkxy0x0WiTInlGNEWYzR06FBVRxO0v2M1Rpx3E/0NSxOixSguNHiGTcj4DD0/cGoz2edBTsIZbA2dof+a6hDub6tDeELlRMpmsu9aN2J6UBBb3xEmZOy8NpN9lxjp9tjUTevZ6BB+y4kf7zb96LCLHa1DNnSMmJDxDkvryX4kYj1GTJq5kIVpQuZix7VuLjHix7uZlLWcZNM2+9f//vc/9R2xPffcU90xYV8zPakImw68CMFvy82dO1c90sh3B/VHQV2OOZKfn6+SF9MPswbVj7QOsdFjQsZ5g81kvy1j3YYeuwk/gm+zUqqun42dtuoQUz2eizgxtJnsx3qMmDRznmqaWLT0namdoHQIk2b6wmayH8sxoh3GiEmz6bnTxXdB6RDOuwnnQaZE811cKKNsjogPLnfI2NGJabZJR+is1iZDpQ6FOjYHEyeSnOybXt2mA9kmm6+Fs17U4/42EzeeyHR7TP3AyT4zdX5LxxSXGPEKAgkiRpz4JCcnGyfNsR4jTvY5wNpc2GB7+Pv6ako0XGNEHerSjk2MOJHkycI0aY71GDEZ42RSX9igTxi3d955RyVjU6ZMUR8V5uTZxk/CpgXHpn/84x9YvHixWpFx//33V/3AtR9xksLJvukdMpcx1aUfsS2NjY3W/YiTfc4bWl7YiAbt6LrZjnWmSRJxjVFOTo4aF0yT5rbEyKZuOkb0Af1mGiOei6hncxfTNkZsC9tEbGJkOzfR2N4hc4mRy/Hjct4jLnfIbM97Okbc19RvxCVG9FtWVhaGDRum/GdCrMdIf69SX5QzIVqM4q+99tpruMFP6AxO+Dk59tvuJ2wc/7Y0Gk0InWijw/1tdSicePHle54AW2/zE0I/6GD57dNaCOvG/fUAZiK0w/31weS3T2vhAcir+LYx0nUztePi77bEiHdeYjFG9Lduj6kt6nCSwscw/bb7Cduj62Zqx8XfPBZcYsTkhQkzJyl+21sLbdCWjZ0gY8QBmZMOXqzhf/PfX3zxBf72t7+pd4luuukmdXLk7wl/XHh8TJgwQb1HyOODV0f5GA6PN2LTXylMYPibHLv8trcW4tqPWLcN3Y/Ybzh28bUAv+1+Qju6bqZ22B6Kqd8orBf/2saICQzHbvrCb3tr0XWzjRHj6hIjfd4ztcVzEevHi9J+2/3ENkYtMfUbhT7gXxvfURgjzoFMfecSI61jEyNiOzehuMSIdoKKEX/f1I4WJpm8eGXqu40hRvzLeVDrbeEk2pgqswtBEIQWcFK5YMEC3HPPPeqKHhfy4ImEA6gg8GkEPrrKY+Kll15Sqy/yyqcgCIIguCIzDEEQBA9eXePCP/fee696XJvLneur/YKgYVJ2zjnnqDvFzz77rHocRxAEQRBckYRMEATBg3c6Fi1apB5Hu/zyy9U3qQTBj8mTJ6sVN5nAz549Wz2OIgiCIAguSEImCIIQgnfHuGjDyy+/rB5VPOigg7wtguDPfvvtp1YU/Oqrr+QumSAIguCMJGSCIAghuLAHV8/7/PPPMX36dK9UEMLDFbb22GMPtdItjxsm9YIgCIJgiyRkgiAIIfiR3tdff10tn8wP/wqCCfvss4/6pAUfc5W7ZIIgCIILkpAJgiCE4F0OfqeQ35baeFZUrEF5/jO4YPBQXPQ+0NT86Z9f+eYuHLrrBbjhzR+x3CsS2hfeJeNS+EQSMkEQBMEFScgEQRBC8Dsp/FDvNtts45VsHKxb14S6ykrU+a0psboBNdV1WBXK1NZ6RUL7wuSdHw7moh6SkAmCIAguSEImCMIfHk6ma2tr1b/5sV9BsIHHDD9kz4/aC4IgCIItkpAJgvCHhxNpLl/eo0cPDB8+3CvdBFn5LZ6/4SwcOHmyWradsvdJF+Ffn5YCDUXI+uABzDjiSvy30Nt/3Rog7znM2HM6Hp1ThsqmUFnxO7j1tCOwV4vfOPjie/Haj5WhjQWY89ItOKvFtmbZBVP/dCleKlA/GpI8vHju7thzR2/7pc/i+2XU3zgZMGAA4uPjUVJS4pUIgiAIgjlx+fn5YZeF4lXjuro6JCUleSXRoQ4/osrHOEw+pspVqbSY6pC1a9cq4UnQ5qOtnHh16dJFiQmsF9vUuXNnq7pRT/vBFK7ypttjaos6DQ0N6uO1prjEiG0iNjFas2aN0nWJEa82JyQkeCWRkRgFH6Pq6mp069bNOEasG23Faoyys7Mxa9YsVFZW4rnnnvNKNwZqsDLvZVw2dgY6vViBu/cGEuK9TWT2zZh6TjZ2vPosTD80Eb/cchveWpSMQbvtg0npQG3W53jvra+wuP8puPOOHbD2rYdw0WVZOOq9p3D6sJA+E7LMe7Hvti9j19eexZk7lOCdMy/Bp30OwfY7jsHQPkD5nGfx5Nt1GHzIGbj0vHRk338HHn5oEVKnX4aDNw/9xqoyFM79H/51XwVO/fQF/F9GLl69+ARcU7YfrjlmO/TpWY4PHn0UPww5AVecfhCmjNj47lBWVFTgxhtvRE5ODq644gr07dvX2xIZfli6Z8+e6ng1gX2CYtNfXfoR9+cYZNuP+B0/6rFNprRlrDP1G+H4Q2zGR8IxITExMWZjxDGVmNriuYj2ePHJFNsx1TVGtseChv2P81RT37UlRjZ1axkjm/YwRtTt3r27VxKdWI4RbbEf2cTIZW4SZIzq6+vV3/aMUVxo8hs2IePgyvcqBg4c6JVEhwaJaePoDDqejuTkztQh1KETqWMaYFJaWqpOFqaDEevV2NioEjibA4l6bIseLE2gvxksmwOQHZcHOq/QmsL26LqZxoi+5l+bGFGHfqAd2xjxBGh6oLvGiML9bWJEf+tjztQP7LhMYPr37++VRCfWY1RcXIzevXurpMwE2uDYYNNfdYx0nzDFJUY//vgjHnjgAXXM3X///V7pxkBzQnbx8NPx4bb7Y4t+oQlnyyavXIovfxyHsx7/G6bv1gcVCzNR0W0IRm6+GQYmhsbr5V/hv/c/jEe/TsfZs87C6F8ex7WnvoJRz36JK7cP6bdOyEaUY/HCZYgfsg1GD+mH3qHwr1r6Im792yvITN8fZ165IxqevgNPv1iJrW59AmdNCv1G/XJkfvggpk+fjyM/fBKnlv0Tkw/6BAf89z78dbuh6N1lFfKfvhhH3tcVx157Jk7aazRSVOU3Hnic3nDDDZg3bx6uueYajBw50tsSGd6V5aIgphcIacf2vOfSjziO8Hxk2494MY1jV0qKeQRtz3stxzpTvxE9N6Edm7GOC/3wW3P0hQlBx4g+oN9MY8RzEetn82i2bYw43rM9xNRvxHb+qOH3IzlPNfWdS4y4v+250mVuQnihhrrJycleSXSCipHt3ITwWGWM+K7thvR3kDHivJtwHmRKtLlJXMhRYRMyKvMRjCFDhngl0WHDCI2aBIvm9WCkBxYT6Hjq2HQowsGVWTon/CYwWDzQecfG1I5uD/fngWEK/c39TTsU4R3MsrIytVS3KbYdijHSB3oQMWLH5UBkepU1yBgxudId19QPfDeJFzbS09O9kuiwPbpuGzJGPAFSxzZGeXl5aiJpemGDvqYtm0EvyBgtWbIE//rXv9Qdjtdee80r3RhoTsgu3fws5Jz/EE6aEJrMtHTvktdw46MJOPyuizB939FIDY0tnUrn4vVXX8NLX2SHBoMKLM8sxarUPXHR41dg+9JXcPufr8N3J76Gz84fHzqwWiVkE3qhW1I3dM1+G3c9/g7mZK4IDVxFWPRDDYYeOB0XXLkH1r4QISH7YBZOWXQREi9Jwwff/hVTQr+lptQL/43jT/gAQ86/EH8+cnuMNL/oGBPwAgXvkHE8vu2224xP0jze0tLS1NhlQlv6kZ6smcDxhOcj237ESQr1bC4Q2p73Wo51pn4jem5CW6a+I7x7zs8a0BcmuJz3uD/1tB9M0DGiD+g30xjxXMRjyOYCoW2MGBu2iXU09RuxnT9quJgO56mm5wmXGGkdmxi5zE0IV/ylLV4IMCXIGPH3acs0RrSRmZmpXgcw9V2sx4jzbsJ5kCnR5ibm1gVBEDZReIGGAysvQHHCsrER3zkBm+8xDccdNw3TprWQvbfCwD5e0tx9BX544UHcdMEd+O8P9Ri8ze7YfZftsOVmA9C8Rw+kDN0G+50xFQmP/gVnnHFGSKbjjL89i5/rV0Et4tizEJ/84xpcdvHDmFubijE7hH5jx4nYfGAfGE+NeSLq2xu9Qn/Xn4B6JiI5vgFr6leHTqpe2UYEjxveeeCjijZXTAVBEASBSEImCMIfHj56yYSMV8qKioq80k2Mgh/w3uyf8HPCaEw95lTMOCuUcB17AHYb3x/evQP06LMZdjr8bFx04h4YPXp0swzvj568osddMj/Fkx9noWLYbjj25NNx7pmh3zhsV4wd0rs5YTNh3Vpg2Q9YWLrm1++mla9EUVMiEpK6wuKmR8zAd1h4FVhW6BQEQRBckIRMEIQ/PHwsgo/J8h0yfotsk2RFMQoq1yJx0o7YYcoEZMQV4pevP8Vb7/2IX+8JdkNi34n400UX4SIlF+Ki0/fEsK4JUA+AFOZhaX13DN93X0wem46UVUvw+dsf4Yt5OTBa8L1TZ3QaORn7xn+Ex99dhJoGvjNSjvmffI7s1AwMHZyCVPOnZ2IGJvF8lMfmMTBBEARB0EhCJgiCEIKPLfKRs7lz53olmxj9JmDrgdVY+fXjuPuWW3HrrffiiQ9+QmmXRAxqKkNVtbdfJAZPwZ79FuLrlx7Aneo3HsRLv6zEus5Ar/oSZH3/A+Z8swzliRlI88tN4rug8+g/4a+X7of4D+/BA3fyN27FzV/GY8ohu2HnzfrDfC3S2IDv4/BdMCZkfB9MEARBEGyRhEwQBCEEFyIYP348Pvvss43oscXO6Npzc+x6+mnYJT00oLd+T3jAVjjoyF2x7bBU9Bw0GQcefTD23zIZa4qzkLV8DZIn7I//u+JcnPSnbZDh+6hg6AeTtsCBpx2MSQN7oNtm++L/zjgQ2/VtRGVB6DdKe2LcAdNw9iWn45AdRiJpFdAzfVtMOfRAbK3XsOncA0lDtsVBJ+6Lcb06oVPngdjlnL/jLzsnobwoD1lZ5ei96+k4/6hdMS7NbLGlWIJ3VJcuXapewN98c67zLwiCIAh2yCqLUXBZgUW3h/ubrvpDbFfJIbLKYrAxklUWm9nUVlnkct0rVqxQqy1eeeWVOOuss3DyySd7WwXBH/a5xx57DG+88QYOO+wwnHjiiVb9SFZZlFUWCfennvaDCTpG9AH9ZhojWWXRLUZaxyZGLnMTIqssxn6MZJVFQRCEDQQHyjFjxmDXXXfF008/vX7AFYRw8MLE7Nmz1fd1dthhB69UEARBEOyQhEwQBMGDV/YPOOAAdZf2zTffVFeSBcEPXu185513VOK+/fbbq6u/giAIguCCJGSCIAgevEvGpd733XdfPPzww5g3b563RRB+hY/FfPvtt3j//ffV8TJ58mRviyAIgiDYE3/VVVddw+c7/YRXh/n+C9+58tvuJzxREf18pN8+fsLnOPXzm37bWwv3p9jaqaqqUpMuPpfqt721aDs2daNQh7B+ftv9hM+/tnyG1W+f1sLneXmltlevXr7b/UQ/N2zjO7aHf4OKEZ/njcUY0Xe6PcRvn9bCGPH5bpsYtawb8duntVCHf21jRFxixG938Vltv+1+Qt+5xIh129Ax4jPkjBHfLeXS9yNGjMBHH32Et956C1OnTlXlLX9T+OPC44vvFd1www3qv0855RRsscUW6jiy7Uf8fhnfleX7Dn7bW4vu4zZ2tA7Z0P2IfYjzBrbJb7uf0A5xaRPHk9bbwomL7yiMEfu/qS3aodi2R+tQ/Pbxk5ZjKvHbp7UwRpxr8P1fv+1+ElSMXOxQ+F4c56mmvmtLjGzOYS46FM7pqMdzkd92P3GZP9IG/9rGiH9dYsSP5m8qMeL6DfxrEyP6TreHtN4eF/rRsIt6cJLClws3paV8uUgJB1fTxQhiHQ6uPGEMHDjQK9n4KS4uVoMrD/RNAQ6uTGBsXnSPdbgKIRdeYVK2KcDBlQt76BfdeXL75Zdf1MIeEyZMwB133KHeE2p5whP+ePDEnZubi6uvvlqNUxdccIF659AVPhrLF/dtXqqPZaqrq9W8gZ+P2FTIz89XYzcvEG4K8FzEpNlmMYJYh+9ycp7KC4SbAlwch2PNpvKheSYbjBEXNttUzqGcdxPOg9qLuFDGFnGVxdLSUqsV/PQ7F6YrsDBQOuO2WbWFOhTq2ATYZZVFtslmpRfWS2fcpiu9EJ7IdHtM/cCJJJNmmxX8XGLECSoJIkYuqyzGcox4l5mdlyt1mcL28PdZtw0ZI+pQl3ZsYsRJSkpKivGFjViPEZMxTlSYdGlY3zlz5uDYY49VCzbcfvvtkpT9geGxyAsR/GA2l7q//PLL1d1TJlOu/Yi/w4tppqsFuoypLv2IbeGdfdt+5LLKIu3outmOdTZJkmuMuBIm+71p0tyWGNnUTceIPqDfTGPEcxH1bFZZtI0R28I2EZsY2c5NNLxjzXkq9UxwiZHL8UM/2J73CO8msX42FzZsz3s6RtzX1G/EJUb0G1fCHDZsmPKfCbEeI5dVFqPFKFTeSW0MJ1TyKw8n3N9Wh+JVxlhc7biIbd0oLvVzbZOLHb/yaGLrB9f2uIht3Sgu9XOxQ3Gx4+I74lceTmjDVodiWzfu79IeFz2X9vgJJ8l8N+i1115TK+lxIs4LOhzAOegLfxwYc56Azz33XCxevBjXXHMN9tlnH3WHmMdKW45vv/JIQvzKI0lQdlzE1Y6tHgkiRtzf1d+2esSvPJK41s2vPJoE5bug7BBbPeJXHklc6teWNvmVhxMXG5Qg22OrR/zK21ui2lF7CIIgCL+Dg+SWW26Jf/3rX/jqq69wzDHH4PPPP1dXuoQ/Doz9IYccor5Td8kll6hE3ebKvyAIgiBEQhIyQRCEMOirdFwKn4kYHzs97bTT8OCDD6r3UYVNH94N40efudDLCy+8oP6tFxAQBEEQhPZAEjJBEIQo8P0RJmP33XcfZs6cqZbEnzFjBr788kv1foWwaaHfH9xvv/1UrLmi4j/+8Q9sttlm6lFW3jkVBEEQhPZCziqCIAgGcBLOl6xPPPFE3HXXXarsL3/5C2677Tb1wrKw8cOXyLlgDePLO6F8Ofy5557DUUcdtUmt4iYIgiDEFpKQCYIgWMBvqey0004qGdt///3x4Ycf4vTTT8f111+PhQsXensJGxNcnYtJNZPr4447Dq+++iqOPvpolZhtt9126hFFuSsmCIIgbCjkDCMIgmAJV9cbPXq0ult27bXXYt9991ULP5x33nm47rrr8NNPP3l7CrEMH01kEn3rrbfijDPOwHvvvadWT+TjibxDtvnmm6vHVeV9MUEQBGFDIgmZIAiCA3ycjd9b2n777dUHpLn63l577YW5c+fi0ksvxVVXXYVPP/1UfSdQiC34nZ9PPvlEvRt28cUX44svvsAee+yhYsZY8q7YpvSxfUEQBCG2kYRMEAShDTAx4/tFfIyRk3l+q2qXXXZRd15uuukmnHPOOfj73/+ON954A3l5eZ6WEDT8wO/LL7+s7mByQZYbb7xR3clkQn3BBRfg1FNPVXFjLAVBEAQhSCQhEwRBaAe44AMn87vtthtOOeUUnHXWWTjiiCMwatQoLFu2TK3Wx7sxV1xxhVoogglbdXW1+uiw0P7wLtiCBQvw0ksvqaXredfy8ccfR3Z2NoYNG6YW6mCM+Ggi72wOGjTI0xQEQRCEYIlbvXr1Ou/fv6OhoQGlpaXIyMjwSqLDl6MJrxqbPHe/bt06NSGhcEJj+qw+V8Oy1SHLly9Hr169kJiY6JVEhvXjewb8CKipHd0e7k8/mMLls3V7TG3V19erR6K4JLcpLjGiv/k3iBgVFhaqhRN69uzplUSGNtgm2xixfnxRf0PHqK6uDhUVFVYTPh5zrBvFxE5bYkQd02NBU1BQgJSUFHTv3t0riUysx6impkYlRzZ3R0xixH3YP5cuXaoSMH5YmL6rqqpSvuOqjTzWaZdJQr9+/dCnTx+kp6ercUqIDI8R9i+O6xT6uqioSCVdTMj046J8548+ZnJM4TfF6OvWH3du2Y9sPvxsO6ZqcnNz1WOvXErfBN0nXMZhm37E9vPYte1HPK45b+jfv79XEp22jHVBxIgXUzh2m9rS/naJEetGP5igY6TrZWqL5yLq8fg3JdZjxP7OeSp9bkJHxMimPRy7aI/nB1Nsz3s6RsTUb8QlRrTFGA0dOlTpmRBUjLi/7dyE6HML50GmRItR3KpVq8ImZKFtKCsrs5pIsnEknMHWMFBaTDs7oR1bHVJcXKySMdPJPm3QlkvduL/pQUF4MFFHiwk8+bHz2kwkXWKkdYKIESdUXNWsR48eXklkYj1GnDByomLzToqtnaBjxMkvEwdOdE2I9RjV1taqpIyTY1Ns7XB/jqeLFy9Wd274YWlKZWWlGqRbtjE1NVWNU5Tk5OTfTGqYyNnUc2OHJ0v6iAmzhmWcWLJcXzhsCc9dPFEy2WWiy8U5KPRrpMlHy35kOnEgrv2IyTknxlw4xISg+pG2o49tU1uMEX1vM5Fsy1hnGyNi0x7CzyCwv5kmFtrfQcVI729qi+ciJgnsC6bEeox4YYPzVNPEoi0xstFpGSOb9nBso57NZD+WY0RbjBEvNJracvG3i45rjDjvJpwHmRItRnGhjhnxDtmKFSuUE03hiZKGTBunnUGxyYS1DoNrqkM42eeVZ5uEjG1yqRv3tznQOUjq9pjacr1Dxt+3iREPJP618YPWsY0RJ/ucSNkkZC4xYv3ogw0dIyZknDjaJM2xHiOXO2S0FasxYkLGyaRN0tyWGOnJHccjXiTi4M4TFhM2JhcUjr/694luD4V+jAbrZxNX1ouE25+TBP4e+6WOh9YhtnaIiY72G+PKv7ybpMv4l/7h+MfY8eTIyTP/TeGFHfq6LTEyQevY+JvwnULW1zQh0+cWGzusG3Vs+hHb0vL4MbXlcoesPfqRCdQhpnY07Jccu20SMtcYUYf1M0HHSI8FprZ4LmJfskmabcdU1xjZHgsavh/KearJuEg6IkY27eFYS3s2SbNrjIip34hLjGiLMRoyZIiqown6+InVGLncIYsWo7hQZSImZLyCSyeawltyhJ3QpHE0TydSbJYXpgOpQzumjid8HI4nadNHFhlcXvHjJMDUjm4P97c50Olv7m9zAHKyz0mczWOljBF/3/QA1AcsfRFEjDjZ510Bm0cWg4oRE2D6gHqmfuBknxNumwsbbI+u24aMEQcI6tjGiBNJnixMk2b6mra070wIMka8O8bJpM3TAG2JUaRH1Pi7TMh0Is9/s8/qkwzrynEsGjypsw+ZTohYL/o7XHueeeYZ1S933HFHdcGEUIft4v6mcdV+iHRiagnrw0SLPuMYyROgLmN9+DsjR4709v4tGypGreGxTV3aMfUD4SSFk31TW23pR/QTxQS2hb627Uf6jqXNHVzb855rjPTcxDZGfNSKCT99YQLrRn/bjKncn3raDyboGNEHJv1Iw3MRjyGbpNk2RnosYR1N/UZs548afkOQ81TW0QSXGGkdmxjRD7ZzE8LJPm3ZPFYaZIz4+7RlGiPayMzMxPDhw419F+sx4ryb2CTN0eYmkpBFwSVYuj3c33SAILYdikhCFmyMJCFrRhKy2J/s88o+J12mj5VGi9ExxxyjzgUzZ85cf0feJUZsC8c62xgxPuxLNneaYz1GkpBJQka4P/W0H0zQMaIP6DfTGElCFvuTfUnIYj9GGyIhM7cuCIIgCIIgCIIgtCuSkAmCIAiCIAiCIHQQkpAJgiAIgiAIgiB0EJKQCYIgCIIgCIIgdBCSkAmCIAiCIAiCIHQQkpAJgiAIgiAIgiB0EJKQCYIgCIIgCIIgdBCSkAmCIAiCIAiCIHQQkpAJgiAIgiAIgiB0EHF1dXXrvH//Dn69ml8MT0tL80o2fkpKSpCYmIgePXp4JRs3/Dp7RUUFBg4c6JVs/BQXFyMpKQndu3f3SjZu+HX2qqoqDBgwwCvZ+CkqKkJycjK6devmlWzchMZB1NTUoH///l7Jxs/y5cuRkpKCrl27eiVt48QTT0RGRgbOPfdcDBo0yCsNDsaHfalfv35eycZPQUGBak+XLl28ko2b6upqNW/o27evV7Lxk5+fr8buhIQEr2TjhueipqYmpKameiUbP3l5eWqe2rlzZ69k46ayshJr165Fnz59vJKNm3Xr1qkYpaeno1OnTeM+EOfdhPOg9iIu1DHDJmSc7JeWlqqTsCmrV69GXFyccjr/RoOB4oHHv/Hx8UY6hDoUGx3CSUqvXr1UUmYC68U2saPb1o37s36mcJDU7TG1xQkKk+bBgwd7JdFxidGaNWvUv238TR3buJLCwkL07t0bPXv29EoiE+sx4mSfnddmEhvrMeJEkpN906SZvqYtlxjRBzaDuEuMONnnZNLm4lNbYmQzcXCNEU+AnOybJs3RYjRt2jR1LpgxY8b68cYlRrq/2saI8WFfsrmwEesxys3NVe0xTZq1v23s6LoFESNO9jlvsLmwEWSMiKkdzbJly9TYbZqQBR0j7QNTWzwXcYy0ubBhO6a6xsj2WNBkZ2erscnUVkfEyKY95eXlyp7NhY1YjhFtMUZDhw5VdTRB+ztWY8R5N+E8yJRoMYoLHZQREzLeURoyZIhXEh0aJKaN0wcFOwcHPBvH04nUMXU84WSfd19MEzLWq7GxUV3BNLWj28O22BzovLLIYNkcgJyglJWVWSXNbI+um2mM6Gv+tYkRdegH2rGJESf7vOpgmpC5xojC/W1ixD6hjzlTP9TW1qoBlleHTIn1GHGyzyuspneaaYNjg01/1THSfcIUlxgxIeNk0iZpZoxow7S/toyRzR0R1xhxss+JsWlCRl/TVrgYHXvssWqcmTlz5vqEzCVGbD/HOtsYMT7sSzZJs+2Y6hojHtvUsY1RTk6Oao9pQhYtRn4EGSNe2Wf/s0mag4wRoR2bGHEiyePd1FbQMWK96DfTGPFcRF/YJM22MeJ4xfYQ+sEU2/mjJisrS81TqWeCS4y4v+04zP1t5yaEk33W0SZpDipGtnMTwmM1MzMTw4cPNz6+XfwdZIw47yY2d5qjzU06sbA9ReO3LZLY6tju3xZxsRWUTpDiUj8XHRcRO81iq6fx29aeovHbFk1s9Wz3dxWN37ZIYqtju39bJJIt121+Yrt/W8TFlotOUBJU3WLdjq2exm9be4qrDRc9Fx0XcbVjq6fx29ae4mpD47ctnNju7yqudlz1ghCXumn8toUT2/1dJZod83RQEARBEARBEARBaFckIRMEQRAEQRAEQeggJCETBEEQBEEQBEHoICQhEwRBEARBEARB6CAkIRMEQRAEQRAEQeggJCETBEEQBEEQBEHoICQhEwRBEARBEARB6CAkIRMEQRAEQRAEQeggJCETBEEQBEEQBEHoIOJqa2vXef/+HatWrcLKlSuRlpbmlUSnqalJ/e3cubP68nQ01q1bhzVr1mDt2rVISEgw0iHUWb16tdLp1Mk8rywtLUXPnj3Ro0cPryQyrFdjYyO6dOlibEe3h22hH0yhv+Pj45WY+qGhoQGVlZUYMGCAVxIdtkfXzTRG9DX/2sSIOvQD7djEqKSkBL169UL37t29ksi4xojC/W1iRH/rY87UD/X19aiurkb//v29kujEeoyKi4vRu3dvdOvWzSuJDG1wbLDprzpGuk+Y4hKjuro6hMZC9OvXzyuJDmNEG6b9tWWMeKya4hqj5cuXIyUlBV27dvVKIkNf01a4GJ144onIyMjAueeei0GDBqkylxix/RzrbGPE+LAv9e3b1yuJju2Y6hojHtvUsY1RYWGhao+prWgx8iPIGNXU1Ci91NRUryQ6QcaI0I5NjAoKCtTYTV+YEHSM6AP6zTRGPBfRFxwbTLGNEccrtoeY+o3Yzh81+fn5GDhwoNIzwSVG3N92HOb+tnMTwjkddfv06eOVRCeoGNnOTQiPVcZo8ODBG9TfQcaooqJC/U1OTlZ/TYg2N4nLy8sLm5CxcTwBcnJsCnWI6UHBQGkJV0k/9MFEOzZO5Emdjjc9AFkvtsnGDutGPbbFpm4cjLi/jR9YNwY5MTHRK4mOS4zYJmJTN8ZHx9XGDzypcxK5qcSIOhwsN7UYMRkzPQG69NegY8RBmRdrTGGMdN1sY0Q/mOIaI068eFGjvWJ01llnqRPq6aefvv4inUuMuD99p9tjGiPGh3HalGJUVVWl2mNqK1qM/AgyRhznWD/TC55EYtS2GNEO9TZkjGzHVNcYsT1Et8kUJjCcp9r42zVGpj4gLWNkaodwTkdd04vSJJZjRFvsR0lJScY6Lv016BgR04vSJFqM4kKVCZuQ0SDvVgwZMsQriQ5PmoSTadODgo6n6Cs9JtCB1NHZpim8IsmDwnRyzABzAGOCYGpHt4f7m06GCP3N/W0OdF7ZLysrU1euTbG9wqEPWPoiiBjxiiSvOphOvIKMES9Q6Csppn7gRYDy8nKkp6d7JdFhe3TdNmSMOEBQxzZGeXl56iq46UmdvqYt7TsTgowRE0yeMPSdHxPaEiPTu1aEfqMu7djEKDc3V13ZNz1hRIvRMccco84FM2fOVIkZcYkR28KxzjZGjA/7ks0TG7Eeo5ycHNUeU1vRYuSHjhHPK6YTL9cYcWJMPZsnNmzPe64x0nMT2xhlZ2er452+MMHlvMf9qaf9YIKOEX1Av5nGiOciHkM2T2zYxoixYZtYR1O/Edv5oyYrK0uNTayjCS4x0jo2MaIfbOcmhE+m0ZbNExtBxoi/T1umMaKNzMxMDB8+3Nh3sR4jzruJzdMA0eYm5tYFQRAEQRAEQRCEdkUSMkEQBEEQBEEQhA5CEjJBEARBEARBEIQOQhIyQRAEQRAEQRCEDkISMkEQBEEQBEEQhA5CEjJBEARBEARBEIQOQhIyQRAEQRAEQRCEDkISMkEQBEEQBEEQhA5CEjJBEARBEARBEIQOQhIyQRAEQRAEQRCEDiJu1apV67x//47QNqxYsQKDBw/2SqKzdu1a9TcuLk5JNNatW7deOnXqZKRDaMdWhxQXFyMxMRE9e/b0SiJDG7TlUjfuTz1T1qxZo3S0mFBfX4/y8nIMGjTIK4mOS4y0ThAxKioqQlJSEnr06OGVRCbWY1RXV4fKykqkpaV5JdGxtRN0jAoLC9GnTx90797dK4lMrMeotrYWNTU1GDBggFcSnbbEKD4+Xv01wTVGBQUF6Nu3L7p27eqVRCZajKZNm4YhQ4bgvPPOW39OcImRtqP9Ztomxod9qX///l5JdGI9Rvn5+ao9Xbp08UoiEy1GfgQZo6qqKjVv6Nevn1cSnSBjRGzaQ/Ly8jBw4EAkJCR4JZHR/g4qRnp/U1s8FzU1NamxwZRYj9GyZcvUmNS5c2evJDJtiZGNTssY2bSnoqJC6aWkpHgl0YnlGNEWY5SRkWFsy8XfLjquMeK8m3AeZEq0GHVqubG1aPy2hRON37ZwYru/Fhe9oHRcxNWOrZ7Gb1ssiEvdXHRcJCg7lCBt2YpL3Vx0XMTVjqterIrGb5ufaPy2aYm23VRcfkfjty2c2O7vKq52bPU0ftvCie3+WoLSs93fVTR+2yJJEDq2+2tx1bOVIO0Qv22RJAgd2/21BKVnu7+raPy2RRIXHVtxteGip/HbFk6i7h/KDMPeIWtoaEBJSYm6KmoKr7wQXqmggWgwO2XWyAyVV6BMdAh1Vq9erXSY2ZrCK/u8+8K7ZCawXo2NjeoKpqkd3R62xfSKDeGVRV49oJj6gVeMy8rK1JUHU9geXTfTGNHX/GsTI+rQD7RjEyNe2U9OTja+i+kaIwr3t4kR+4Q+5kz9wLsvvJqSnp7ulUQn1mPEq8apqanGdzFpg2ODTX/VMdJ9whSXGPHuC6/u29xpZoxow7S/toyR6R0R4hqj3NxcdfelW7duXklk6GvaChejY489Vo0zM2fOXH+HzCVGbD/HOtsYMT7sSzZ3mm3HVNcY8dimjm2McnJyVHtM72JGi5EfQcaId1/Y/2zuNAcZI0I7NjHKzs5Wx7upraBjxHrRb6Yx4rmIvrC502wbI45XbA+hH0yxnT9qsrKy1DyVeia4xIj7247D3N92bkJWrlyp6mhzpzmoGNnOTQiP1czMTAwfPtz4+Hbxd5Ax4rybcB5kSrS5ScQ7ZC6i8dsWSWx1bPdvi7jYCkonSHGpn4uOi4idZrHV0/hta0/R+G2LJrZ6tvu7isZvWySx1bHdvy0SyZbrNj+x3b8t4mLLRScoCapusW7HVk/jt609xdWGi56Ljou42rHV0/hta09xtaHx2xZObPd3FVc7rnpBiEvdNH7bwont/q4SzY55OigIgiAIgiAIgiC0K5KQCYIgCIIgCIIgdBCSkAmCIAiCIAiCIHQQkpAJgiAIgiAIgiB0EJKQCYIgCIIgCIIgdBCSkAmCIAiCIAiCIHQQkpAJgiAIgiAIgiB0EJKQCYIgCIIgCIIgdBCd+AXt9hSN37b2lCBsaAnKVlB2gpSg2iR23ETjt609ReO3rb0lSDvEb1t7ShA2tARlKyg7lCBtBSFBtWdTtEP8trWnBGFDS1C2grRD/La1pwRhQ0tQtoKyE6QE1aZYsRPX2NjYvJcPq1atwooVKzB48GCvJDpr1qxRfzt16qS+PB0NVmLt2rXqb3x8vJEOoQ7FRocUFxcjMTERPXv29Eoiw3qxTS514/7UM2X16tXr/WZqq76+HuXl5Rg0aJBXEh2XGGkdWz9Q19SOpqioCElJSejRo4dXEplYj1FdXR0qKyuRlpbmlUQn1mNUWFiIPn36oHv37l5JZNoSI9aNYopLjGpra1FTU4MBAwZ4JdFhe7QNEzstY9S5c2f11wTXGBUUFKBv377o2rWrVxIZ7e9wMZo2bRoyMjIwY8aM9ecElxhpP9jGiPFhX+rfv79XEh3bY8E1RlrHNkb5+fmqPV26dPFKIhMtRn6wbvr42dAxqqqqUvOGfv36eSXRifUY5eXlYeDAgUhISPBKIhN0jGiHmNriuaipqUmNDabEeoyWLVumxiRTWx0RI5v2VFRUqPqlpKR4JdGJ5RjRFmPE84c+XqPB9mt/x2KMOO8mnAeZEi1GcQ0NDRETspUrV1pNJOnEcMb8oDP0X1s97XgbSkpKVEJmM9m3taN1iI2ere9IKH6q8/KEYYpLjHR7XPRsY8SkmQmZzWTf1o7WIRs6RkyaOVGxmezHeoyYNCcnJ6Nbt25eSWRc7Ggdm/YQlxhxos8Jv81kvy0xcvGDbYyWL1+uTuimCVk0O8cffzyGDBmCc889d31CpnVc/GCjQxgf9iWbyX5QMaIdYhsjJs1sj2lCpuvncvy4+MFGh1RXV6t5g81kP8gY2baHMGnm2G2akOn6BRUj22OO5yImZKmpqV5JdGI9RkyaOU81TSxcfKd1XPxgGyMmzfSFzWQ/lmNEO4xRenq6sS0X32kdFz/YxojzbsJ5kCnRfBcX2qE5Ij5wss8EhidhU9jRCTuGiUPoCGanFJ6UTJ3I/ZltcpC0cSSv7HOyz6TMBDqwsbFR1c3Ujm4P97e58sATGbN0m0ydE8mysjJ15cEUtoe/bxMj+pq+sImR1qEdmxhxksKD3PQuZpAxYp/Qx5ypH3j3hVdTOBiZEusx4uDKE7rphQ3a4Nhg01+DjBEn+5yo2NxpZoxow7S/toyRaZJEXGOUm5urEkzTpJm+pq1wMTrmmGPUuWDmzJnrEzKXGNEPHOtsY8T4sC/ZXCC0HVNdY8Rjm7q2McrJyVHtMbUVLUZ+6BhpP5jgGiNOJNn/bC4+BRkjQjs2McrOzlbHO8dVE1xjRB0eP7Yx0uO9aYx4LqIvbC4+2caIsWGbWEdTvxHb+aMmKytLjU2mY5BLjLg/9WxiRD/Yzk0Ib4TQls3Fp6BiZDs3IbSRmZmJ4cOHG/tO93HaicUYcd5NbC5sRJubdGJhe4rGb1t7ShA2tARlKyg7QUpQbRI7bqLx29aeovHb1t4SpB3it609JQgbWoKyFZQdSpC2gpCg2rMp2iF+29pTgrChJShbQdohftvaU4KwoSUoW0HZCVKCalOs2DFPBwVBEARBEARBEIR2RRIyQRAEQRAEQRCEDkISMkEQBEEQBEEQhA5CEjJBEARBEARBEIQOQhIyQRAEQRAEQRCEDkISMkEQBEEQBEEQhA5CEjJBEARBEARBEIQOQhIyQRAEQRAEQRCEDkISMkEQBEEQBEEQhA4irqmpaZ3379/R0NCA0tJSZGRkeCXRWb16dfMXpzt1Un+jsW7dOqxdu1b9jY+PN9Ih1KHY6JDly5ejV69eSExM9Eoiw3qxTZ07d7auG/dn/UwJxWJ9e0xt1dfXY+XKlRg8eLBXEh2XGK1Zs0b928bf1LGNKyksLETv3r3Rs2dPryQysR6juro6VFRUYNCgQV5JdGI9RgUFBUhJSUH37t29ksjQ17TlEiP6gGKKS4xqampQXV2NtLQ0ryQ6bYkR/WCKa4zy8vLQr18/dOvWzSuJTLQYTZs2TZ0LZsyYsX68cYmR7q+2MWJ82JcGDBjglUQn1mOUm5ur2tO1a1evJDLa3zZ2dN2CiFFVVZWaN/Tv398riU6QMSKmdjTLli1TY3dCQoJXEpmgY6R9YGqL5yKOkRwbTLEdU11jZHssaLKzs9XYZGqrI2Jk057y8nJlr2/fvl5JdGI5RrTFGA0dOlTV0QTt71iNEefdhPMgU6LFKC40eIZNyFatWoUVK1ZYTfZ5kJNwBltDZ+i/pjqE+9vqkOLiYpWM2Uz2XetGTA8KYus7woSMnddmsu8SI90em7ppPRsdUlRUhKSkJPTo0cMriYyLHa1DNnSMOImsrKy0muzHeoyYNPfp08c4IXOx41o3lxjV1taqpMxmst+WGNkcc65+YNLME7rpZD+aneOPPx5DhgzBueeeu/6c4FI3rUNs9Bgf9iWbyX5QMXI55kh+fr5qT5cuXbySyOj62dhpiw6x0WNCxnmDzWQ/1mPECxsDBw40Tsh0/WzstFWHmOrxXMSJoc1kP9ZjxKSZY5JpYtHSd6Z2gtIhTJrpC5vJfizHiHYYIybNpgmZi++C0iGcdxPOg0yJ5ru4UEbZHBEfXO6QsaMT02yTjtBZrU2GSh0KdWwOJk4kOdk3vUNGB7JNHIxN7bBe1OP+pgcf4YlMt8fUD5ygMFNPT0/3SqLjEiNeQSBBxIgTyeTkZOOkOdZjxMk+B1ibCxtsD3/f9OqQa4yoQ13asYkRJ5I8WZgmzbEeI072OZm0ubDR2Ni4vm62MTKd3BHXGLncIaMt2mCsWifbxx13nDoXnH/++euPZcaIF4Xob1M7bAt9Zxsj3iFjX+Lk2JRYjxEnKWyPadLsMqa69CPXGHGyz3mDzYWNWI9RTk6OGhdMk+a2xMimbjpG9AH9ZhojnouoZ3NhwzZGbAvbRGxiZDs30djeIXOJkcvxQz/YnveIyx0y2/OejhH3NfUbcYkR/ZaVlYVhw4Yp/5kQ6zEqKytTf1NTU9VfE6LFKFTefGsvnFDJrzyccH9bHYpXGWNxteMitnWjuNTPtU0udvzKo4mtH1zb4yK2daO41M/FDsXFjovviF95OKENWx2Kbd24v0t7XPRc2uMirm2yrZ+rHVsd7k94clq4cCHmzp2rJm/6d0jL3+Sk4YcffkBmZqaahOtyEyF+5ZGEtl3aZKtDsa2fq50g6kYJyo6LuNqx1SNBxIj7u/rbVo/4lUcS17r5lUeToHwXlB1iq0f8yiOJS/3a0ia/8nDiYoMSZHts9YhfeXtLVDtqD0EQBEEIwauMixcvxgUXXICnn34a8+fPV3fheSWR8Mogy7jtyiuvxNdff211hVUQBEEQhN8iCZkgCIKwHi56tPvuu6u7Y1zA45RTTlHJF5MyJmMvvPACTj31VFxyySXqSuS4ceOMH10VBEEQBOH3SEImCIIg/AaucnrRRRepxyh++uknnHfeeepOGJOxW265BfPmzVPJ2IEHHogJEyZ4WoIgCIIguCAJmSAIgvAbeMfrkEMOUcsU6wUU+GI/FxHiXz6+uOuuu2Lrrbc2XnxHEARBEAR/JCETBEEQfgdXWeQ7Ynp1OS72od8j452zo48+GuPHj1f/LQiCIAiCO5KQCYIgCL+DiRiXuufS+Xw8UcN/8x2ziRMnyt0xQRAEQWgHJCETBEEQfgcTL66eeNVVV/0m8eJ3Xk488USMHj3aKxEEQRAEoS1IQiYIgiD4wkcTTzjhBPWhX/6bSdpuu+0md8cEQRAEoR2RhEwQBEHwhQkYF/g4//zz1cqLvDvGJe9HjhypEjRBEARBENqOnFEFQRCEiBx//PEYPHiwWllx0qRJSExM9LYIgiAIgtBW4vLy8tZ5//4dXO64vr5efSjUlDVr1qi/+vGWaPCKK4VwfxMdwtW+KPHx8cY6pLa2Vr2snpCQ4JVEhnVjm2zs6JXIiM1VZPpb+83UFnUaGhqsJkhBxoh6pnY0NTU16Nq16yYTI65Ot2rVqk0uRt26dVPvGJnQlhjp9lRXV2Px4sXIyclR5eGgHa1jaotxZZy4sqAptnZaxsjmmHONEZeoZz+iz02gDdoKZ+f1119H3759seWWW65/XFG3ydQHRNvROqZ6jA/jtCnFiOcj9iOTGKWlpanPDHBcbEs/MoFtoe90e0z1OM5Rz+ZD4bZjqmuMWC9iG6Oqqip1vJv2I/qbElSMdL1M9TbFGFVWVqp5qqmtjoiRTXs4p6OuzVgXyzGiHfajpKQkYx36m3o2doKOEeH4bUq0GMWFJlbNEfGBHbe8vBwDBw70SqLDkybhRM2kcXSG7hymOoQOpFDH5mAqLS1Vg6vpYMR6sU08CZra0e1hW/RgaQL9rdtj6gceFByM+I6HKS4xoq/5N6gYMXkxHYxcY8S6cf8NHSNe1GAy0b9/f68kOmyPPn42ZIw4QFCHdmxiVFxcrB5hMx2M2iNGWVlZmDVrFj744AN1t6Y9oQ8oNj6IdfQYZHosRIPJA+NHaa/ftOGPGiP2gbKyMowdOxbXXHON6nc2Yyr1aUf3IxPoZ35vznas44Ua6qWkpHgl0eH+um4mdlg3PdbxWDTFdawrLCxUK42a2mLdKC4xsqmbjpHuj6Yx4rmIvujTp49XEp2gYmQ7N9EUFBSoearp8R1UjLi/7XmPMHmhbnJyslcSHdu5iY4RoZ4pLjGiLcZo0KBBVv6O5Rhx3k04HpsSLUZxIUeFTcg42S8pKcGQIUO8kuiw4xI9SERDHxQU3rkyDTAHFOrYOpGDK7N007sVDBadyCvNNgcFhfvbHOj0N/c3HfQIr4LzZJ2RkeGVRIcx4u+bdijGiP6mL4KIETsuByLTRQOCjBGTK/qAeqZ+4ESWFzbS09O9kuiwPbpuGzJGHIioYxujvLw8pKamGl/YoK9pS/vOhNYx+uWXX3DfffepO2QXXHCBt5cgbNpw/HjttdfURZAHHnhAJTsu/YjnFdMJK8cTno9sxzpOUqhnc4HQ9rzXcqzjmG+KnpvQls1Yl52drS4A0RcmuJz3uD/1tB9M0DGiD+g30xjxXMSx2OYCoW2MGBu2iXU09RuxnT9qeLGO81TW0QSXGGkdmxi5zE3IypUrlS1eCDAlyBjx92nLNEa0kZmZieHDhxv7LtZjxHk34TzIlGjzR0nIouASLN0e7m86QBDbDkUkIQs2RpKQNdNRCdmDDz6o+gknpoLwR4BXy3khYvbs2ZKQhWg51nHMN0USsmYkIYv9yb4kZLEfow2RkJlbFwRBEARBEARBENoVScgEQRAEQRAEQRA6CEnIBEEQBEEQBEEQOghJyARBEARBEARBEDoIScgEQRAEQRAEQRA6CEnIBEEQBEEQBEEQOghJyARBEARBEARBEDoIScgEQRAEQRAEQRA6iE78KFok4Qfd/MrDCfePVR1XIX7l4cS1bm3R8ysPJ0HVzUXHVYKKka0dLba2iK2OS5u4P/HbFkmCqltrPf67fWhAVfEyLJ43D/N8ZT5+/KkAVd7egtDR6L5AWvYTE2nZh0zFxY6LuNjRvvDbFk6Iix9sdVzqRnHRIX7lkSQIO9oHtrZcdChB2NE6tnq2vqO0pX5+2/xE7+9ix688mrjYcdWx1XOJkYtEsxNXV1cXdobDr1fzi+FpaWleycZPSUkJEhMT0aNHD69k44ZfZ6+oqMDAgQO9ko2f4uJiJCUloXv37l7Jxg2/zl5VVYUBAwZ4JRs/RUVFSE5ORrdu3bySDc+iRYvw8MMPq6/xP/DAA16pK4vwv5tuwi3Xv4KfU/ohqatXTNY2obFmNWrip+HZ5bdiH69YEDoCjh333XcfPvvsM/W3f//+3pbYo7q6Ws0b+vbt65Vs/OTn56uxOyEhwSvZuOHx1NTUhNTUVK9k4ycvL0/NUzt37uyVbNxUVlaqCXqfPn28ko0bJkiMUXp6Ojp12jQezOO8m3Ae1F7ErVmzJmxCxsl+aWkpMjIyvJLosKMTdoy4uDj170gwUKE6qL+mOoQ6FOrYBLiwsFBN9pmUmcBOwTZxMDa1w3pRj/vHx8d7pdHhiUy3x9QPoYRaJc080E1xiREnwSSIGBUUFKiDvGfPnl5JZGI9RrW1tarzDh482CuJDtvD32fdNmSMqENd2rGJEScpKSkpxhc22iNGCxcuxIMPPqhi0F4J2atf9sKU6/+FU7b0iklVLpY8fwO2vzJJEjKhw9EJ2RdffKGOe06kbcZUl7GOY0JjY6P1WMeJJOcNNhefaEfXzXass0mSXMe6nJwcDBo0CF26dPFKIuNy3tMxsqmbjhF9QL+ZxojnIurZJPa2MWJb2CZiEyPbuYkmOztbzVOpZ4JLjFyOH5fzHikvL1f1s7mwYTs30THivqZ+Iy4xot+ysrIwbNgw5T8TYj1GZWVl6q/NhY1oMQqVd1IbwwmV/MrDCfe31aF4lTEWVzsuYls3ikv9XNvkYsevPJrY+sG1PS5iWzeKS/1c7FBc7Lj4jviVhxPasNWh2NaN+7u0p6We/nfHEBq062tVcq2koRGrQwN5M2vQtKoedXpbC6mrX6X2W7u6EfV1DWjSKn6E9mmoq1uvW7+qKaTrbcM69RsNdd5vh/arb2yelIbOQFi3ptHXfkMjJ3rNu4V+AI0N9b/dp74BjSEja9c0YZX+7dZS14g1tEEfNNS1sFOPVatDv69+fE2o+g2ob6nnCX3QtLa5/vUhHfog9HPRWevv17qQH1XTQz/C3/Rvd6hN622s/W3dVJubJ4vNNMenoYV+s7So69qmkO/rm32lf5c+q68P2WpCU+OqX2PzGwn5q6HJ81HbaHn8t+4n0UT3IRtxseMirnZs9YiLH2x1dJz8tkUSl/oRv/JI4lo3v/JoEpTvgrJDbPWIX3kkcalfW9rkVx5OXGxQgmyPrR7xK29viWpH7SEIgiBEIBuPHjUMw/omqrvricfcjfcXNF8hA37GixcdjZ1Y/hsZim0PuAKvZBVi8RvX49AtTsFjyzwVP769EwfvPGq9/t4XPoT3c7xtqMTPb96KM7byfnuzKdj1tm+aN62uQc0Pt2OvUHkvT1fLsfd+i0Urm3dDyfv452lTMarF9hF7nYob38tC9hf/wQXb/VZXSa/eSNzzbsytDiWWyMUzp22JsQP19kNx1fPfI1/9+GK8dcPp2KO1fuJgjNvxPDybVYbiz2/F/hmH44FsppcGlH2ORy88BGNb/eboXQ7BXd+GtjeuwPJP/47dWm2nnPz4UuSvfwGwCO/+/QjsMcLbvut0XP36Um8bKcaC9/6Bo3/zG32Q0v9A3JsFNLGyyx7FiWMPwQ1vLcXyhmYtzH8EZx58JI6//mHce9v5OGJMS31P0iZguzOfR56nIgiCIAh+SEImCIIQFt7byMS/D9wBV/S7Ge//XISqqp/x2IAX8Zdb/4NX5xU37xZi0rSr8fT3VeoRs6r8r/DazcdhtLctKnnPYsaFX2Li9CcxtzCk/8W92CJ3Pl5+5X0sxUrMe+ku3PLobDSd/3no95djwfMzMOXjM7HNDV94PxCPTvE74O9frUBxuVeHty9D8SNP4PX5i1CCuZh1xZ3ITD4G981v3p77yX9wxqBqfP7cZ6jY8TTc8XWovGQJ5r94GXYbeCDu+CH035XlqHr/PGzdazmenjYVV3aegVlf5in9Rc9sgYVvvoCn3/gJzU/TA1scPAMPfeXZL5yHj+4/DeO8bW6kY7dTbsfrmd5vLvkU9xyYgadCbZmttndFzz774NZ5Vais9PZ5fQbm33Q33sjKQzkK8Prlp+HapeNxypMLQtuz8O5JPfDTk9fj4hd/Ub/QTG8M2/o0PPRzSL8sFznvXY5tvS3+FOLtV9/Awh+XhP6diu1PvwsvLAjp5n6G566ajsP2uQRPLwr9d8EP+Ob+o2H+0L8gCILwR0QSMkEQhHCsbgQ+vBdXf7ofrr3sQIwY2g+9eo3C0ccegP4Ll2Fu9nIs93btnNAV3RN7hbZTeqJ7twTzATbtYFz32iO48sQdscWAkH7P7ui0rvldmbXZ3+GLj4qwIuUQnHPqdqHf7o9RoybjyD0nYcWLH0OnZKEaoFtiome/FypXFKChulo9MrmuuB92u/bfuOKm07Hf2Obtg8eNx5bjM9CnPA/Ly7qEdJvr3bNHV3SO428179crsSviP3sY//hkJ5x37oEYP2aQKh956GHYe91cLPvoG8zLba5BfEIXdO/p6YV+q0e3LqFUsS3EhX6zG3qo3+sV8udaVJQWoGnVr48BxrWsa0jKS3LRUFPT/Jjl96/gsU8GY8f9DsLU3TYPbR+C3XbfHdv27IbM2T/j15QsMdTuzbD5qNBvhH4rsWeozd4WP4r+dz8WJY1A78ET0S9Ux86so+e/7qE2J3TWx0Lod7tbHAeCIAjCHxI5TwiCIERiVS2qx47HFik90TWeQ2ZndB8+EqMSSlFbVImKmubdIlOPsrw3ccUem2PzzbVchtfLakJbQnTugeR+KUiq/hh3nX4gJh/0VywcNBoH7LcLhq1pQmPvJCQOG4JhPbiwQCfE9+yN1OGDMKJ6EZYW8AfWYO2a7/CPA0L1HN38+ztf+Asm/+XPOHjrEUhNGYDBaekYVPwB7pp5kNo+evKRmHHPu8hbt/bX98zCkLd4Pirr38QtR+2FyWNHK/0xE6bhutdn47PCIhSXmXwgoBH1lZ/iur02x6j1PrgIz2aWotrb4/csx5fPXYMTt2/ef8u9zsYDi4bjvLv+jElqeyNqKz7GtaHfbP69zbHrXwtx4O3n44DN0tC7qQH16elIH9gXqV344no8ugxIQ0ZqJ/RYWYDCFaEivutVUoy8UGIXb/Ru+1y8lT0Rk0aMxrbpCW1MOAVBEARBEjJBEITo8K5HXIsFRRIS0KXTWqxbExKjFRu6Iqn/jph+7/N4/vnn8dxzz+KOw+fgb/vfgv/ll6PW2wt9JmPaFbfiP7eehaGl3+HNtz/GL5Wh8s7x6BRKKNbnC3xpOaEzuqAJTWptj06I6zQGJ9z+NJ58ttnGfedm4Ocn/ovPFheiMmEJ3rjqTBx98D/wXec98LeHQvs8+g9ccswUmHzUpKmpEevGHIer7n0UT4d+m7///PP/xTuffoHnbjwNe482WRG1M7r23Aqn3h1qv/cbdx2bhX+edAde/TlUR2+v39IXW0w9HVc/3Lz/rLsvwiHp+XjhrtewUG1PQLdeW+O0f+k6PY97pqfgi38+j9n5K6By5a4JIfeFkli1f4j4eLoT8Wu5ilfov2urUVmzElkj02Dy8ZD5j7+ApvSB6Lf5IHQ3X5xMEARBEMIiCZkgCB0Gv1s0f/58tVR2TLPgE3yb24gGb2FDlCzHsobeSEjpCbOV/zshoWsfDBm3NbbeulmmHjkFSUu/wdJlDWho9HbrkoxBm43FhD/tjckplViXuRgFXJSjLBfFixdisV5HZFUD6orLkNM5A4PUCuNckSoRg8dOxFbe7+95yK5Ir8pEQU45quZ9j/eLE5F2wrm4cMYJOHSn0D7D05DcbS1K1Q9GJm3wMMQX5qI6cQQ2G/9rGyjjhw9ESg+T+0Sd0KlzEjJa6O95+A5IKfgR2TnVqF3l7fYbEtArNQObTWjef4ddJmPypAzEL56LTPX6Hj8N0RsZLfy612G7YWDJj8hZVoM6/mbOD1icXYJinfVWVqC0ch2qe6YipU/ItcX5WFawACN2nISoHw8pfg9fNW2PLTYbhSHJm8Z3qQRBEISORxIyQRA6DH5Y+oknnsAVV1yBjz76CDU1Rs//BUenzsA2R+DUjK/xn1e/RXk1E8cSfPrme8gZmIbNM/pjgONdkorMhShck4zE3p0Qv+hpXDT9X3h2Ti7KubG0CPlVcajp0Qs9RozBhDF9kbRiNl77PCu0sQGlyxfiw0+/x7pdd8DkMN/m7rZqFcrWJaFLrwR0aaxGRVERanv0Qe/+/dG7YSE+fuMVPPPy3OZHJqPQfcoxOH7oz3jxP69jfkE5VO605A384y9X4cZnvsRSx7BVZi/F8sae6J6UAJNP4cSvWYN1oeS1vHMyeid5ha3oHkpWS9Ylh36zMzqP3xX7jViBH7/7GvOXMvWsxILvv8a88hqkThiNUV1WYPmyXCz7cSB2mjIckT9zvhQv/zcPaRO2wOhhKTDKQQVBEATBAEnIBEHoMPgxxvHjx+Ott97CZZddhssvvxzvvfee+sBsTNApNOvuPwUz7rgKO/10Ky79v2k4+ujT8Jcfh+OoEw/GPuO7YvFLL+Cdr2rQNGgY0sM+/7cKlSWz8eC5R4f0Kcfg9FvysOPl07FrRjJ6DpyI7fv/iBdvmYmTuX36zZjXc2vsfsBUbJGejm0OPg7H79Efyx8+M6Q7DadeMwsf9T8G/5yxC5o/Hcr3wBbiyQun4YRjPRt/eRyd9tgfU8YMRepm++CgSWtQ9s51OP+E0LYTr8ITP9Vj8PajMaJ+Ocr00vjh6LcdzrjhMuxe9QLuuuBkHMffP/sBzF/THyM2643iD17HOx8Vorr/ZhgWdknBJqyqmYdHzzsaxygfHI3Tb1qIsWeehN1HDUBv3wSnDD+9/zCu+7PXptMvxj2fFWK7k4/F1t25vQkNNXPwSOg3m/0aksueRcoRR2OnYf2R1HcLHD7zPBzQfQ5evPrU0PaTcO4L+ei14+E4e4/uWPLqQ7jlhofw/FefYdZlJzfrTzsFp/3tGfyy6mc8PuNveCN3FRrUY6nV6DdqCrbefBCSe8izioIgCEL7EbeOn7UOAx8jKikpwZAhQ7yS6PCL7kR/PT4aNK+/yM0v4ZvoEK4+Rh3br2sXFhYiKSlJfSPGBH7Fm1/X7tq1q7Ed3R7ub/MFdPqb+5t+DZ/U1dWBXwznV+pNYYz4+6ZfWmeM1GpvIV8EEaOCggIkJ4cmqT1N3ksJNkb19fXKB9Qz9QM/EMsv76eHJtamsD26bhsyRvxCPXVsY5SXl6e+UN/D7Hk95Wva0r5rSXFxMY477jjMnj1b9csxY8Zg8uTJmDp1KrbZZhtlh3745Zdf8OCDD6p+8sADD3jarlQi/4cfsKwkAf23mYLNU7xi0liDyuwf8PqcBOxx3GQMVoVVWPTe6/iucBVW8b2jjO2wz7abI73PWhTM+xLzfqlHr3FbYeLEdPTm7o3lKFyyGL8si8OIncejT/nP+PiDn/DbvKcfJh24D8b17YouIZfUZn2Bj+Zmo6SyeQztP3YKtho/FunqTtAqlOf+gvnfzEEm18/o3gd9x+2IgycOUB8tblq5AG+/9v3vHj8cMvlAbLtZfyR3A1Yu/gTf/ZiJfJXr9sDAzYdjYK+1qA+1KWXy7hjLzG51HaqXL8Lnn5dh+J+mYsxv7kJVY+nHb+P73GrUqkc3e2Pk5B0wYVQKGpd+hx/mr0TnEVti0uTh6MPNTVUozVmMeT83YPie22JQ7QK8/7954Doav5KKLffZC+PTEtG9dULWsByL5v4Q8m3hr+/YheiROhjjpuyLLVMbUFv8Mz54+4dWvwkM3+kIbDe8NxK5BgrqkPf955i3KB+lvMHZdzNsueVEbJucjTcefBwPvFiGrc/aHcO5q2bNKjQWfozbrsnDGfPexzlD8vD1u98hfsJ+2HpkKpK6hvapy8O8LzNR12coNh8/HP1YtqoMuQuXILM4IRT3bTDUrHtEhEv533fffap/8LhPSUnx7Ufh0GMdzysUEziesJ/ZjnW8kEK9AQPUc7RG2J73Wo51HPNN0XMT2rIZ67KzszF48GDlCxNcznvcn3raDyboGNEH9JtpjHgu4ljcv39/ryQ6tjFibNgm1tHUb8R2/qjJyspS81TW0QSXGGkdmxi5zE3IypUrla1+/fp5JdEJMkb8fdoyjRFtZGZmYvjw4ca+i/UYcd5NOD8xJdr8MS7UgIgJWWlpqdVknw4hpgcFA0WHUGwCTKfb6pDly5erpZFNEzLWj4OXzQCh28P9TQ8KwgNdt8fUFgPMzssThikuMdIdN4gYMWnu3bu3VULGNtnGiPVjx9jQMWLSXFFRgUGDBnkl0eExx7qF67itaUuMqGN6LGiYNHNi2L27uk0RlWgx+ve//43rr79e9U/Wh4Pc2LFjsd1222HPPfdUf1esWKH24+DZ9oRM+MNTMS+UkL2KV75Lw5kvTMd2XrFidS3qfr4PU7d6BYeFErKzx/dAzw66KaYTsi+++EId9/oChU0fZ/+zGevYBzkG2Y51rCvnDTaT/baMdRxPTLE972mWLVumxm5TW9rfLjFi3egHE3SMdL1MbfFcRD2byX6sx4hJM+ep9LkJHREjm/Ywaaa9vn2bn38wwXZuomNETP1GXGJEW4zR0KFDlZ4JQcWI+9vOHwnn3YTzIFOixSguNLkJm5Bx4sMs0GYiycaRcAZbw0BpMe3shHZsdQivxjMZM53s0wZtudSN+5seFIQHE3W0mMDBlYsi6I5lgo6Rad10fIhN3WztaHig884L3y8yQcfItKMTXTdiGyObY4FwgsK7ZDZXUvSxEKsx4rjAfmR6hTpajJiE33bbbVi8eLEaHHX9+/Tpox5p3GGHHdRFh3nz5imbkpAJbaahGEvnLMLCol6YdPjW+M1Zbm0jmkrn4On/LMLo06dhUj+uqultCxidkH3++ee4//771STNZgxiv2P/sx1PqKfHElNbXKSH8wabiaTteU/XjbiM+TbtIfn5+eqOn2liof0dVIz0/qa2eDwxSXA5H2mJRtAxys3NVfNU08SiLTGy0WkZI5v2cF5HPZvJfizHiLYYIz4lZGrLxd8uOq4xYtJMOEcxJVqM4kIdM+IdMl6VtnnUSk+mTBunnUGxyYS1DoNrqkOKiorUHTKbhIxtcqkb97c50DlI6vaY2uJB/sgjj6iJqulJUNfN1AZ9QCEuejwWbOBdP578TAdXFztah9jo2fqO8PjhlRHTx/tIrMeId/146709Y/TVV1+p45njjm6L3p93TLfYYgvVb/loCh9dFIQ/Ai3vkOmEzOa8x0kAxxP2JdPzEfsfxy3b85HLHTKXOQPbxL82d1+oQ0ztaDgmpaWlWSVkFJcYUSfSGNkSHSM9Bpva4mOlnGvYJM22cxPXGNkeC5qcnBw1TzU9H3VEjGzaw4SM9mySZtcYEVO/EZcY0RZjxHM362iCPn5iNUYud8iixUjeIYsCg2v7fKluD/e3OdDpb+5vcwDyjgIf9eL7NSeccIJXGhnbDsUY0Q/8a9s5bHUITxh8FM70uWbasO1QbA+F+7N+prgkzewTTGD4XpwpsR4jnjCYYJrGiHWjrXAx4h3ERx99VE1+6GPWibD9vDPG5cz5uAOvVvNRG0nIhD8KOiGTd8iaYd04PnJMMb1DT/TchLZMfUfkHTL7GOnxnnU09RuxnT9q5B2yYGPE36ct0xjRhrxDZvAOWchRkpBFwCVYuj3c33SAILYdijAhu+WWW5TfZ82a5ZVGxrZDMUb0N30RRIxkUY8/1qIehCsrnnPOOViyZIn6b+7DdwLGjRuHXXbZBfvvv78q491g9hN5ZFH4oyAJ2W9pOdZxzDdFz01oy9R3RBIySciI1rGJkcvchEhCFvsx2hAJmbl1QRCEDQDvHj722GNqASEOosOGDcPee++N6dOnq7u/M2fOxFZbbaUGZkEQBEEQhE0NScgEQehQvvvuO/V+DN/t3HXXXXHmmWfirrvuwgUXXKDeG5NETBAEQRCETRlJyARB6DD4iMGbb76pvj123nnn4aGHHsJFF12k/lsSMUEQBEEQ/ghIQiYIQofBZ6r5ntjDDz+MCy+8ECNHjjR+D0AQBEEQBGFTQBIyQRA6DD6mePLJJ1t9n2TjoAkN1StQsHQplraSzMwCVDTyRWfu14iq5dnIzvS2F65ETUPzhzexug6VxQXIWa+7DPmFK1BesQLL80pR3dS8G9auwZrq4tD2fJSvWoe1jZVYnl2AspomrG7+ZEyoOrVYWViE0rIaNLT+ZOGaRtRH+83WSz811WBFQS6y1tdNSzbyi8pRyyasbURDZQlyW27PzEJ+qPF8yRtePVeuKEZOTlbz9mUlKK9rxK9VXI2GqlDdcjz9nHwUVDR429ZiTVMlilr+/nrJxYqaRqxurMaK/OUoLa/DKvNPNQqCIAhCoEhCJgiC0O4U4ae3bscZY8dj6+13xs47h2SnHbHj5MnYauLJeCx3HVavW43alT/g0Rl/woF77BjaZwq2nX4nXv42F/WNoexh5Vd46spTMXXLSZi8I3/jeJx36d14+vlbcOZR1+KNItoJJUsNK1D00gUYPeY4PLy0Eatyn8E5u5yMez7NRWnzomXAig/xr7Nm4tp738VPVV6Zpi4L3z77D5x1zHV4s8VvFr54AcaMm4b/ZK5Go07sNCVv45aTDsZuW2+H7VXdQrLjZGwzcS9Mu/BhfFa2Bk3li/DVU1fgCK/9O+04JSTb4+h7F6IulI+ty38aZ045Djdfeyn2O+gA7Mj2H/wX3P/ez1jB9ofSssa6fHz53I2YcfAOod/YETsccjL+78HPQ8kmG1aDlXkv4S+jRmHLyaHf38mrx5RtsMXow/CPD7JRlPs2bjrhHNw0azaW1KqaC4IgCELMIQmZIAjCBiJ966m4OpTl8IP0RXkL8fNrF2NrbxtWL8Ejx/0J/+jzFzz7ZWZon7mYNeoz3PGv/+DZbwvRnAMNxm6n3oZXfuZvfI5X7j8eE1V5M+vWrUL1yh/x2L9fbbfBfN3aVagqm4/Ho/7mZjjyuufw0RKvfb+8ifvO3QdDuWldERZ8/jJefLIIx73VvD1/6Xy8MXM85vz9Pnywei2a7wPOx/3/XoPzHnsXC4vm4ckDCvDKU0/jldl5WLO6FF8/fivueHM5Bl/5Weg3MvH13Udg+EeX4aC7v/H0gW5JfXHaM0VYzjpQvrkNhwxJhfln2AVBEAShY5GETBAEIWj4yN6H9+LvXx+G6/96AIYO7hUqTMfBxxyKEQUr8HNmPvKa94xIU3kRMl+8CdkHXYPJof9ujwG9sbwQWS/9A9kHXq1+0/xrQC2o6YWRk8/AZbNfx4XbNxcldO+JzffaH9uuW4ilWfyQeXP54f/6G/602RCkhJLPA887B/vX52LBFz/gh28/xbufrka30Ufh/44aG9oz9Jujd8DBO09CxZuz8VWzuiAIgiBs9EhCJgiC0FFMGomhXROw/vO2gzKwec9yNJVUorL1o4W/oxIrVy3ES/ln4+a9vKL1zMMdR0zAyNRE9RH8xM2Owg1vzkWJtzU8FaHfXIyXC87CTb/7TQsSe6HngAFIK1uIr/91bHMdktMwePdr8W1o86+vpG2F4UO6oZt2wMBBSO9ZjIaSUqysCP13eiqSM/qib/NWoGcv9E5LxvCGbOSYZKyKRXj60gMxOc3zReKuOOnq1/GLt1UQBEEQOppOXOUsnPDL31yW2m9bOOFXsinU9dveWrgfvxrPr2Wb6lC0Dr+w7bc9nFDPRof7EhsdfsmcPqAtv+3hhC+6U8fGD6wX9WjPb7ufcF/G1SZG3F9iVK/sUNc2Rrb9iH4LIkZaxzZG1LP1N4/TtsRI+3GTgl/sb3kPKi4OneLWIS7kq9braLSmKq8I3z/8HIactDu6/m5hyvE446GP8OXP3iIXsx/EjKlb/JrYhKEydzm+f+QFZJy4G7q1ZbHLuCL8/PYtOHHsATjjmZ646eNQHRbOw5yXLlSPXP7a4vhQe1t4oBPbz+1e60P/ERfy0forh9zGffhAZzQHrWckDvvbLLw1r9kX3zxzGFLnPYm/X/4qFnh7bAzovuDaj/jXb7ufcAwhLmOdjR2K7Xmv5Vjntz2c0AcUG99RaMvGB2yL7ZhKn1HHJUa0Y1M/2tjQMWKd6Df62297ONExsmkPhbb8ysOJS4y0jo3v+Ps6Rn7bwwlt0J7ftnASZIxs+wTFNq4bQ4xs+xGhTjg/dOK3fsIJl5+OC50s/baFE+7fKXQCpa7f9tbC/bg/9Ux1KFyRzVaHQlvU9dvmJ/x94lI32vLbHk4IdW1s6frZ2HKJEXVs/e0SV8qmGCNbOxtDjGx06DNiq8O66WOBuvp3Nhl+fB9fZtdBrVFBiguRXZuE+NQkJCV6ZX40LEdF6Rz8MPBcHLNZF6+wJQlITOmL/gMHYiClfwp6dQ3FzdvqS33oN1fMw/yB54T5TQuKC5CduQK5+12CB565ESdNDNWhbwpS61aoO1O/5lI/IbegAQ26/SVFKKydgLTNR2DI4NB/Fy5B7i8LsaiseTNqa1FVXIHcrhkYnOaVRaUzuieloO+AZl+M2nYrjB2aiLjCZVi+wttlI4B9TvcJlz6u+5GJ8PcJdWxs6T7qty2csG6uY53f9nBCG7bjFoU6fuXhJOgY8a+NLdqwjRGhjqkd7ucSI+7vEiNbOx0RI7/t4YQ2bI87EusxstHR/nbRCSpGNnYoJFKMOukfDSdsoF95OGnpEFNx1SEu9fMrDycudrivFr/t4YQ+cPWdjV5b7PhtCydax9YPLvu7xMilbrZ2KNqW37Zwwv1d/e23LZy4+iEIndZ1499NhlC7MOV4nD1mPma9/DlKVnIJwCJ88NrbyOzfF6NGDMLgsM2tRF7BIrz50Vrsd/gEJDeP822kErn5i/C/j9dhv8O2aPtvrl6N1WXFWFmYjxVdB6D3ugqU/vgUzrnoZehF65tZhTevvg8fLSsM1aAYHz82Cx927Y7+o4di6KjtsNPWvRFf+Dn+NzsztG8NcrPm4v2vf0L33bfHdo51rCnMDSWBFajt0QfJvb3CjQDdF4hNP6K49FcXO9w/KDtsk9+2cML9Xfxgq8N9XdoUyzHSvvPb5ifahkvdbOxocbFj6zuXurnYoXB/W52gYmRrR4uL76hjUz+t47ctnFAnqBhFs9NJO7e9ROO3LZLY6tju3xZxsRWUDkXjt609xcWGi46LiJ1msdXT+G1rT9H4bYsmrfVin2pkffEOXnz4QyxO3h4TxnnFrem1Fabf+y8clf9PzDh6KnbZ5WCc9+NoTDvlGBw6aRDC36Nag14pSZi0694Yl9rGO1nrCf1mau/Qb05tn9/sOw7jd9oFe8U/iksO3gW77HEIjrvsMwy7/BwcsO7nUPIHrFWLeozCgbutxIMXnYx9Q+0/+6vB+NNxR+Gwyeno2m0wdjzuLJy2Uy9k3nF0yD/74PBr/ouFW56NB8/aCqvz5+GFK+/GBwn7YsftQseIMuzHMrx99wU4ad9QPXbZBfud9m/8mLQNjjhtP4xul2Q2eFr2hw0lsW7HVk/jt609xdWGi56Ljou42rHV0/hta09xtaHx2xZObPd3FVc7rnpBiEvdNH7bwont/q4S1c46PngaBj7nWFJSgiFDhngl0eHzkYS332ggGjSvnxvu0qWLkQ7Rz76q23xehmtCYWEhkpKS1MvdJuhnWLt27WpsR7eH++vboSbQ39yfmbKpHxYvXoxbbrlF+X3WrFleaWS4L3+ftkxjRH/TF0HEqKCgAMnJyejZs6dXEpkgY8TnfOkD6pn6oba2FuXl5erjx6awPbpuGzJG+plr2xjl5eUhNTUVPXqYLS5OX9OW9p0JrWP0yy+/4MEHH1T95IEHHvD2ikWaUF2ci+yFeajpOQzjth2GZBavbcKqilzM/a4MA3eajCEh13WKq0X+nG+wuLQBq5ig9NscW2+egYG9u4YOgjIsW1yAqk7JGMxVCLnwxeoarCzMxtLcOqSO3x4j+/B3V2N1dS6+nV2MgTtvjyGd8vHD10XotcUWGJLaA115Ya6hBEt+LkBjUhrShw5E75Y5F3+zIPSbefWh35y8/jebqnLx3VclzXVN7IT4lodUfREWzi/Euv4ZoeO6H3oxsWksR0FWAVY09MCgMSOQ1FiEvMVzsaSUCp2Q0DUFIycNRu1XPwKT9sbYqgdx+M4vYps7/4oJqXHotqYplMhthomh9g9K7kalEI2oLMhC5pJsFPMR/O7J6DtsLLYb1guNtSuQM/cHLFuVga32Gqvej1NVrMvD3G+WI3HMOGT0qkb2j0tQUF4bioqmG1IzRmDk5kORun41ldilqqoK9913H2bPnq2O+5SUFKd+pK/CmsDxhP3MdqyrrKxUegMGDPBKomN73ms51nHMN0XPTWjLZqzLzs7G4MGDlS9McDnvcX/qaT+YoGNEH9BvpjHiuYhjcf/+/b2S6NjGiLFhm1hHU78R2/mjJisrS81TWUcTXGKkdWxi5DI3IStXrlS2+vXr55VEJ8gY8fdpyzRGtJGZmYnhw4cb+y7WY1RW1vwcPedBpkSbP0pCFgWXYOn2cH/TAYLYdigiCVmwMZKErBlJyIQ2k3U/DtkxlJA9/gim7zYUA3QOJvwGSch+S8uxjmO+KXpuQls2Y50kZJKQEa1jEyOXuQmRhCz2Y7QhEjJz64IgCIIgCIIgCEK7IgmZIAiCEDypO+HP15+Dfcf0QS/zm9SCIAiCsMkhCZkgCIIQPL23xEF/PhzbD01CD0nIBEEQhD8wkpAJgiAIgiAIgiB0EJKQCYIgCIIgCIIgdBCSkAmCIAiCIAiCIHQQkpAJgiAIgiAIgiB0EHE1NTVhv0PGtfn5zYqBAwd6JdHh9y2I6TcK+H0CfgeAYvNdA35rQH9vwObbAaWlper7VqbfT2K92CabbyHo9rAtpt9CIPS3bo+pH5YuXYp//vOf6hsUDz30kFcaGZcY6e9VBBUjfieue/fuXklkXGPEunH/DR0jfnuiurra6rsvbI8+fjZkjPjdDurQjk2MiouL0bt3b3TrZvbxqPaI0aJFi/Dwww+rMem6667z9hKETZvQORpPPfWU+g7f3Xffrb5DZjOmsg+xL+l+ZALHBH5vyHasY12pxzqawv113WzHOo4npriOdfx2Kb8HZWqLdaO4xMimbjpGrBf9Zhojnovoiz59+AV4M4KKke3cRMNvl3Keanp8BxUjl/Me4bcHqcvvsZpiOzfRMSLUM8UlRrTFGA0aNMjK37EcI35zkXAeZEq0GMXl5eWFTcjYaTmZ7NWrl1cSHR3gcAZbw0BRCPc3DTCdqB1vqkP4kV5+mM10kNAHrY0d1ktjE2D6W/vN1FZOTo5KxNiuu+66yyuNTJAxop6pHQ1P6vxI36YSI3Z2dkTTj5GTjSFGTMZMB/K2xEi3hx//5MR03rx52HHHHdW29kL7z+ZYiHXoP+279oDHMH/L5gTZnvxRY8TJ8MKFC9V5+JprrlGTtLb0IxN0f9XjgqkejxHqmV7wJLZjqj4OiM2xYDumajg55kVc+twE+psSVIx0vUz1NsUYcXLM/mFqqyNiZNMeXmCnrulFaRLLMaId9qOkpCRjHfqbejZ2go4RMb0oTaLFKC5UmeaI+ECDJSUl6gvopvDkQTiZNmmcdgaFiZKpQ9gw6thmtbzaxYPCdHLMAHMAs/mKt24P9zedsBLbL62TxYsX45ZbblF+nzVrllcaGe7L36ct0xjR3/RFEDHilRROOngSNCHIGEX70rofTJZ5Vyc9Pd0riQ7bo+u2IWPEZJE6tjHKy8tTX6g3PanT17SlfWdC6xgtX74c7777Lj777DNvD3+0jqkPCOtGsZmk2NphjPRwa+NrxofY6BAedzxZ6AlbNFg32gq3/zfffKMmCJttttn6iYJuE31g4wfacYkRj3GbSUqsx4gXNtgekxhNnDgRJ5xwgtrfpR/Rhs2xwPOR7VjHiTH1BgwY4JVEx/a8x7rpsY5jvil6bkJbNnHKzs7G4MGDlS9McDnvcX/qaT+YoGNEH9BvpjHiuYh9yeaJDdsYMTZsE+to6jdiO3/U8GId56msowkuMdI6NjGiH2znJmTlypXKFu/MmhJkjPj7tGUaI9rIzMzE8OHDjX0X6zEqKytTfzkPMiXa/FESsii4BEu3h/ubDhDEtkMRSciCjZEkZM10REJmikuMODHmFTw+UmFKW2LEY9UU+o26tGMTo9zcXDXpMr2CFy1GxxxzjDoXzJw5U01QiUuM2BaOdbYxYnzYl9LS0ryS6MR6jPiEA9tjaitajPzQMeJ5xXSS4hojScjcznvcn3raDyboGNEH9JtpjCQhi/3JviRksR+jDZGQmVsXBEEQBEEQBEEQ2hVJyARBEARBEARBEDoIScgEQRAEQRAEQRA6CEnIBEEQBEEQBEEQOghJyARBEARBEARBEDoIScgEQRAEQRAEQRA6CEnIBEEQBEEQBEEQOghJyARBEARBEARBEDoIScgEQRAEQRAEQRA6iLiGhoZ13r9/B79evWLFCvWVelP41Wt+gdrmC976r60exebL2qS4uBiJiYno2bOnVxIZFztah9jo2fqOLFmyBHfeeaf6SvsjjzzilUbGJUa6PS56tjEqKipCUlISevTo4ZVExsWO1iEbOkZ1dXWorKxEWlqaVxKdWI9RYWEh+vTpg+7du3slkXGxo3Vs2kNcYlRbW4uamhoMGDDAK4lOW2Lk4gfbGBUUFKBv377o2rWrVxKZaHaOP/54DBkyBOeee+76c4LWcfGDjQ5hfNiX+vfv75VEJ6gY0Q6xjVF+fr5qT5cuXbySyOj6uRw/Ln6w0SFVVVVq3tCvXz+vJDpBxsi2PSQvLw8DBw5EQkKCVxIZXb+gYmR7zPFc1NTUpMYGU2I9RsuWLVNjUufOnb2SyLj4Tuu4+ME2RhUVFcoXKSkpXkl0YjlGtMMYZWRkID4+3iuNjIvvtI6LH2xjVF5erv5yHmRKNN+F6tBJVcRPtKLftnCiDdno2e5PcbFDsd2fYmuH+7bFjq0u8SsPJ/x9YmPHpV5ax0XPrzySBNEeirbjomsj/H1ty2+7n7jUS+u46PmVRxLX9tja0nZs9Vz2t7Vjuz/FxQ7FVof7at9F2t66TEvL8mhCbPVi2Y7WcdHzKw8n3F+3yW+7n+j9bW256gVhx7Ve2pbf9nAShB29v60tVz1bcbHjUi/ur235bQ8nQdix3V+Lq56tjrZjo2e7P4X7a1t+28OJy/5a/Lb7iUu9KC56tnWjaDvh9OJCGVtziuwD77qUlJSoq6Km8MoL4ZUKGo0GM9M1a9aozJFXoEx0CHVWr16tdNgQU3hln3dfeJfMBNarsbFRXcE0taPbw7aYXrEhvLLIqwcUUz8sXrwYt956q6rj448/7pVGhvvqupnGiL7mX5sYUYd+oB2bGPHKfnJysvFdTNcYUbi/TYzYJ/QxZ+oH3n3h1ZT09HSvJDqxHiNeNU5NTTW+i0kbHBts+quOke4TprjEiHdfeHV/0KBBXkl0GCPaMO2vLWNkekeEuMYoNzdX3X3p1q2bVxIZ+pq2wsXo2GOPVVc4Z86cuf4OmUuM2H6OdbYxYnzYl2zuNNuOqa4x4rFNHdsY5eTkqPaY3sWMFiM/gowR776w/9ncaQ4yRoR2bGKUnZ2tjndTW0HHiPWi30xjxHMRfWFzp9k2Rhyv2B5CP5hiO3/UZGVlqXkq9UxwiRH3tx2Hub/t3ISsXLlS1dHmTnNQMbKdmxAeq5mZmRg+fLjx8e3i7yBjVFZWpv5yHmRKtLlJJxa2p2j8tkUSWx3b/dsiLraC0qFo/La1p7jYcNFxEbHTLLZ6Gr9t7Skav23RxFbPdn9X0fhtiyS2Orb7t0Ui2XLd5ie2+7dFXGy56AQlQdUt1u3Y6mn8trWnuNpw0XPRcRFXO7Z6Gr9t7SmuNjR+28KJ7f6u4mrHVS8Icambxm9bOLHd31Wi2TFPBwVBEARBEARBEIR2RRIyQRAEQRAEQRCEDkISMkEQBEEQBEEQhA5CEjJBEARBEARBEIQOQhIyQRAEQRAEQRCEDkISMkEQBEEQBEEQhA5CEjJBEARBEARBEIQOQhIyQRAEQRAEQRCEDqITv6DdnqLx29aeEoQNLUHZcrXjqheEBFU3seMmGr9t7Skav23tLUHaIX7b2lOCsKElKFtB2aEEaSsICao9m6Id4retPSUIG1qCshWkHeK3rT0lCBtagrIVlJ0gJag2xYqduMbGxua9fFi1ahVWrFiBwYMHeyXRWbNmjfrbqVMn9eXpaLASa9euVX/j4+ONdAh1KDY6pLi4GImJiejZs6dXEhnWi21yqRv3p54pq1evXu83U1tLlizB7bffrmL16KOPeqWRcYmR1rH1A3VN7WiKioqQlJSEHj16eCWRifUY1dXVobKyEmlpaV5JdGI9RoWFhejTpw+6d+/ulUSmLTFi3SimuMSotrYWNTU1GDBggFcSHbZH2zCx0zJGnTt3Vn9NcI1RQUEB+vbti65du3olkdH+DhejadOmISMjAzNmzFh/TnCJkfaDbYwYH/al/v37eyXRsT0WXGOkdWxjlJ+fr9rTpUsXryQy0WLkB+umj58NHaOqqip1LurXr59XEp1Yj1FeXh4GDhyIhIQEryQyQceIdoipLZ6Lmpqa1NhgSqzHaNmyZWpMMrXVETGyaU9FRYWqX0pKilcSnViOEW0xRjx/6OM1Gmy/9ncsxqi8vFz95TzIlGgximtoaIiYkK1cudJqIkknhjPmB52h/9rqacfbUFJSohIym8m+rR2tQ2z0bH1Hli5dijvuuAOhOOKRRx7xSiPjEiPdHhc92xgxaWZCZjPZt7WjdciGjlF9fb2aqNhM9mM9Rkyak5OT0a1bN68kMi52tI5Ne4hLjDjR54TfZrLflhi5+ME2RsuXL1cndNOELJqd448/HkOGDMG55567PiHTOi5+sNEhjA/7ks1kP6gY0Q6xjRGTZrbHNCHT9XM5flz8YKNDqqur1bzBZrIfZIxs20OYNHPsNk3IdP2CipHtMcdzEROy1NRUryQ6sR4jJs2cp5omFi6+0zoufrCNEZNm+sJmsh/LMaIdxig9Pd3YlovvtI6LH2xjxKSZcB5kSjTfxYV2aI6ID5zkM4HhSdgUdnTCjmHiEDqC2SmFJyVTJ3J/ZpscJG0cySv7nOwzKTOBDmxsbFR1M7Wj28P9ba488ETGLN0mU1+8eDFuvfVWpTtr1iyvNDJsD3/fJkb0NX1hEyOtQzs2MeIkhQe56V3MIGPEPqGPOVM/8O4Lr6ZwMDIl1mPEwZUndNMLG7TBscGmvwYZI072OVEZNGiQVxIdxog2TPtryxiZJknENUa5ubkqwTRNmulr2goXo2OOOUadC2bOnLk+IXOJEf3A8co2RowP+5LNBULbMdU1Rjy2qWsbo5ycHNUeU1vRYuSHjpH2gwmuMeJEkv3P5uJTkDEitGMTo+zsbHW8c1w1wTVG1OHxYxsjPd6bxojnIvrC5uKTbYwYG7aJdTT1G7GdP2qysrLU2GQ6BrnEiPtTzyZG9IPt3ITwRght2Vx8CipGtnMTQhuZmZkYPny4se90H6edWIxRWVmZ+mtzYSPa3KQTC9tTNH7b2lOCsKElKFuudlz1gpCg6iZ23ETjt609ReO3rb0lSDvEb1t7ShA2tARlKyg7lCBtBSFBtWdTtEP8trWnBGFDS1C2grRD/La1pwRhQ0tQtoKyE6QE1aZYsWOeDgqCIAiCIAiCIAjtiiRkgiAIgiAIgiAIHYQkZIIgCIIgCIIgCB2EJGSCIAiCIAiCIAgdhCRkgiAIgiAIgiAIHYQkZIIgCIIgCIIgCB2EJGSCIAiCIAiCIAgdhCRkgiAIgiAIgiAIHYQkZIIgCIIgCIIgCB1EXFNT0zrv37+joaEBpaWlyMjI8Eqis3r1avU3Pj5efXk6GuvWrcPatWvVX1MdQp01a9YonU6dzPPK5cuXo1evXkhMTPRKIsN6sU02dlg3CttCPVNCsVA2KKZ+WLJkCW677TY0Njbi0Ucf9Uoj4xIj+prYxIg61NVtMqWwsBC9e/dGz549vZLIxHqM6urqUFFRgUGDBnkl0Yn1GBUUFCAlJQXdu3f3SiLj0l91jGzr5hKjmpoaVFdXIy0tzSuJDmPE3ze10zJGnTt3Vn9NcI1RXl4e+vXrh27dunklkYkWo2nTpqlzwYwZMzB48GBV5hIj3V+1jmmMGB/2pQEDBngl0Yn1GOXm5qr2dO3a1SuJTLQY+eFSN9cYVVVVqXlD//79vZLoxHqMli1bpsbuhIQEryQyQcdIj/emMeK5iGMkxwZTbMdU1xixPUS3yZTs7Gw1Npna6ogYmeqQ8vJyZa9v375eSXRiOUa0xRgNHTpU6Zng4u8gY7Ry5Ur1l/MgU6LFKC40eIZNyFatWoUVK1asP/mawAOd0JjpQaH/muoQ7m+rQ4qLi1UyZjPZd60bsQmwre8IE7I777xTnQQfeeQRrzQyLjHS7bGpm9az0SFFRUVISkpCjx49vJLIuNjROmRDx4iTyMrKSqvJfqzHiElznz59jBMyFzuudXOJUW1trUrKbCb7bYmRzTHn6gcmzTyhm072o9k5/vjjMWTIEJx77rnrzwkuddM6xEaP8WFfspnsBxUjl2OO5Ofnq/Z06dLFK4mMrp+NnbboEBs9JmScN9hM9mM9RrywMXDgQOOETNfPxk5bdYipHs9FnBjaTPZjPUZMmjkmmSYWLX1naicoHcKkmb6wmezHcoxohzFi0myakLn4LigdwqSZcB5kSjTfxYUyyuaI+OByh4wdnbBjmDSOjtBZrakOoQ6FOjYHEyeSnOyb3iGjA9kmDsamdlgv6nF/04OP8ESm22Pqh8WLF6+/Q/bYY495pZFxiZG+KhJEjDiRTE5ONk6aYz1GnOxzgLW5sMH28PdZtw0ZI+pQ1/bqECeSPFmYJs2xHiNO9jmZtLmLyT6n62YbI9PJHXGNkcsdMtqiDbatdWyPO+44dS44//zz1x/LjFF9fb3yt6kdtoW/bxsj3iFjX+Lk2JRYjxEnKWyPadLsMqa69CPXGHGyz3mDzYWNWI9RTk6OGhdMk+a2xMimbjpG9AH9ZhojnouoZ3NhwzZGbAvbRGxiZDs30djeIXOJkcvxQz/YnveIyx0y2/OejhH3NfUbcYkR/ZaVlYVhw4Yp/5kQ6zEqKytTf1NTU9VfE6LFKFTefPssnFDJrzyccH9bHYpXGWNxteMitnWjuNTPtU0av21+4uo3GxsU1/a4iG3dKC71c7FDcbHj4jviVx5OaMNWh2JbN+7v0h4XPZf2uIhrm2zr52rHVof7E56cFi5ciO+++05NDPTvkJa/yRPSnDlz1F16TsJ1uYkQv/JIQtsubbLVodjWz9VOEHWjBGXHRVzt2OqRIGLE/V39batH/MojiWvd/MqjSVC+C8oOsdUjfuWRxKV+bWmTX3k4cbFBCbI9tnrEr7y9JaodtYcgCIIghOBVyaVLl+Kiiy7Ck08+iblz56rki1cSCf89b948PPXUU7j66qtV4mZzhVUQBEEQhN8iCZkgCIKwHj7Ovfvuu6tHBC+44AKcfvrpKjFjIsZH2J977jlV9te//lU9GjJu3DjjR1cFQRAEQfg9kpAJgiAIv4Hv2V544YXqMYqffvoJM2fOxDfffIOXXnpJvbPKO2Tc9qc//QlbbLGFpyUIgiAIgguSkAmCIAi/gXe8Dj74YPUStl5AgS/2c5VD/uXji7vuuiu23npr48V3BEEQBEHwRxIyQRAE4XfwkwZXXnnl+hUAudiHfo+Md8eOOuoojB8/Xv23IAiCIAjuSEImCIIg/A4mYlzqnstjc9UqDf+95557yt0xQRAEQWgnJCETBEEQfOGiHVddddVvEi9+5+XEE0/EqFGjvBJBEARBENqCJGSCIAiCL3w08fjjj1cfL+a/eXdsjz32wMSJE+XumCAIgiC0E5KQCYIgCL4wAeO7ZFxlMTk5Wd0dO+WUUzBixIjfPMYoCIIgCII7kpAJgiAIEZk2bRoGDx6M3XbbDZMmTZK7Y4IgCILQjsTl5eWt8/79O7jccX19PXr16uWVRIc6vHKqH2+JBq+4ajHVIVzti8J3HGyu1NbW1qJLly5ISEjwSiLDerFNnTt3tqob9bQfTOEqZro9prZycnLw0EMPqXbdddddXmlkXGLUcnU107qtWbNG6drGqKamRi0osKnEiDqrVq1SH9w1ZWOIUbdu3ZTPTWDdaCuWY8Tl3G0SjbbEiPUzxTVG/LAz7261V4wuueQSjBkzBoceeihSU1NVmUuMuD99Zxsjxodx2pRiVFVVpdpjaot1o9jYCTJGHOfoC5sPhQcZI2JqRxPrMdL929SWS4xsx1TXGNkeC5rKyko1TzX1XVtiZFO3ljGyaU9DQ4PS5fhtSizHiLbYj/h9S1MdlzE16BgRzoNMiRajuNBEPmxCxo67cuVKpKWleSXRoUFi2jg6g46nIzkBN3UIdehE6ph2QlJaWqoGV9PBiPXiRIBJnKkd3R62RQ+WJtDfDJbNAbh06VKViPHgePjhh73SyLA9um6mMaKv+dcmRtShH2jHJkYlJSVqcDUdjFxjROH+NjGin/UxZ+oHXtTg5Jir1ZkS6zEqLi5G7969jQcj2uDYYNNfdYx0nzDFJUb8vhYvavTr188riQ5jRBum/bVljHismuIao+XLlyMlJWX9svXRoK9pq2WMWFf65d5778WTTz6ptvFu2QknnKDeK3OJEX+TY51tjFgP9qW+fft6JdGxHVNdY8Rjmzq2MSosLFTtMbXlF6NoBBkjXqihnk7YTQgyRoR2bGJUUFCgxm76woSgY0Qf0G+mMeK5iL7g2GCKbYw4XrE9xNRvxHb+qMnPz1fjEfVMcIkR97cdh7m/7dyEMMGkbp8+fbyS6AQVI9u5CeGxyhjxKYsN6e8gY1RRUaH+8lF+U6LNTeJCjgqbkFGZk+MhQ4Z4JdFhwwiNmgSL5vVgpAcWE+h46th0KMITILN007sVDBYPdE5qTO3o9nB/0wGC0N/c37RDkcWLF+OWW25Rfp81a5ZXGhnbDsUY6QM9iBjxBMiD3PRKeJAx4oRQd1xTP3AiWV5ejvT0dK8kOmyPrtuGjBFPgNSxjVFeXp6adJle2KCvactm0AsyRpxI8greoEGDvJLotCVGpkkSod+oSzs2McrNzVUTSdOkuXWMWNeff/5ZjS/Lli3DPvvso8aor776CsOHD8fpp5+uFvfQx45pjNgW/o5tjBgf9iWbC4SxHiM+4cD22CTNrv1IT9ZMcI0RJ5LUGzBggFcSHdvznmuM9NzENkbZ2dlqIklfmMC60d82Yyr3p572gwk6RvQB/WYaI56LeAzZXCC0jRFjwzaxjqZ+I7bzR01WVpaap7KOJrjESOvYxIh+sJ2bEN4IoS2bC4RBxoi/T1umMaKNzMxMdd4w9V2sx6isrEz9tbn4FG1uYm5dEARB2OThCYpPEjzxxBO49NJL1ZXAGTNm4M9//jPOOussnHnmmarstttuUxeBeOVTEARBEAR3JCETBEEQFLz6ybtit99+O5566imMGzdOJWWHHXaYunuYkZGh3iE7//zz1dXON998E/fffz/mzJmjrroLgiAIgmCPJGSCIAiCepTpv//9r3pEcf78+TjkkENwwQUXYNddd1WPjWj4yAXLeKds3333VY903XPPPXjxxRdRVFTk7SUIgiAIgikx8w4Zn5nl85WmuDxfSrgYAd8fi8X3k2yfASZ8dvqBBx5Q/rjjjju80sjYPgPMGPH36QtOxkzr5hojTur4np/NwiuuMWLd+HIz7Zkg75A1I++QbTrvkHE84Djy+uuv46OPPlIvxx944IHYf//9oy6sw+N69uzZeOONN9QiIpMnT8ZBBx2E0aNHqxj4wbZwrLONkbxD1rZ+xPOK6XsVrjGSd8jcznvcn3raDyboGNEH9JtpjOQdsth/P0neIYv9GG2Id8hiJiF755138OGHHyrHmEAnUkwPPg1P6HQI62eCrp+NHdaLetzfJsA8mHSgTG3xXQ4+LsQ67r333l5pZLgvCXdQtIZtYZuIqQ7RfrDRIS7L3rvGiJ1p6tSp2H333b0tkZGErBlJyDaNhIzH5TfffIO33npLrdjKhOq4447DqFGjvD3MWLhwIV566SV8++23yocHHHAAdtllF7USZ2vYFp5bbGMkCVnb+hHHR9NJimuMJCFzm0hyf+ppP5igY0Qf0G+mMZKELPYn+5KQxX6MNkRCFn9NCO/fv4ON4wnQ76QaDjqDmB4UhMHi4y7PPvusWuaTlaXtSEI7+oDy2x5O+Nu057fNT1zsuNZN69jo8cDjex1Dhw713e4ntGNTP90e2zZpPRsdSlAx4mIECxYsUCem7bff3jsaI0NdfWybHt88+XGwNL0LR1g//n64jusHfUC/2fQ9Fx3CyTGTMQ6WJtAGbdmOCxTtB1NcYsSTDAdlm28utiVG7LemUIfY2CGcHPNJAD9b9BEnmq+++ipefvlltez/EUccgZNOOklNPm3h0u1834z2fvjhB5WY8Te5WqrfCcslRowP+9KmFCNeUGN7TG21pR+xbhRTXGNEPdtvLuq6bcgY8VggLjHi2E1fmKDrZhsj6rnEiD6wiRHPRbRl+pQQsY2RPuaIqd+IjpGN7wiTTM5TTX3nEiOtYxMj7s826RiZwok7dWM1Rvx9UzsaxkjP703YGGJETC9KE8ZIt8fPVszcIbv55pvx6aefqm9p2dgTBFc++OADtXDBVlttpVaRM0HukDUjd8g23jtkbCvfEXvttdfU3fWxY8fixBNPxLbbbuvt4Q7H/59++kldXJs3bx4mTJiAww8/HFtvvfX6Y4Vt4bnFNkZyh6xt/YgTAdOJl2uM5A5Z86SL/rYZU7k/9bQfTNAxog/oN9MYyR0ytxhpHZsY0Q8cgxgjm2NO7pDFfoxk2XtBEATBCZ6seFeYjydyEQ7eyTryyCNxxRVXtEsyRniymTRpEi655BIcf/zx+OWXX9TFNtpkEi8IgiAIwu+RhEwQBGETh1fm+Hju448/jn//+9/qaiATsTPOOMPqSrkpvLLLhOzGG29UjzPeeeedePDBB1WCxsRQEARBEIRfib/qqquu4e1EP+FtbT4iwuen/bb7CW8XEn07zm8fP/n888/VIzYHH3yw1TtrguAKH0Xho1tcVY6LGfgdl62Fx3fLW81++7QW3uLn4wR8V8Rvu5/wNjqx6UfU4V992731dj9xsUPh42N8FI6PBvht9xP6zqZuFNaPdaP4bfcTlxjxkQXGiO+++G33E23HxnctY9R6WzjROjZ2KHx8jI8J8h2Yr776SiVEfIyQY+x5552HLbbYQv3ehoJtZN/aaaedVH24pP53332n3nnl6o0UmzYxRuxLfK/Cb7ufxHqMGBu2h4/X+G1vLS52tA6hXuvt4cSlH7EPcd5gGyMSyzHiuGBqi3Yotu3ROhS/ffyEvmO9NH77tBbGiBdFODb4bfeToGLkYofCxzA5TzX1XVtipP3tt09rcdGh8AIa9ThG+m33E8bU9ligDf61jRH/usSIc/tNJUZ8R5p/bWJE3+n2kNbb40KBD/sOGU+AfE7S5r0K/qimpeFw6P1vu+02fPbZZ/IOmRAYfIfsySefVBPTc845xyuNjO3xTdhxmcBwcmqKaz/SmNbNpT2ES5zzBd1oS6prXOy41s1Fjxee+G6VzbsvtnaCbA/hI4I80XDhjhdeeEG9q8REbLfddrN696Y94CSQ76vdcMMNWLRoEc4++2yVGPLunOn7IowPJyo271XEeowKCgpUe0zf4XCx01YdYqpXXV2t5g28K2qKbf1cfe2qx8d8OS7wODWhrf520SGmejwXMWm2effFtn6uvnbV48V8zlN5gdCEtvp7Q+oQXgTg2M1P8phia8u1bq5+YIz4Hr3pu12udjQbUocwwSScB5kSzVZcKGP7dY9W8CRaWlqqrmiawo5OTF/4YwWZNfJjpLKohxAkelGPiRMnqomqCZxs8Njm1RTTzsvJPgdYm9Xr2I/4+6Yv6LIf6UfBTPseoQ51aafl1bVocJLCk4Xpoh48uTQ1NSI+rgk1K2qAlDT0DuUEv6nmqmqUVqxB16Se6Nk9NPkJjQv6ypXpIE5cYuSyqAfv1ui62cbIdHJHXGLExIVPHTzyyCP4+eef1eqJJ5xwglX7NgSs1913343bb79dLY3PCyFjxoxRVxmjtY2TffYlmwsbsRwjsmzZMtWe3ybIjairqEJN7So0n01/JS6+C7ol9kZyD/OFKXh+te1HbAt9Z9uPXBb1iPUYceEV9hvTpJn+pmjfmaBjZFM3HSN9QcM0RjwXUc/mUWXbGLEtbBOxiZHt/FHDp104T6WeCS4xcjl+ms97TcoHpjqEk33Wz+bChu15T8eI+5r6jbjEiH7jwivDhg1T/jMh1mPksqhHtBiFypuXhwwnVPIrDyfc31aHIggdhc3xSvzKo4ltnyCu/civPJzQhq0OxbZu3D8uLpSYFryEy8Zvhas+C5W13m/OvThm38tw10eLUOqVNevZ+86vvL3FpW4U2/qZ2tH7MenhZ0Quuugi9ZF1Jj/nnntuhydjhIkXF/zgN8uYKPKbZ//73//URJ74tUuLqR9aiosOJVpdWourHX+dxXjtytPxp5GbY/TYLdQd/C22GIcxozfDLoeciv/M3/D9lWLrA1dxtWOrR9ovRuGF+7v621aP+JVHEte6+ZVHk6B8F5QdYqtH/MojiUv92tImv/Jw4mKDEmR7bPWIX3l7S1Q7ag9BEARho4VXBSlcLnn69OnqztOBBx6olp/fd999je9kBgFPPPxo9Pvvv6/qyPr+9a9/VVe5ebWS7RCAbU+4Fs/MqVTJamXlAnz0n5mY6m0TBEEQNi0kIRMEQdjI4aMdn3zyifqm3o8//ojnnntOraJo83hf0PAlfD6qzvc4udjHYYcdpt534zuXwlD0TU1DX/NXSARBEISNGEnIBEGIUcrw1cMX4phJg9T7Dv3774Ijzn0G81GLvO+fweW7suz3MvTg+/DtyrrfvX+zKcJEjIt3XH755TjiiCPU3bA33ngDU6dOVSvD8dGNWIV143s5e++9t0rEtt9+e/ztb39TiSSXx/9jox/Z8f7Tj8ZyrPj6Fuzb6vifevMXyFnZ/IFdQRAEYeNAEjJBEGKQUsx+4Grc9mk9xlz4jFq2/d1HT8KEuPdw061fIm78n3DhU1/hq0/fwqt3nIARTeNxznNf4csvv8LHD0zDhN7dYP6a8sYJ3xXjQkinn3463nvvPdx7771qFUMuHsNFImI5GWsJkzKuvsVvlvG9N36w+uKLL8abb76pXoIW/KhGae6buO30RzH8tlA/CPUPyvMzxmLxA8/i4+KVaH4rTxAEQdgYkIRMEIRAWVVTjmfO3BITt9wSW7aUk+7Gd0tKm3da+CFe/bARvcfug0MOmYIRI0Zgwp47Y6dxiej63rN4f2kS+maMwIjhQzFkUAq6x/dA6pDQf4f2Gz4oGd3iO2HjSEfc4HLpN998s1qsg6tdPvTQQzjooIPUHRK+o7WxwVWxuPz7kUceiWuvvVYt0X/dddfh+uuvx9KlS729/iCUlaK0pivQuw+Sw32Ss7EzesZvhcOeexlXHtp83FOmHPQnjGtcioL8etRLLisIgrDRIAmZIAiBktC9F3af8QDuf+ABPNBSLjkEowY3z0BX5i1BYdEXePfRazH9gL2w4447Ype9TsCFt7+I2aWFWJjjJW5/MPRdMa5UyM82nHXWWSpp4btjsf6Iogn8cCg/0s5HME888UR8/fXX6jHGd955Ry2n/odg9Wo0rYnnutL8vz+du6Jb2mbYcrPBSPruetU/KHuc+gC+KStDTdNarGv+5rsgCIKwESAJmSAIgdIpvjPSxjVPIH8jE4YiqUfzt374zbI1/Sdg92POxGVXXYVrrrkmJDfh9vsewwP3/h2nbNdL7fdHgnfFeCeMCRjhyoRcNn6zzTZT3zbZVODHxnm359hjj1XfB+zZsyduvfVW3HPPPVixYoW31yZMeRmKenVGU2oSwh7lnepRUfIB7jrgSBx1+deYeMY1uPLqUB+ZeSDG9eoO8y8/CYIgCLGAJGSCIMQcyX1S0X01kNB7CMZM2Rv77LPPetlzx20wZkA3b89NH3608osvvlCP8L3++uvYeeed1TtWe+21l9VHKTc2+FHUPffcUy3hv/vuu2P27NlqVUauJrkpk/PL98hdV4PEfikIu8hiXSXKf5iNp6tG4bDL/4KLjtwH+7J/bJaMmoROaP5ssiAIgrCxIAmZIAgxR9fRO2GnEatR9PWH+OjbbFSzcMUv+Ozpe3DFrc/ju3K12yZPSUkJnn76adx1112oqqrCtGnTcMopp2DSpEnqI8ubOrw7NnHiRJx88sk49dRTVRmTsvvuu099c23TIwfzv1yCruiHzYYODv0NQyhJbyopRmH9OgzYYWds1nMtOpW8h1v/8TqWVdRhjbebIAiCsHEQf+WVV16jPyraWnhltra2Fr169fLd7if8sKfGb3tr4f6Uzz//HLm5uTj44IPVewSCsKHhh2jnz5+PAQMGYLvttvM9PlsLlxnnezp+28JJY2Ojev+F7/j4bfcTbYf4bW8tuh/x3zb10/3Vtk1MDvhoGRdj8NveWprr14CGyoX46N8foNMRF2Hf4evYuF/3y/0Ms96qxNA9tsWkCZtjWGoX1GZ+h28/fhcffvop3n39A3ybWYvECTtgh3GDkdw5pNNUg6rc7/DKi/kYc/qx2LY3bdnHiKv5UZgA+G33kw0ZI9Zlzpw5ePzxx9Udoc0331wlJXvssYdauOOPBBcp4Tlh+PDhyMjIUB9K5kels7KyVLwGDRrk60NKUP2Idojtcce28KPdbOO6dTn4/OEH8chj7+KHgjLkZ/+ILz54C2+9RXkb737wJeYsWoaV6+LQd/SOGNKrEUWz/403vlqC77jf69+ifNRwxM/5EX12OxqTN0tFUkJz3dgmjV89Wov2g217OM5x3sA2+W33E9e68d829dN2bNtUUVGx/v1Mv+2txaVujBH/Uoe03u4n2g/Nx47/Pn7C91Bpjxd0/Lb7ifYd8dvuJy5+cLFDKS8vV/PUDRmjljo29aOeS4yoZxMjxtTWjva3ix9I623hhDqMEb89aaqn7WzoGFGHYus7fi+TfzkPar0tnDBGkdoTf8UVV4RNyFavXq0ODJuJJMXUERTtQD6OIgmZECQtE7Jtt932d8dmewkTMtvJPvsF8dvmJ3pQ0fjt4ye6/9noUKqrq60SMi1xcV3RvXcGRu+wHYaHkqffbEc8ElKHYeKkkchITkLKgCEY3C8RPbvEI75rEnr1HYJxO+yJA/ffAcN7tNCL74bE/iMwcfIYDOjSotxCGCOKy0TSb5ufmMaId37efvttPPPMM+oO2W677abeFeNdMS5n/0eFbeeS/qNGjVInNSas33zzjTrJDRs2zPeEuqFiFE5sddiPfk3IFuGtm15BVuJYTNhre4wd2EtNMpslFWnD0tEvuR7Lv16Irrufhj0mpGHEwNDJHaHtoYlOr34TcMBph2LywH4YudU2GN6/O7rG/7aPk9Z18BOtYysc5zhvcJns+23zk7bEyHZ/Ci8+MUamE8OW/m69LZy09LepnosdCmPEPmMzkdT+9tvmJ9xf6xC/fcKJ7f4UXthwSZptbAWlQ+G8m39tYmQrOkb8t239bPenHcaIY5mpbpD+ptjq6BjxvNR6m6vENTU1NdfEB17t4kvU/EaMKRyM2Sl4guHfaLASdCIfQ/nss8/w8MMPY8iQId5WQdhwcJW6J598Uj0SxeXDTeDVXyYhPLZNjm/CKykcjLiUtyku/YgnWf7lAg+mddM6uk2mcIEJLrdu+tgc+zht2dRN69AHrJ8pLjHikwCcHA8cONAriU5bYpSQ4L/sAi8Q8MPO3377rUo+uJQ9Fzzp06ePt4dAOEnmUxX8oDTvlO266644/PDD1Z3ElsfKhoiRH679iB/15gUhfosN+BYPHv0giicfgUP+vD8mJjfv8yuF+OGNh3HflZ9g6D3v4/KdzOywbuxLNv2IbaHvbPsR48J5g81d3CBjREztaHihmGO3qS36mmJzLOgYUYf1M0HHSC/oY2qL5yKOkXxH0xTbMdU1RrbHgiYnJ0fNU00XN+qIGNm0h3dlac/mHWHXGBFTvxGXGNEWY8S5Petogj5+YjVG+pF5zoNMiRaj+Ouuu+4aVtxP2DBOJjkZ8NvuJ9ShIXZC7ZRoQvjS+rJly+QOmRAYvEP2448/qpPtlClTfI/N1sKOq49t0+ObOpykJCcn+273Ew4s/MtBwqYfEZu+x8GI2NihMHnhHT9eHfLb3loIxwbbcYFwf9bPbx8/cY0R75Bx7PHb7idtiREn4C3LmRDyghQvECxatEjdDTvppJOwww47KD8Lv4XHHe+KjR07Vp2jPvroIyxYsEBdgWWCw+2MSXvGKJKwH/G8Z9uPODnmYzzNtoow5/nvUZuxBcZvNxqDerTevxYlS+bgmw+XIfXgU7H7MDM7+sTPum3ofsQ+xH7ONvlt9xPa0XXbkDHScxPbGHFyzHGBvvDb3lp4LFBs7LBeWofit4+fuMSId8hoi33Fb7ufsB/x903bpI85/jX1G8Vl/khhjDhPNfWdS4w0NjFiW+g72/ZwvkBiNUb8a+M7Ch9ZZIJp6jsS6zHiX96Zbb0tnETtr179BUEQhA6AFwaeffZZ3H///WpiwUTs/PPPV3duOXgL/tA3o0ePVt9k4x3u0tJStdgHk1reeeLJb+OiL8ZO3RWTtsxASvPXH1rRAykZW2OnQ/fHxD/Wa4SCIAibPJKQCYIgBAyv/PFuwpdffol7770Xzz33nFq04tJLL1WPKdo8BvFHh3fDDj30UPXYOx+Jeeqpp/Dvf/8bX331lbrzuPEwHLuddQoO3m8CMnp4Rb8hGYMnHIhpl5+PA0Z6RYIgCMImwSaRkK1pqELRoq/xwffLUNVYjqWz38IXmTVYs7YEC957B2+/8YZ6L+P38gXmLSlBjfc7giAIGxomY2VlZXjzzTdx8803q/fF+BHkv/3tbxtg4Y6VyPrqU3zgO/59gq/n56PS23Njho97jBs3DjfeeKO6w8hFou6++261QmFRUdFGeLdMEARB+COxSSRkjWXZ+Obpa3Haze8gr2YRXv3LkbjkteVoWD0Hj550HM676Dpcf/NtuO22FnLNxTjzlGtw1wvfo8D7HUEQhA0FEzG+v7F48WI88cQTuPLKK9W7KbfffjtOPPHEDXRXbCH++7fzcck5f8VVN7QY//5+Gc7/vytw7b0fI9vbc1OAz/NPnz4dt956q1oZ75577lGPMP78888b2d0yQRAE4Y/EJpGQ8epoly6/varcvWtXxIX+R/a85Ck8/9bH+PjjFvLIX3H4TiPUdkEQhA0JX4Tm+2G8c8O7Yg888IBKwviXn1xo37tiv2e7k6/H/S+2GP+evAlnHzje27rpQZ/yUVA+ysi7gUxCufAHV8ZiLARBEAQhltgkErKu3XsgbehIdOvSBQmh/3Xr3h3jNs8IJWq/X1YyPGuwqmYFCjMXYuHCkCzJQvaKOm/bWqxdU4XlLP+dZGF5RT0aG6uxIr8ARaVVqG9eSfT3rGlE/cr8X3UXLUZRDa+ce9vRiMrCTCxd7G3PLUVlfVPzptV1qCjOw9L1dptlaXYuynQ1163BmvoVyGm1T3ZJDVatbkRVcQ6y9G+3lKXLUFBWi9UhHzTWlaMoS29bjCVL9SOdrGQNihcvwqLW+iEfFK6sRUNjLVYuL8Ty4grUmTwhxIY3rkTuomVYEVJYo/3QVIWS3HwU8zeVL1ejrqIIeUt/tbesoBz1amdBiG241C1XkH355ZfVY4l8XJF3yC6++GJ1Fyc2WIum+koUZ3t9bNESLC5u8TB3Yznylyxu0ffzUFq+AsvzQmPeiupfx7zQGFBeVIDs/BWobgyNdxUlyMtejkpvGMO6tVjXUIZlC5ehrD40rq4f+9ofrk7517/+Fddee626M8m7Zk8//bRaxpz/LQiCIAixwqaxqEe3nug1ekvsPnE0hiWMxJjt9sLEkbxz5m2PytpQIlKI79+4B389aldMnbon9jjseEz75wcoquSJuzG0/T1cPXYstt9pT+y519TQPiHZfUdss+Xh+Psr87Es9xM8cP4l+Ps97+KnquZf/Q1rV6Ox6CfMfuB8TNk9pLvXnth3r91w8avlqA5lIutCSUfNih/wxKVH4ej99wz9/h7Y6azb8NTnmahpCGU3Fd/j5ZvOwp+22QE77+HZ32M3HHrcn3Hnx1VYxaSxsQyFn9yOE3fm7zfvs/uUrXHI39/BT0XL8Ok95+OMw6i3M7afNAnbbLcjdt0z9N/HXIIbn5uDkoYS/PzhI7jyaPpgKvba4yAcdPA/8GZpdah2rOPnuHn7bbHLlN2xB/VUHXbCdlsdgsse/wJLcr/Ek1dcjqtuehnfV3jtjkQogUTuEzh925Pw7znlv07aSt7FLaecj3/Mmo2lNWvQUJ2DTx6/FjMO303Z3HO3Y/HnC2fh84q6UL0EITbhnRh+PJLfFmNScP3112OnnXbC888/j8mTJ6tlb2ODUDK2agUWffEkrj1ml1Af2wt7/ukgTL3uDeSXN6hHLZH/LM7bbRfssnOo76ux5W94/LWHce3ZF+GG+z/AAjXmrUFj1gd47G9n4qhz78XHocTnx1fvwNmHX43XlitDIVOr0Jj5GE7YYhr+80stasNdvGpHOGbccccd6ltlXOzjqquuUh+U5iOMcrdMEARBiAU2kYRsIEZsdxIevHQKuvRKxtQbnsefR8Shi2nr1pRh/qsP4J9Pfot1M95Hfv5SfP/UTOz+zSXY9cbPofME3m879uElWJiVH9onJN/cjRMmZCCpeXNk6vPxyxdv4MHXB+Leb0O6mT9j/l0H45mTL8OHTU1oalqCWacfjdu7n4X7318Q+v05eGrST5j14EN49Iu80FSHpGHKMdfh2R+a7efNfQd3HTQEL1xzL75eV4fK4vdw6+lPY7tn85GT17zPN3cdhMYXX8UnufHY4br/4v2fQ+Vzn8QVhxyOk865B6/9FPrv75/HvdPHY+X7T+Cf97yG5af9T+lm//w2Hjp1Ac477mEsohO8q9mH/fNbzFnc/Pv53z2Is3YajQ22JtyaInz24PW469NGTLjhc2Vz0SfX4fBhs3H9315DrmRkQgzC75rw8Th+uPjss8/GkiVL8Nhjj+HOO++Mve8srq1C9hfP4+5/PI4Fx4aSsPzsUHL2MGYsPAcjLn4PdeqCEZmAc578EnMz2fcfx8V7j8MAVd7M2tWlmPvtZ/jik3kxd2LJyMjA3//+d5WYFRcXq6XyubIlY8RYCYIgCEJHsmkkZG0l5zvM/nQFyvsfjQtP2TJU0AODMrbGUQfuitpXPsKnxo/VhCYua9eqE/x6Cf23Uu85DBOPvgrPz74Hxw3W29ciTj9W+cnDuPXrfXDpjAMwanhyqCAN+x12IEaVV2PhwmXIad4L69bx8clm/erqShQULGv+jaYuSFy7E2bm5+D2Pdcgjo8vhvYZvPPe2DqxFOWF9aiL8IzfuvwfMffjULLZ9ShcMX0rpRvfuw9GH3EUDvnmetz7wbpfHymMSLMPdB11OyOrUmfNb3TUVXluWfAB3vw8Af0nHopjDxihtvXYfCy23WYERn35KF741jg4grDB4XHLuy5MwK677jpcdtll2HrrrfHCCy9g99139/aKMYoW4ZePf8Q3a4/DjRduHyrogl5J43Da9COw7om38H6o/+qLUuFZh5XfvoGlK1YgbqtD0HJV9pBHLMeDDQfvlvF7b7vssotK0PiZgZycHLlTJgiCIHQokpBpBiYjafjAX6/4duuBHukDMLZpKbKWeWVRycJ/bz4Bu6UnqtW+EhO3x6HnPIP53lbFqhLkfXgNdklNx7DpL+GUF/6JfbvwzbcQE4cjvXsXdFM7hhg4GCN6VQMrVqJcPQJYgM+euAQHDW/+/f4TjsbNP4zC5U9dhJ0SEtB5yBAMW12P1f87DynJSc11GH8OXsgsjrq0f1XlSpQUf4pv3rgAu6u6UwZiyLgz8URoArVgaRZnm97ekcjFe/edjX2G6t/YClOP/w++97b68z1u3HsY0vt4OqNOxD8/XYiy0JbSkgJUVvwPz/z9iFBiqX9zNHY+4Ta8XFuP7LzC5p8QhBiA7ya98sorOPnkk/HFF1+o95a4/PrAgQO9PWKUUN/rPiYd6d5/onNnxA8bgW2xAJlZTDK98rAswlcr0tA1cQ8c/Zu1QiqR+8Nj+L+xXt9N6ouU7f6GL0NjSkfdlxo2bJh6bJGx4YqXRx55pHqMVBAEQRA6ik58xyGcNDQ0qO+3+G0LJ/oqKHX9trcW7seX3vUdkQ4jLi7kjbhfM9TQf8Z16hT673VmeYhiGPaf+QBe/zFXvTj+4xtnY5vyl3DZ/z2Bed4e6NoXg3f9C95Y8hPm3nkAnj71cDy8qBENnPDEh+yxHprQv3nz69eSNOxw9LV4em7z7y/87BHMHJ+JO6ffi6/j6lC5/AXMSAsldScuwAX/W4LF2aH9vrgFhwzrh57eL0QkZQJ2OftRfBv6bf5+bm4e8vIKkJezBK+cNixUvRZ1C0s6dj/9Vrz4Q/Nv/Pz+VTio2+u48KgH8a23x++ZiAtemosfMz2739yP6VM2Rx9uCvl+Xfq++PPtr2N+i3rlFxRi0ez/4paD2zbR5XHH48/v2PQTwg/6mh7fFE7SbfsRr9hTx6YfcX/q2dRN67COftvDCfVsdOgz+tpWh2OJTXworjGytdM6Rlzs4oorrlALd/Cu2COPPKI+8tylSxe1EmxM4413LXs477zHG45/S17/GOXlJei302gOYy1IQvr443DXl17fzVmMzPcvx7ahnTrqDTrGgsnhgQceqO6W7bnnnipmf/7zn9XiK7pPtI53JKEOj1WXfmRznLalH/Gv33Y/YZ2ISz+ysUPRY7CpHe7nEiM9N9nQMWJbbMdU+ow6LjGiHZv60caGjhHrpPuE3/ZwomNk0x4KbfmVhxOXGGkdG9/x93WM/LaHE9qgPb9t4STIGNn2CYptXDeGGNn2I0KdcH7oxMlCOElISFAnL79t4YT7U6jrt721aBsdTkkOlv88Hz+WeP8dclhdQQmWJAzHkPWXjaMRj649ktCnbz/069cPw7ccjy3GDECPoizkF3u7xMUjvksiUgYPRtp+++CQqg+xMCs0sePl4p8+wteZ1ahqHmeB4uVYVpOIdSnJ6K1eVAvFolsieqc2//6QUZtjy8nj0G/FL8hZXIOab77GS2PPxbPfP43zJ6dh8IDQfnVlyFq7GnohxnAk9kpG34ROqMxagtw1zb//q/RFnx7xKmeNTjy6dO+FZK+Ow8aNxhYTh6J30WIs0y/2/44E9Ejui1RtL7U3unfprJLj1L4DkVS7EssLVqCis65Ps/RN6YOkbm2f1nFxBb9j00/0/qbHN6Vz51BbLPtRHJNxy35EHYpN3dgW6rCOftvDCetmo8N9iY2OrptNfCgkyBjx5PT222/jggsuwNdff40LL7xQLeDBDxV367b+fndsU1GMlT9+he/0DedQm1Yvy8VcjMKwoWynV+5H2RdYsDYdScOmYnL/1v0xFL/O3dHLGw+a+20imqPUcTB2jM2YMWPUY4uM108//aTubP73v/9V2/1iHk54HLj2I9vj1NaOSz9inYhLP7Ltr6ybjR+4H3UoftvDCW1QNnSMtL9dYmSjo2NEnSBiZHMs0EZbYmTTHgp1/MrDiYu/aaMtMfLbHk5cYkRcYmTrO9cY0ZaNTlAx4r7ERofC+rV3jEL1b3ZuONEBMxXub6tDoU6HkT4Bk7YZggFVX+DFD34JFdSjuPBHvPHubMTvtwt2bu5T1tQWFyI3pwjl3fshdd1ifPufa/GnY/6N77ixqRGr583BuxiNgWmhwW7KsThj3GK8+PpnyCvhkmUl+Ph/72BRr54YOSoDQ30mRJ0aV2FVRQOWJ6Shf9+1WFdTiaql85EdPwhJCaEYFDyH8y9+GtmFlVHf2YgfPBYTdpiAsRXv4aGH3kMRC2tLUPjq37DdjmfiqVw4LVFdt6IEeUvzUNp1YCjR8gotiB+7K6Zuk4j6797Ay2/NwUoWFs/Du/+8GAed/A+8rSrqjumxyv3mzp2L7777Tl2F8dsnktj2Ce5vq0OJVTuUoHSIX3l7C+u2fPly3HXXXWqxCD4Kx4n90Ucfjb59+64/GXcMBfj++1xULclBfkMaevRNQs9wt8n7jcBmk7fCdp1m4+H/8l5+I2prluC5Wf9F0xH7YPcuoRNp854+LMM7HxWgKaEfJm2bhu6xsnCkIYxR//791d0yfqCbSfRNN92Ea665Rq3C6Bd3P+GxEMTxzf2J37ZI4lI3Fzsu4mrHxXcufgjKdy71c7XjVx5JiIuerbj4gOLaJr/ySGJrh/u72nGxZatDsdUhQdgJqj0U4lfe3hLVjm50e4nGb1sk6VC6DsDWB5+C6YeOQd2Dx2DKlN2w/7kP4IPNL8ALF++A+IpFePa8K/EqDsH22zG79fR+Rz4++s/lOG2fKaHfmIK9pt2C9+rG4NgLj8CElMEYOmk77N3rGZwc2jZl16nY7y+vYdfbZuGkUV3QtfcWOP2uf2JaxX9w2XF7hfT3x/SvM3DQ8cdj2g4Z3hXlEsx54w6cd0Dz70/Z/3hc9b8cTL3gz9iudyqSp5yGK7Z9F9cdMgU7cftBs9D5/07HvgPK0VBSx5t+4enSF2P3OhZnnrk3kt86BwdQf49DcdzNi7DXpedi9z45eOGsi/FK3e6YMKk7enT39H7Hcnz53A04c7/mOu555JV4dtkQTLvqeGztclm8awZ2O+18nL5HDyy550Tsw3odcB7++elaTD31aGyrnmtsO37HJIV3P3jXY/r06Tj33HPVd6P0laUNKZHqFEls9TR+29pTNH7boomtnu3+rvL+++9j5syZeO+993DYYYepO2Q77LBDjKyimIpeS+/DmefehNkjp2K3HcdjZKK3qTUJfTBy5yNw9jkHIe35E0L9dhfscfiFuKf/X/Hp9XujT+fQSc7b9fc0YviWW2HShPEY2KP5SuPGBmPJRxi32247FcMzzjhDfUT6qKOOwqeffqoegWkd+44UXecNLbFux1ZP47etPcXVhouei46LuNqx1dP4bWtPcbWh8dsWTmz3dxVXO656QYhL3TR+28KJ7f6uEtXOOj54GgY+51hSUoIhQ4Z4JdHh85GEVx5pIBo0z2dLb775ZnXye/jhh63sRaYMiz+Zj9Ujt8fwgT3QveV8oboACzMrsbp3PwwfznesmlBTmo+cRUuxnI96dumJXhljscOI3ljdWIW8ud9hadUgbLnnGPTju178jfpCLPihGJ0zRmBwn0YUL8lSd7eaPUC6IGnAEIwYPRz9ugJrGqpQtuwn/JBbq7bGdeqMQRP3wJjUUNasXFWPwh/nILM0lDzxEcaU4Rg/Mh2DkruFHFuOgqxsZOWVoWVe1SWxDzLGbosRyaHfb2pA6aLP8OP6RwN7Yfg2Q9G0YCnWZWyJoWm90ZNJ0aoVyF60HPXd+2LQsDQkr08wV6OufDlyflmIAlXFTujcNRWbbTsR6d1qkfv9V1haMRBjdxmN/t0SoNzZUITFPxVjbb90DO4HlGdnIaewAr9+djUBiaFkdMT4zTGg9dNb69aGmpyH778qQZ+tJyKjdxck0LHqN4uwrl8GBg0OTSw7N6IiPxPZWflYoX449Jupod8c5/ObFnzwwQd46qmnsNVWW2HGjBleaTN8nvfbb7/Fs88+i6+++gpZWVnqfSBePecCDfp2ugm80l5eXo70dONnX9XzzLxiopO/aLAfMXnk5JG3vk3rpp+5Zn+lPVPy8vKQmppq/GFj9nHa8m7Le6WRoQ5F+8EUxk7bMfVDTU0NqqqqMGjQIK8kPCtWrFAfduajbZttthkOPvhg9V0xPo7H4yJWqC/8EfMyS7EudQzGDuuPPi0TprpSLMsuRVlcMjYfNyg0UqxGfWUJlv38M/LY9+ND/XvQBOzBwUntn4d53xaj1/jxSO/THV3ZzFUlWLogC7Xd05E+NB2pvEjTVIni3EIUV3fBwFFp6FqRj6zc1RgwcRwGcfu6NVhbm4fvvixBv+0nISOxM0L5XszA44199YcffsCsWbPU39NOOw3HHXecOt7DHbs8ttkHeZza9COu8JiWFvJT19AJwoC29CP9iI0JbAvP/7b9qLKyUukNGNDygwiR4f70m+mY2nKsM/Ub0XMT2xhlZ2dj8ODByhcmsG70t82Yyv2pp/1ggo4RfUC/mcaIxzePId4ZNsU2RowN28Q6mvqN2M4fNTw/c97IOprgEiOtYxMj+oHncsbI5pjTn+PgOcWUIGPE36ct0xjRRmZmZmiuPdzYd7Eeo7IyLjsHdV4wJdrcZBNPyAQhPH4JWXV1tUrE+P0ofjyWy5dzcGRn5Z0Q7sskJFyH8kMSsrZNJLUfTNmQCdmXX36pvifGkws/NMxH3fgekqkfhI0D9qVffvlFrZj57rvvYuTIkWqM2GKLLXyTAEnImpGEzG0iyf2pp/1ggo4RfUC/mcZIErLYn+xLQhb7MdoQCZm5dUHYhKmoqFAJ19VXX62WxH766afVo4o8ebGj8u7YxIkTjQd8YdOCSfW///1v9W4RE7dTTjkFp556KrbccktJxjZB2M/Hjx+vHl/kh72ZaHBs4J1RfSIWBEEQhPZC7pAJf1h4h4x3O3gM8s4IH01csGDB7yZcTMgOPfRQ9Y4Jr6boK1CmV4d49YVXRpKT+cFvM3ilh78f7kpKa3Q/IqZXyIi+QmajQ5io9uzZ0/jKmr4aZ3NVjToU+sDmyhWv/rZXjOgblhcUFKhjg3dIDznkEGy77bb/z955AFZRdG34JfSeUAMkoffeFFEEBBFFRBQUAUWxINjA3hU79oJdAUVAEVERaZ+AilQp0qWGkIQkpAfSE+637+QuRrjJnVnCJeB5/n++yO7MPTNzdsqZqvYdCec+/DY4OMMlqlu2bFEzopzV4imN9nfptByxruGeQ92BHrtMOCnjJuWI/lkHmZYjlhWWvypV1LHAWpxKXWcyQGaH0ZVjU9x1ZMdLV1ZaWpqSV7lyZfcT79h1as+ePdXBN+XLF7iJXMH022mSGTKZIaMMmSGTJYuCUCC2Qcbld5whY2eL3ywLaH74LV9zzTWqEeK7ggpTQbCSYLkwmUlhmaAM3QqC5cguygynGz87rSYVEeGMESsw3QaQcaMs3UqS2GkySQ9h3pnqiB0OuhN1RPnswGzcuFHp8PHHH8f1119vZFwLZz9sSLm8madoUvdNmzZVBrn9jTktR1wqy3pFt1z4qhzZckzLEcsIy5+3Dnt+TMurnR5ikt+noiPWC7rhKIfx85WOTOQQ6ojhTK7koI54wvB9992nLlKvVq2a+41n+PsMwziKQSYGGWWIQSYGmSAUCA2yr776SnWsmjdvjj/++EONhHNfR37YcPF+omuvvfZ4YS+oQHmC5Yh700wqVxoH/H3dytUuR/xrUlGyAmMYyjGpjFgvcNSYlZgOrPSYJpPK1W4w6F+3ciWsXE11xIqSRiaPq88P84Z5xG+CS1qZhv79+6slrPbhLsK5TUxMjNpTyr1k/N579OihOhb5v32n5Sg6Olo16CwXOrA85K+DdKB/liWTcsS0sC03LUc0XhjOW4c9P/Rvx820rtPNN+JUR7zagnU380KHU9GRSdxsHdl9LV0dsS1iXgQE6B9RTDk0xriE96abbjqpnjwRu+5mHMUgE4OMMsQgE4NMEAok/6EePNZ+79696hkNsw0bNqhKnt8wv2XuFfrpp5/UUhy74OpWRnKoR16Hg7LsykgHhqGz80EXb5WeJ3QO9Vi1ahW+/fZbddhDp06dMGDAALWvUJYunpvw2+PBPjzYg7MDHTt2VLOjbdu2PWkGiN82yyC/U5NyJId6mHck89d1uvlG7L6JqY7kUI88HXEggqeNikEmBhl/n7J0dUQZYpB575voSxfOAKkI37gGW3eEIjbTauzCNmLb5tXYo25H9g3HstJw+K+f8PlPW5F4LAnbFkzD/E1ROKLO5T93YGHkJv4777wTzz//vLpzjHuFWIGwAmKHjMaa3WAI/z26d++Ohx56SJ2syOWtH330EebPn49Dhw6pRkA4U1gGR84BrPj0U3xuuU+VW4ptcUf/dUWILmyg2djOmzdPXRb9119/KeObuufeQZPleIIgCIKggxhkxZosJPz9B/43ZyamfzkLU2bOxE9/bER03jVmPoF3p4UtfgNjX1+O6GOH8ds79+GthXsRn3ZudkA5esHlizTI3nzzTdx111244oorlGH24Ycfqjuo2GET/ptwBo3fxgMPPKBGuDjDyvuqtm3bpka/BF9zDDlZsdixeDImvjoDS/73C5YtW4av356Ej774H7YeTjEyyjhSysNbqNN3331XjbTydEUeec8lqiYjqIIgCIKgS4mjR48WuGSRjROnt9kQ6cKpcKI7ncmpTHZwORLJJUGff/65LFnMT+JGzP38a/z4204kNL4Yg4YMw20XBbtfnn5yjsRg17Rb0XFOP2xe2h/LBnTFksuX4r1R7RESoL9+vzjCGS8eY827hcaOHet++m8488E9BFyqtnjxYjz22GPqEmDuK9OdrmdHnev2TZaImC4LYDliXFmWTJZ7cIqfYSjHpLPJfTXcQ6a7MZwyWDeYLD9gGKaJ/nWXHxAu3bDl6OYDD+7g0lKTJSK8o44Xh69cuVLNrvKCaJ7EafIbwimSm4aUvfMx/tonsP3OGVh2R2dULFMSW78agnseS0LPyW/htv5tEexlZRu/NS634xLFuXPnYtOmTWqJFgdkqE9v36zTJYusW7jkRXfJEMsDy6xJObLrBZNyxLSw/TctR072kFEO40VnWteZLLWy+yaUY6IjzoDzG2Be6OBUR3R2Puhg64h5wHzT1ZGTPWSUc+mll6oDPYYPH+51yaKtI/7VzTdi2n+04Sm4Jnt6T0VHJmWc3yjLg71MTRcun2dYk8OjnJYjUx2Z9k0IZVBHHNDUzQcnfRNf6ojtBWE/SBdvfZMSERERBRpkzBB2VEyPsCUmHwXd5MmT1b6dKVOmnP0GWVYSosKikZhTEYGNglGNnYFcq1Meewj7D2ahVtuWqFM2B7lHI7BpQyiO5IVSVAxui1bBAajkise+v2OQG1AXdepWR2WWl7Q4hB+MwuGcKmjQtD6ql81CamIU9v+1H3F5wfMoUQWNu3REvYpWA6xUkI6YnVsRGpuKdDWx5Y96zRoiuJ4/ymcnI/pgNOIzyiGwCX/Tep2bgdT4Q9izPx21mtdBudUvotnkFlg/zzLIhnbHzltW48E+Qahdkb919kKDjCPhTZo0wejRo91PPcNvlLNj3PPBzjeXLelWRmxkWBBNjhl2Uo5YsZCCCrsn7AqZYUwqIzbqNMZ0K3LGjbKYHl05DMO4MS0mcWN+2+nRzQdWyHQm+8GoI4ahQcZ9RpTLpW2XX3652i9YeGeR1W46IjdvwP7EHOTwnzUao32jQFSrWAZHonYgNKUkqtYIQf3qeUvkco7G4lBsPJL8AtCw7NF/1SU5RyOxeUMcanZ1l/uMQ9i++TDKN2yCujUqoVzJTMSH7sKByHikqD5PJdQIro+GTWpZ/6V+HRkpsQjf+Tci0qx/liyNUnVaoUdTdtqseP61HvuTrE7Mia1F+dpoEGx91ylxOBSdhPwLestVqYGgpm0RWDoZMQd3ILxUC1zQ+J9OYFrEX9iUVgcd6tdAxbLZOLxrG0IPH0Ga+vSrok6TBggJroSc6IMICw1H3IlTXX5lULZiNTRIXoCbXyuFiQvuRVc/q6OgXv6GFzrdivBhU3D3zRejbSFjIdQhOwusD2hg87vjIT59+/Z1+/CO03LEjhevj2C50MFX5Yj++X3b6dEtR+wUMhzTpAv923HTkcO4MU1EN9+IUx2x48V6objqiHIYTldHbIsoz+TUX9ZtvPqFg05Dhw71anA71RHTQ+w06cJTktlPNclvpzqif9245deRrhxCHTGsyfJo03bPlzqiLJYjEx05Ka++1JG9IqZIdWRFpkAsga6wsDD3v/SwKmTlrIxxPykc+rMi6Xr++eddl156qbG8YknsCtfU8be7bhr1lmtJjPvZ0X2uDV895rqizS2uaQdyXNlpYa7tM+5x9W7axdWls+W6dHG1re/vajv6C9eK0GRXVsR3rkcuHeK679UFrr+S+ANZriMbv3I9e92lrm7Xv+xaEMVn0a6dSye5ritf3dWgHX+no6tjqxBX5VIXuV7bnulKy6GfdFfs3sWuV2+5xNXn/A5KTvumA11jXp3rWhN31JUdv9o145E7XSOGTXItVL9pkRrm2vbtk67Lmgx3fbbnqOvInq9dt7+yypWdk+ta88Zdrm92xruSstx+z2J++eUX1y233OJ655133E+8k5aW5rIKr/b3TTgLHR4e7v6XHlaF7LI6ikbliP4ZziRudhir8nM/0ePgwYOu1NRU97+8wzxjfWIih2FYl7B+MMGJjiwD02V1yt3/0iO/jnbv3u16/PHHXd26dXONGzfOtWbNGldiYqLb54kcs8KkuaJ2fu964qoOrou6drLKZXNX0OWPuGatOOA6muly7f56nGvwqLGuZ77b7kpTYbJdh/+c5Xrt8VtcIybPd62fbtUlbVmXWK+yUlwpGya5upe8yPX6toy8ch/6uWtE08tcT3671RWWmulKOPiH69NHhroGXtBW1QEdWlzmumH8J67Fh5JcmS5LNykHXGu+n+S69eIW1vuOrg7nd3Q1HvGhKzSRcT3omnN3L1fvC6w6pl0DV/XyVVyBDVu62nS0/j34Kden33zkemF0P1erWvVdzTvk1WVd2rVwXdRviOvx76JckQfWub68r50r+PYfXKoqs9LPemnjixe4Wjw837U7JtEVu/8X15tjLnP169Y+r45qdqXrthe+cf1xOMK1+ed3XA9fZf1mx9auZiG1XVUr1XI1Yn13UX/XgId+dEWo38xPuuvw3qmue1q2dd39/irXzgT34xPgt2h1EpSuHnroIVeHDh1cEyZMcO3atUvp1gR+B/xWTctRaGiokaxTKUf8qwu/aSflyOoYu6Kjo93/0oPpYRnXlUN/dr1lgt03MdXR/v37VThdmBbTOpX5zDBOdEQ5JjpKSEhwxcTYHRM9qCOWyzfeeMMVGxvrflowjJNdJkywdWSSHrJv3z6jdsKJjuwwJjri79s6MiE+Pt51+PBh97/0MC1Hp6Iju93ThX737NljlHfFXUdxcXHKmeCtTtU3B4Wiw5WB1Lh1mP7aalz82Z9YtfZP/Pnnn1jwykCUWLwIqw8eRuIJI9E5aeHYuH4NNv11AP8ed6+COs2G4sUF1m+s/g2/fnkX2lpPj9veqTsx/YGHMLPSMDw7c5mS88vnPZG7ZRHmzN2AaG9nVJSqiEpNrscnj1yAUiX9cP79k3Fdi2qoqj/DLQjnPLyX6qmnnoLVoYdlnKn/5qwZT6m1Knq3LzeuY0DmDkwZdQu+ajwRXy36wyqXM/BM1a3YuS0CYSnW77W/EA2TMnBw+27szbTC5CYgfP9eJEX5oXeXlnm/o0v6Psx/9UV8ebgNhr6zSNUBy2eNQsvcVfjiw2U4mJaMsDU/4rP3fkDk9TOt9yuwfO7TGLFzGr7cWgK5rmBc+95yLFtl1THzJmJQ0x64eeKX+GGF9e+5z+G2Xk1QGXXQfdhT+PR/eXXZmp8+w70dK2Hhh18jLKAmOnW4GGUWL8Hyo1Z8XFbllrUTSxYcxIALO6CKXxi+fvQxzCg5EA9NW6rCL516Gcru/QWzv9kF/z73YtKP1u/+OhsfPTQSvTvcgJd+tv69YqGVrqtQLy+Vx0mNWY1p9z6PX3K6o3WXOqjlYWWW1SiqZbc///yzuluMy+Xvv/9+tXSe+0UFQRAEwZeIQXbayEFmahJiI8PVEeHhEVGIiT+St6Qnpwwq4nzcuXEtnukSj5hDeX5c9duiUdk4JMWkI/1fy3OyELNuCcLSjqFS2z44voPsmAsu67dKlglB0Im9EjfZq2bg041tcVXfVqhc+qiSk96gDdq69iBm1WqsD2VnMQdZaUk47I5HeMQhRNtxFQRBCy7hvO666/DWW2+pg2Hee+89vPbaa2qZa3r+Az+O5cC1byl+3tIBdw3vAf/KXPLQGbfN+hkT77wQrbg9o0UHdG+cjFJhO/H33mzkJh7A/t2ZiDp2Mbq2Ub+iTc5f8zHnz2po1b4DmgbmqjJ+pHo9NKqaAb91C7B0bSSidoUhKuN8jL66oxWiIvzrXo2JG9bg6R5AKa1WIgfpRxIQ467vdu89gNBDcahcrRLKVAlAta4dcWXpJVi4PN2yx44he9ciLNg7FBd2rohyW77G1A3NcGnPNqheIU2FTwtujtYlDyJx9e9Ys8/gAKH0BCyYOBwfbmuIoe8+hEHtGuDExVUZGRnKaOYpmTy4h8fO82TGG2+80e1DEARBEHyLGGSnjcNY/+Mk3N6zrbq3pu15/XHdo19jD1+VLgW/erVQIy4GCT89jLYd2qNNG8vPZU/j5wOxOPEQxdysHVgdFwz/6t0xoJn7IUk7iqPRkdhfskSBiow8uA/ZuT/j9RGX42LGQ7nr8fT8jdiUkY4jKSmWr1j8tfBNjO3lft+1H66+fzp25f2EIAgG8JCYiRMnqpP5fvnlF4wcOVKd/EdDwMXZIc6QHdiHTa5mCAopCc/b8Fqh58ALUbJGKjbv2oOE0D34OyseWT07oJ3bhy4xUZaBk/4Lvnh8BC47XgdchbveW4g1x3KRGH4AyYePIqJcCOoVfA2bFw5h5YxncHOPvN/vNuhxzI5pgTEvjER7VEX1wF64ZmwL/LD4V2Qdy8LeRfOwfWhvdK1QDknhocjKWYB3bh2IXsfjNxSPzVmDDVmZSElOcsvwTvbyx3Hf3Gz0mPghbuveGHXynTlz7NgxpQPqhJfc8vAO3qlEA7plS8NZR0EQBEEoQsQgO23UxYXDX8YPe5PUhtOkQ5vx26e3o7V6l4rkyG8wrlZ9BN64F0/8FoWoBMvP5skY2qS2e5O9G6sDt3POL0jNSkKNbo3dD/NwpR5F8pF47G/d4J9ZM0+0uRfTVu9CVKI7Lm63ddazuLEr1/PUwXnXPofvdrvfRW3Dmi/GqaWPgiCYw03vN998M2bPnq06+7feeiteffVVdWqtMsrUoR480Mj9nx6o0aoD2ibkImvjGizaux3Z8Tno2cnUHHPTdASen7MOYSfUAXuWTMGjfXniRb74OCIEfe98Dwv35/1u+LqPMTpoK14b9yHWWb9ZplIVNO18Mdp+vRBLsvdh4Y/rcV2fi1GxvNtiajUOH/+6HZEnxG/7ty/jtgv0L95cvngmMge9jScur4vgfGdR0RiLjY1VM5YPPvigOpGNVxbcc889RgdQCIIgCMLpQAyyM4FlSKWtWYcfL3kNf6Uswb0ty6A8NXFwP7ZmZYHbLI5z+BdsK9cOtZtchvNO2AsRGx2OPfvWoVPvCwo0yEIaNkOZXSuwelcC4uWaJEHwKY0bN8akSZPUZePTpk1Td9pt27HTetEcXUv8jfCwXGTnHVp1MjVao027BJSO/hbzvi2JuKzu6ORglKROvQaoGLkdm3cexEFOiJ+IZSwF1KmC+ukHEB7pfnaKVK4bgpYdWyMkPSzvN8tURoWmndGv9ReY/+FSzF1zEy7pUQblygLB9Zui7N41WLcrDrE84fE08Mcff+C2225T11eMGTNG7RXjTKYgCIIgFAfEIDtTZKYhc+MS/HaoLPxKlECJsGm4+c6pCD2Y6PZA9mDOgsMoW7kmOnWs5j7C3iYaMeGh2PdnO/S+IKhARfpddDPuOS8SP70/HX/sishbDrltBh4YdgNGPvcd1ucXJwhCkcLjbXnPFO/u4ZHqvIelb7/L8dr34bii/Z94Y9pSJCTTConA9/f3Rrc73sT8LYfdgWuieZtWSIvaiR/370TWBe3RzkGN7df5agy/IBe7f5yNn3/fDrUAcP9ivD9+FC6//V38kl4XdVo0RJ0Kq/DR7HXWyywcObwKbw6ojzoPLUVWTt7RyCaUSD3iXgYZjHp1+KAMyldqhgt7NcK0Zydi7Q1X4OJypVHOqtP8uo/E2PMPY+mnX+HXrWF5A1I7ZuPJm0bg+idmYk08H+jR68VQ7H5jCBrXzDvSm/divfLKK7jjjjvUMd+8XuXOO+9U9yhRN4IgCIJQHJAW6UxQvgb8e0/Am5cuw5MXN0Djhg3Q4KIvUHvi4xhSPxnph1KRdwbAMXTq1QPd2rdG9dL5VJW6CyumvoSxo5/FJ+tm4v6LG6NBA+s3mrRGm4EvY0POerxw6VB8tu0Ijvo1wcj3v8SE4OV48/puaEl//d5EROPLcctNl6Gt/hVzgiA4gB1/GgMdOnRQMzOPPPIo3v/wW/yYWRfXbrwbA85vYZXfbrjjQG/cN+pq9G5uH0PhhxrN26J5gyboEVQH57Vv5b5jixzBob9n44EL88p96yutcp/7J17o1wzNG7E+eQg/hP6Gd8e9ge83Z6Hbk29g/AXxWPrIpWjHOqDHw/g5pTVuvX8UulevjAYXXIu7HhmFlrOvsuLSFK173I5367+M1Y9cgNL/HgkqgEj8OvURDO1o/TZ//7yr8dwfcRj80G3ooq64KYHS5Suh2SWXo01GOoYMvBQVS5fKOw22TCNc/9bnmNBkHT4Z1R2tGL7vK/i7dm+MvnUgOujfjYq1b/TE+JnbEHMkB1u2bFEHdXzzzTe45ZZb1Czl+eefr+6NEWNMEARBKE6U4Nn37v8+CW6A5rHNJhc1Z2Xlnc3HC2N1L6fjsdAcxfz999/x2Wefnf0XQ+ekIjE2EUdzy8G/do28S51zs5CekoCYuBxUrR+EqiWzcSRqF8KP71cvhxoNauDYoRi4qgWjesVsJEUfRla5GqhWPQCVeNZ9ThqS4hKRErcLfy5cim8WAFe/d8O/N/kfy0TOga9x27WrMGTVAozrUBVVSmchKSIMh1MykaUGu0ujSs1A1KheFRWQ95tHssvAP7BmXlyPZSHjSAKiYrKsuIbkXWx9DsKLYLmPhB1lHsCgA0/Ls2901714MDXV+h4SE9VlwbpkZmYqGbq34bMc8Shv7pVh/HTjlp2drcLYt8frwpPwOPOje7koyzhlmdyGzzB0dj7o4kRHnEnhJb2cwdLFiY6YB/wW9u/fjyeeeBzhO//CZYOH4fobhiMgpAXq1w5A5XL50hr3B6a++D3+zGqLW964GV255So306pL4hARmQieiF8gUfPwzD0R6DX5HlzXtwkqxBzC4YQj7svhS6GCfw3UsuqnSupQkVxkpaUgLjISCfzREiVRMiAILeuecJl5ViIiwpJRqkYtBFSpgLI0trKPIi7mMOKS0pB/9WXp8pVRvU591LA/kewUJG36GAMv3oRxUdNxrX9JlDmebVlIjgzH4eR0ZLrrqMo1aqNmDX9UsLMjNwNHkxIRn+xC1aC68Pdw7/aRQztwILM6fl0wF19Om6L2inFGrFu3bqhatarX7yh/OSpbVr/io14Zlr9vUo54AidPedSVdSrliBef6l4Ay7Sw/TctR7z8leFq167tfuId+me+6V4061RHdt/EVEehoaGoV6+eygsdGDfmt0mdSv8MZ+eDDraOmAfMN10dsf7hN1SrViG3pZ8A5fTo0QM33HCDOgiHM8yFQd0wTYyjbr4R0/6jDetT9hu9lW8bJzqyw5joiPnAdoI6MvnmEhISlKyaNWu6n3jHtBydio74+5SlqyPK2Ldvn7pSRDfviruO4uPzlm6wH6SLt76JvnRBn1IVEVAnCMFBbmOMlCyD8gGBaNA0CAHWt+9XsrTVqWij9jHkuSYIrOSPus2ao57VgylXvioCGzZFSB23MUZKVbCMpnoICbYMp1JlUKFyXTQ+Ht7tWrdGm6Z1UNFS9j/qtoytoKZo1sr21xwhtS1jjHWX+zeD+Zt2XP3KoFzVQDRsdu4aY4JwJmAl7O/vjy5dumDy5Pdx3ehxWPvnesycORN+qbEof0J/IvnAXiTXrob6fS9CK/vEwJJlrbqkHpqeWPZPdM2DUa2c1ZipQJaBU7s+Gre037dAI6t+yjPGiGUcVQhA3abu961bnmyMkTIBCGraAIEBbmOMlK6EGkGN0CK/bMs1b5zPGLPIyUzHoS1/wu/uO3FpFcuQ/Vd7VAZV6zVG03x1VP3AfMYYKVkOlarXQf1Gno0xEpNWBpNfeRozpn+BK6+8Eo8//jguvvhidciKbmdNEARBEHyNGGRnIxUboPM1I/HgcwPRwv3oOH5WByz4Gry+4E1c16wCKugNEgiC4EM46teqVSs1ezN+/Hg1U8KLibnPTI28JazHty+Px+hnfkVE1Q64omcIztqzADPjcWjNp7j7mtG479fWeOCeLqhmtTxF2fhwZHT69OlqaSJHyznjPXr0aHWEPu+HEwRBEITiTImMjIwClyxyGi8uLk5N1+vC6T+OAptMZRIeR7xixYpzY8micFbAJYtfffWV6rTddddd7qeFY/p9k7S0NLWUh0uTdHFSjuyy5CScyVQ9OXToEAICAtR+HB2cyLHDmKSHONERl5Vy2aLJUqtT0VH+fOBSye3bt+P7779X+54uuugiDLu6N0pkuRCWXAF1mjdDy4bVYTxZnXYQG9ckomqbhqhXqwrOmFmSm46jh/dh3boDSKvRCr0ubKSMS33tFAyXp3D57CeffILFixerZVU8ybJTp06oVKmS8fdTkI68wW+BmJajiIgItXRMd8mQHb/TXY6chCH8ltlvMFlqVVTlyBtO6gXC74tLXzmIooMdP1/pyPSbY1vEJYvelh3mh3nHmeahQ4dixIgRXsPacSO+0FFYWJjqp+rOgjvJOzuML3TEKz+YF5zZ16U4lyPKoY6Cg4O1lxI6yTs7jJN8MNURl/4S9oN08ZZ3Vhz8VEQ8OTugp3cFOVuQSThBOJOYfqtOyoWpc1KOnMTLDuMknKfnhTmn6TGVZcsxDefEv6kcT/65hPHCCy/E2LFjMWjQIGzduhUvvvEZdsccQfcLWqGDE2OMVAhBp0vao/GZNMZIyfKoVKcNLhl0Ja60jDHes6jflBcMDeiFCxfisccew9q1azFq1CiMGzdOdRy5X8xu+ItCR96cHcZJOE/PC3L0b6fJ03tPzvZvKstpOF/IcRovW5an9wU5X8ix/ZvKchrO1NmYyHESL/o3lUPnCzmm/m3nNJxpGFuOSThT/3T0b8vy9L4g58S/7Ty99+ScxIvOSTjTuNHZcgoKV8Ky2PJMZA9wk6DpoR4ceSG6G/5omXKUk3f1nDOHeghnBfkP9eAFsTqwTNibTHW+b+LkUA/TjbMsR1y2xb+Mn27cGIajNpTDNOlieqgHZbBuMNmgy3qBjh1r3VE14kRHTg71oI4og3Ez1VFBMyJcrrhq1SrMmzdP1b3du3fH4MGD0bx5c7cPwZ4V4/JOlmGOujKPaIhVrlz5X7rgbI39/RSVjjzBb5thTMuRk0M9GL/TXY6YFuadaTlycqiHL3VEKMdER6aHevhaR4wX801XR04O9aAczj4PGzbM6FAPwnzQxbT/aGN6qIcTHdG/aVtJ/2wnqCOTb87JoR6m5cipjnx5qIdpfvtSR04O9fDWN/Hjw6J0Np7eFeYE4Uzi6Zv05Ez8nopzKsc0nI2nd0XpbDy98+ZMw5n6d+psPL0rzBUWhh2d/v37q5merl27Ys2aNXjrrbewaNEiZdj/16HhzKXtHMBbvny5Oj2R+8UGDhyoZsXshi6/Iyc+8+achPGV81Xcirsc03A2nt4VpXMqw0k4J2GcOBtP7wpzpmFsPL0rSudUho2ndwU5U/9OnVM5TsP5wjmJm42ndwU5U/9OnTc5+uagIAiCcNrhSB33QN122224/vrrceTIEbVygPsd9+7d6/b134Ijn5xN4qzYhx9+qGYPeccYZ7Y5wy0IgiAIZzNikAmCIBRDuJRtyJAham8Zl7v+/PPP6vCK1atXqyUW/xU4M7h+/XpllHIpJ5fD3XfffRg5cqTRsitBEARBKK6IQSYIglBM4Xrz888/H3fffTcuu+wytQ7//fffVycy8qTLc53IyEhlhNEQ3bRpkzr85KGHHlL7xQRBEAThXEEMMkEQhGION6xziR5ny3jVwOeff44pU6Zg27Zt5+RsGTc/M21cpsmDd7j5nMdtcwknD/EQBEEQhHMJMcgEQRDOAnivVt++ffHss8/i0ksvVScMvvvuu+ovT7c7V+Ddlzxx94MPPsCyZcvUrBjTfOWVV2qfRigIgiAIZxNikAmCIJxF8AjuO++8Uy3di4mJwYsvvojvvvtOHc/NI3zPVnhwB4+vnj17tjI0eXDHHXfcoZZr8rhkQRBOP5yN3rFjh1oSXVh9wr2drHPozz4+XRAE54hBJgiCcJbB+7a4p+ydd95Rd5W99tprym3ZsgVpaWnq3pezCR5n/9dff6kj/qdNm4ZWrVrhhRdewLXXXqvSKgiCb+B9VlwO/dFHH+HPP/9EVFSUGiyxYf3CE0//97//qVnsX3/99fj9YYIgOEcMMkEQhLMQXrDZoEEDPPfcc3j11Vexdu1a3HrrrWoJI2fO8neiiiscWecSRXbuHnzwQWzfvh33338/HnvsMbRo0cLtSxAEX8FrN6655hq8/fbbuOqqq/Dee+9h69atylDjhcW//fYbHn/8cTV7vWfPHjRq1AjlypVzhxYEwSl+HEktSmfj6Z03Jwi+xtN3WJhzEsaJ86Uc4uldUTobT++K2vlSDvH0riidNxncVzVgwABl1DRr1gzjx4/HG2+8oU5k5IEf9FMcYdw40v7666/jkUceQZMmTdQdYzy4w9/f/6R0OnXE0/Oz1fkqPeeiHOLpXVE6X8iw3emQxYEeXkrPk0wTExPVzPugQYPw999/q0N2eGk97wPkwTv0w3sAPf2OE2fj6V1ROl/IsJ2vZPlKji+dr9JUXOSUsBrFPF8e4IgIRy+5Z0EXey2xn5+funnaG4wE1ymz0K9YsULdNcMTxQThdMOZBDYw7dq1U/tUdOCsg/1t63zfhEs8eOgC75XSxUk5ssOwQdWNG8sew+rKseG+gYCAAHXinw52/EzjRse40eniREfcD8Flc7zjShemx5ahIye/jkqVKqX+6mCqoy+++EIt/atbty6eeOIJdO7cGRUrVjTKw9MJ08LO3MaNG/Hkk0+qNob74a644gpUrVrV7etkqB+WJZO7x0y/Bac6ssPo6sgmIiJCpYezEjrYZcKkHDFu9vej+w3Y+WCSdyQlJUX1G2rWrOl+4p3irqPw8HAEBgaqKyh08LWOKIfoymJbxCWGNWrUcD85GcZ/zZo1uPrqq5GUlHT8tymLMvnvgQMHqnJ73nnnqXf58bWOwsLCVD9VV9aZ0JFJepjnjF+1atXcT7xTnMsRZVFHPCHX/l69wfTb+V0cdcTBCsJ+kC7edORnf5gFOeLpeUGOiSP86+m9JycIZxLTb5X+TcLYZcLTu4KcHcY0bsTTu4KcnRYTOXTkdIehX9MwdHYYU1mmcuwwJuFsPL0ryJnK4fH4PCqeDcywYcPU0iPe58V3/I0zhR1/dthfeeUV9OvXT83ucVDE3iuWPx2enG4e2M6WaxLOxtO7gpwtwzR+TvwTk3A2prLsMCbhTP3TOZFj4+ldQY6/T0zj58S/qRwbU1l2GJNwOv5Jt27dlLHFwQI7DDuU/EvjtFevXmjTpo3H8HQ2nt4V5PjbxFv8TnTE0/OCnBM5Nk7iZhqG/p3KMQln4+ldQY6/T5zGz9M7T85Oi0kYm9MdNzrTuNHZcgoKV8L6n7zc9QBHMXnSlcmMlb25kxa3jrXJiNE6ZQMtM2SCL7FnyLjk4t5773U/LRyWCTZGJqM2nH3haEpQUJD7iXe4nIu/b1KO2FiyULMB1Y2bHYZydEeUCEeNq1evjgoVKrifFA5lsG6w804H1gt09G8ygudER5x94eg+Z5V0oY4oQ3dkLb+OTI5vd6IjyuIJaLxUmRdJt23bVu3NYgfrTB0dz3Ts3LkTEyZMUJc8c1kl96rwOH+d/KN+WJZMZppp/FE/p1tH/LYZ1rQccckm06Mri+WB8XNSjux80IFpYd6ZliPOvrD8mcw0+1JHhHJMdMRyxNkX3VlMpzpiGH4/pjqy63tdHbEtYl7ozDRzvxiXELMfaEM53FvGfZ6eZscIdcM0MY66+UZM+482PJ2V/UbddsKJjuif4Ux0xHxgO8E8MPnmuFePskxmmk3LkVMdmfZNCGVwCT1Py9XNO7uMU05x1FF8fLz6y36QLt76Jn58WJTOxtM7b04QfI2n77Aw5ySME+dLOcTTu6J0Np7eFbXzpRzi6V1ROicyWOGz4r/lllswdepU9Ru8VJp7tGJjY9W/fQmX4HzyySdqLwr56aefMHToUDUrZjdOp8sRT8/PVuer9JyLcoind0XpfCHDdqdbFu8A7NKly78O7WBnt3///mp2zFOYU3E2nt4VpfOFDNv5Spav5PjS+SpNxUWOvjkoCIIgnFWwI3X++eerPWU33HADpk+fjvvuuw+rV692+zi9cMSSR/GPGTNG7RPmyWyclWZnTk5mE4TiDQd17rnnnuMzNew00hjjvlTd1RGCIOghBpkgCMI5DJdicDM1jaJnn31WLQviEfNcymhvTD4d8LdnzZqF2267TS035PHZt99+u1rOxo6eIAjFH56k2L59e3WAE2fHrrzySnUlBY0zQRCKDjHIBEEQznG4np6nql1yySV45pln0KdPH2Us8T6hop4t43p87hGj8Td58mT07NlTzdBRtsl6e0EQzjycCRs1apQ6abJv377HT20VBKFoKeHibrsCcHKoBxtjwhFQnREUiucmPB7qsXDhQjz99NOq4AvC6YYX6fLuph49emgf6pGenn5886fuCKGTQz24QZcydDfOshzZm2AZP924cbaEYeyNprqYHurBMk5ZJhtnGYbOzgddnOjIyaEep6IjXxwYcfDgQbVx/8SlgczTqKgoLFu2TO3lYj1/3XXXYciQIdrXGBQEv3OWKd5TxHQOHjxYncZWv359t4+8fKBMUx05PdSjOOvIyaEeTsuRveFfB6c6cnKoB/0z3xi306kju29iqiPTQz0YN+a3SZ1K/wxn54MOto6YB8w3XR2ZHOphw34g96DyEB7OkBV2PQWhbpgmxlE334hp/9HG9FAPJzqyw5joiPnAOog6MvnmnBzqYVqOTkVH/H3K0tURZTg51KM468jJoR7e+ibFyiD74IMPVMUnewsEX2Dfr8IlVWKQiUH2XzHIbPj9cybr559/VneCderUCTfffLPa3+WErVu3quP2//zzT7Rs2VIZeVzqdGLnjWlh22KqIzHIxCAjTnUkBlkeTgyyJUuWqNn0Cy64QC195pJFxrUgqBumiXHUzTciBlkeYpCJQXYSVLCvDDJu/N69e7fKUB0Yhhlp8lEQVkYcBdY1+hg/Vl4mFQTjRUf/uh8FYd7Z6dGVxTBHjhwx+ijsPNYtuLaO+Nckv53qiJURl0ToNraUwTSZ6ojx4ylv7ICygdFBDLI8xCA7+w0ywjqeF3YuX74cixcvVnUC7zG79NJLtXXL+ofh58yZo/KRSxS5tKlZs2bquzoRpoVyTXUkBtmplSPqVrc9cqojMcicdSTpn+HsfNDB1hHzgPmmqyNTg2zmzJlqoIVpoX4bN26sDufh6YueyjehbpgmxlE334hp/9FGDDIxyIgvdXROG2R0jKiugp0oixw6dAhVqlRRd9/o4ERZdnroX7eCIKYFiqSlpakPg5v2dTEtUNQR85t54Qsd8RJbf39/7XXqvtSRGGR5iEF2bhhkNvw+//jjD/z444+IiIhQI+GcOWZHtDD27NmjwjAsOw9czsSjsrlfrSCYFtZ1pjoSg+zUyhHbFd1OilMdiUHmrN2jf4az80EHW0fMA+abro50DDL+NutRLj2eMmWKuiSapyvyyozZs2cjICBAXTrP5+xPnQh1wzTxd3TzjYhBlocYZMVfR6fDINOXLgiCIJyTsIPFgz54CmL37t2xcuVKdSjHL7/8ohqsE2EDxmVMr7/+On7//Xd07NhRLWXq169focaYIAjFG3aeOfDBU1g5O9a1a1eMHj1azXxfe+21aqCGnV4aaqwDOFAiCMKpIwaZIAiCoEYI27Ztqwyrm266Se0xe+ONN/Dxxx8jJibmuGHGVQbTpk1TzzkjctVVV+HWW29VS5hO9VAQQRDOHDS0OLPOKyp4CisHae666y40bdpUzVRwdJ/LkWmUcZXRt99+i7lz56pVLYIgnBolsrKyCl2yGBcXZ7TUigWaFDQldyIcjbGdbhjCzgGd7vSsTXR0tNo3pLscjvFimkzkMF4MR/8mU6CcbrXzQFcWp0A5ve1taVF+nOjI7oyZ6shUr4QnwPEgAN3lcMVdR1xWyo6ryVKr4q4jNsDVqlXT7oAXdx1xRJh7oUxOeGV6bBk6cvLrSHc5BXGqIy495GyV7n5ZyqFj3LikiYd0sFO2Zs0aNfPFJUvMW46Kr1u3Dq1bt8bVV1+tjDh2znR1ZH8LpjqifliWTJbDmX4LTnVkWl5tuPSX6dFdMpRfR7py6N+0HDnVEWdL2G8wOTCiuOuIBgrrbhokOvhaR3Ye6MpiW8TyfeJMNvXA7/HTTz9VJxCzzI8bN05tH/AUJ9YB33zzjVouyLvKOHtmt3G+1hGX/rKfqrtk8VR0ZBK3/DoySQ8HwxjO9GwAO246snypI8qijrisVFeWk/z2pY7Y7ybsB+niTUclrMqzQIOMy1JokJl09pkhBQnzBDPD/msazs54EzjSy86DiUFmKscOQ0zCmeYdoUHGNeEme1+c6MhOj5Nwpjqi0cx16SYGmakcOww53TpyYpAVdx1xloTL3EwMMlM5dhiT9BAnOqJBxn1kJp39U9GRk3ww1RGNZna6dPfZnCiH/8184WwYj7KnvtnZZqPCO8VojPGbpj8n+WAShlA/LEsmnX1f6YhyiKmOaDQzPboGmR0/J9+Pk3wwCUNokLHfYLL3xZc6Mk0PoZHCgRpdg8yOn690ZPrNeTLI2I/Ytm2bmvHiAAwNMR5xz75SYfHhHtLp06erU1rPO+88NVvOE1btuBFf6IgHE7GfqmuQOck7O4wvdESDjHlh0tkvzuWIcqgjnnWga5A5yTs7jJN8MNUR+92E7aIu3vKuhGUZ5mnEA2x8uYnT5MAIFnSiu+GPGUHrlH9NNgkyDB3DmGSkk0M9mCaTjYWMF8PRv8nIAxsyOz26+cAOCi11k1lMJzpiJ4z4QkdODvUozjpip5YVrMnABtPD39cdtXGqI4ZhWMox0RE7kmwsdI3m4q4jJ4d6cHOzHTdTHel27ohTHbEjyY6xyQwZZXkqr0uXLsUTTzyhjAdeEcFDP1g+neiIaWHemeqIM2QsSyazmMVdR+ykMD26RrOTOtWXOmJnn/0Gk4GN4q4jjuyzXtA1mk9FRyZxs3XEPGC+6eqIbRHD2QMbLFPr16/H1KlTVf9oxIgRuOWWW9Q7HfgN86AP7jflrDmXLzdp0sT91kxHpn0TGx68wn4qw+ngREdOvh/q1LTdI+zsM34m+3FN2z3GjTLoVzffiBMdMd84k9qgQQPtOqi468jJoR7edFRy4sSJz/KFJ8fMYIefnWNP7z05Jo5/8wv15ggz0SQM/ZuGoWPHix0UNoAnvvPkCPPBVpYnPyc6wrjRPz8MT348Ocqhf/tj8uTnRMcPkKNbpjqy46Yrx0l+n4qOOPNSHHXE/LbToyuLYdhJ4TJMT+89OabHjpuuHCf5zW/BiY5ovLBDzk6Kp/cnOsqgLBM5vtQRK2R2UjhY4+m9J3cqOuK36um9J8d8IyZy6KgjDjzpyipMR5wJW7BgATp37owBAwaoRojPia90RP1QT+eSjmjAMD26sojTcsS4+UJHzHNuC/D03pOjHDtup1NHjBf/muqIBgzrbuaFp/cnOjtupjqiXp3oiHlgoiO2RYwf6wZ+fzyU56uvvlKD708//TQGDRqk4qML+x40xNhe//bbb9i7d68yJDjQwDjp5hsd84B/TfKOjjpiPHTzzomO7DAmOiL87mwdefLjyeXXkaf3nhzl2HHTkZUfUx3x93Xl2I5GJgdxdfPubNAR/7IfdOK7gpy3OlXfHBQEQRD+k2zYsEGNovM+Io502qOkgiCcfbBTze0ovHvwgw8+UB1SzoBfdNFFbh9m0BiiIceL5Xm8+ZtvvqmWMXL2TRAEPcQgEwRBEDzC0UYus5g8ebKauWZni/vJ7OUagiCcXbBMcy/9999/rw7w4EzWK6+8gh49erh9OIOziNxX+thjj6mZUv4mZ8y4ykoQBO+IQSYIgiB4hJ03nra4aNGi46PdvJto9+7davmFIAhnDyyzNMbmzJmj9ozxqgreN8jT74oCLvvi/lL+JpetvvTSS2pJJJdGCoJQOGKQCYIgCCdBY4wj3a+99pr6a8OT1X799Ve150QQhLMDGmNcbkxDbP78+eoai6eeegr169d3+ygaaJR16tRJGWO8EuPBBx9Ue9Q4w846RRAEz4hBJgiCIJwE95ns2rVLLW3iBub8cC/Zzp07lR9BEIo33PNJY+zdd9/FypUr1UmpNJR0TzJ2Ak/Ue/XVV3HDDTdg4sSJ+PLLL9VJqWKUCYJnxCATBEEQ/gU7Tdz7MWnSJPeTf8Mli+zYHT582P1EEITiCAdNeLfYfffdh1WrVuGee+5Rx9rrXllyKvA0Vsp95plnMGHCBNx1113q9FfG6dwxzFw4lpuD7KwstZLgX84yhHNlzErQRAwyQRAE4V/w1DUe4PH1118fP1GRx/Xa1xyQWbNmqf1lgiAUX3iH4JNPPqn2dH300UcYOnSo+41v4CzcbbfdpuLBvaicnTt48OA5NLu+H799dB8ut/KXeZzfBTXrgIl/uL0JghfEIBMEQRD+BUex33nnHTWKzfuFOJrOy34bN26s7nHkHSrcS8YR9+joaHcoQRCKE5988okyxho1aqSWKHbs2FHdz+RLOIDDgZzzzjsP3333HTZt2qQun+aS53PlYCBXbi7qdx+ClxcdUpdrHzq0HesWTsQAzpDJCk1BEzHIBEEQhONwRozG1uzZs9XFpHfccYc6KY0b9S+55BJ88803apS7Zs2a6nCAzZs3u0MKglAc4AEaPIznww8/xGWXXYbHH38cHTp0UAdunAlolFF2t27dVL3CQZ7x48erKzTOjbvKaiEgoBmaNK2ulmlWr14NAf4VUdb9VhB0EINMEARBOE5SUhIWLFiA22+/Hb/88ou6MLZdu3YoX768cjw5jXcNcbT78ssvVyPCPEpbEIQzD40xHjv/448/4vrrr8dNN92Ehg0bqlmqM4k9U9a0aVN1uEi9evXU3jIuY+RhH2c3JeHnVwolS7n/6QnumQufibEXdkXH1q3R2u0GPvs91oXJXW2CVUYOHjxY4IQqp5PT09PVWlhduPeAcEmLvdegMOyNnfxL/zphCNcf03H6XTcM4WgMKwXdkSLGi2kykcMwdrqYD7owv+1805XFMDwBjSPZujjRkZ0ek7jZG3d15diwQeEI2rmiI8448HLdc01HXLrGfUU6UIZTHZmkhzjVETdhm5w6xvTYMnTk2OkhJt+cUx2xk0MDSldHdp3K/AsNDVUXvXKZoi137NixqhN16623ok6dOirPePQ93wcEBKgyqwPTwrwz1RH1Q5kmOjL9FpzqyLS82nBpKNOju4zM1tHpLkdOdcR6juFMDowQHZ2ajux4MVxERITaJ7Zjxw7ceeedasCkVq1a2nWAr6DOw8PD1Swe96FeeumluOKKK1CjRg313lRHvOeM/VTd76FodRSGlVPm4rd1pdDtuXtwSS0+S0Lk1u/x3i1TUfHNZXhS3bm9BVOGPojtPR7HFR0ro7JVXcav+hgfL6+LK+6/GUN6NUF1erNgn46yWH/rUpzLEeWwHFWpUkU7DPXDcKZy6HTzgNC/XY50wxD75GH2g3TxpqMSloGSpxEPsHJNSEhQja8ubDAJKwCdxDEz7MKhG4YwA+kYxuRjYgeClatug8F4MU00DnTl2OlhWnQrccL8ttOjmw/8KFgZseOkixMdMa/51xc64sltrFx1KyOnOmLc6P9064iDGuwcs2HUhemxv5/TqSNWEAxDOSY64owIO+y6lVFx1xFPFORgDZfh6UIDwY6bqY50BxuIUx1FRUWhWrVq2oYS85uyKMf+jvJz4403Ijg4GHfffTfq1q2rnjnREX+beWeqI+qHZcnutOlQ3HXE2UWmR3f2gnGjs/NOB/qnnnyhIw7UsPxx2ZYuxV1HkZGRqu7WlXUqOjKJm60jxov5duDAATVzzXQOHz4c/fr1U9+WSVp9DQ8O+vbbbzFv3jz07dtXzegFBQWpvNP95ggN0cDAQBVOhyLV0ZG/MG/yfPy6vx5ueP8WdFVFORHhf32NSdd+gIofr8fLvawyFLMLq8KtfkCTzmgQUAalraKYuXMK7h/7C/xvugujhl2IZu5uKft0lMWBLl1M2z27HBHdfCOm/UdCWdQRB/RM8rvIdFQI9G/aNyFcSUL8/f3VXx286aiElVEFGmTs7LNzbHKLOysIYlcS3rA/Cjo2SroKZqXDMKaZyAaQVrrubAWVxUxkp8bko6Cjf5MPnflN/7oNE2FHMj4+XnWUdKGO+Pu6BYo6Yn4zL3yhIzaA/Mh1R8J9qSN2CJkHDKebD+xIJiYmqoZGF6bHjtvp1BErIoYx1RFHN9np0h3YYF5Tlp13OvhSR+xIcgTPNjR0OBUd6RpJhPnGsJRjoiOeZMaOpK7R7E1H7CyxLeDeDzasxImOmBbWdaY6on5YlkwGCIu7jtiJZnp0ZXnTkSdsHbFdodPBqY7YkWQ4kwHCvHZvPxa/PAVhIVeh1xUXo1X+cZHDW7F8/gosimmIWx+7HE0d6sjum5jqiLPF/N6ZFzo4affon+EYN1MdUc6KFSvUbBN/g+Wze/fuqp9jks4zBdt77itbuHChOjRo9OjR6NKli/Y3R3jHGusm3TrIiY7sMCfpKGEdZr81H8sjG+OOKaPQMe8hDm6cgReufAeVpmzF65dabbLVLqVyMmDLNIx9azGiE9OtxioSWzf44dKJk3DfTb3RqooKrCZCKMtkgDCvHOn3H1l+KIPfke63TUz7j4QyaHxz6azu912kOioE5oNp/5Gw301MBp+89U2Kf2kVBEEQBOEcJgmh61Zg845IxP/7DnKrFxOP8B2b8cefYZYvIT/sgC5evFjtxeIM0QMPPICePXuqAc2zwRgjNHaHDRumZuA5YP7ZZ5+pe9NsA7rYk3oEyX45SKnlj6ruRydR4hhQcS++u200bn1gDlIb9cRlVw/F0Cu7oVmNyjizu/uE4oIYZIIgCIIgCGcRXB0zffp0vPXWW2jQoIFaSty7d2+jPZbFBc4SDxo0CCNHjlTL+99//311AuPZYJTFhu/D/pRIlAgORKD72Unk5gDbFuDdVWmoe/kI3DX6Rtxy00iM7N3KMp7L4tw4/F84VcQgEwRBEAThLCEbqfE7seTdR9XdWg8++LDlvsWWjGzrTQL+nP4Snn+cz//tHnnlS/y8MRxn+3l2XGLFPbxTp07FF198oe73uv/++9VJqCZLz4obXGLJI/p5KiSXm9HY/Omnn9TyveJLLPbt2ImEaKBF80YocAG/ywWEH8Df6eXR/MoBaFenEsqnbMCc6Uuw+UAcTpwUFv6biEEmCIIgCMJZQDaOxOzAsq8+xCdr49Ve8IrlyyFr2wy8Om0VwlOz4Ve+AipWrIRKx8Kwas7PWLntMNJKW/+uWA5lS5WE/s6k4geNMR6OwAufeax9r1691J2A7du3194/VZyhUdanTx/cdtttam/OzJkzMXfuXLUHu/hxGDuXfoe5s5Zjw6a/seG799V1A3luEt76eCE2HEnA+u/ewcIDlm6aXIlh9VZg1lsv4Xn6ee4zLM+ogsByGfA7mo6MTPfPCv9ZxCATBEEQBOGME7ZuPmZ9/Dpefz2f++RrLPjzYJ6HtDhErluCad8eRL2bHnd3fp/E0483xr6338L/tpVC06vG4/4nrOf3X4fuDVvhgstvwrjHnsVT91yHvu3qQv8g8eIFDx7gcfbcY7VkyRJceeWVuO+++9TeMZMDMIo7PMSBF0jzeo369esrw3PWrFnqAJziRRz+Xroe++NroNElPdC44lF1OFSey0XJyo1x3nVdcdQyyBaFWgZZ04F4+MHr0TkgFznplp+STXDp6HGY8PAtuLx9EKrJRrL/PGKQCYIgCIJwxklPjEHkgb3YuzefO3AIh5PS1fuc5BiEb/oDKyOAcgd/UXduffzpZ5izIwvlwhZg0frDOJKRd5T3uQSNMd7XRWNs7dq1uPbaa3HHHXcYnQp7NkGjrFOnTiqNHTt2VBfVT5s2DWFhYW4fxYUANLtgCMZNPGEQQbkX8OyjQ92nLubdE9d88Et44WX7/QO4ukM3XHXXBAy5vB0aFHgiiPBfQQwyQRAEQRDOOC0uuxUPvvyRMrSOu5fux82XNlfvs7MykZRyGNmlE7Bv5Up13PuKFfybgLrXDEXrQD+U9SvwJp+zEl73sGrVKrVnbOfOnWrmiIaKyaXBZystWrTAmDFjcMkll2Clpe9PP/0Umzdvdr8VhHMLMcgEQRAEQSj2lCxZCuWqBKJmq2vw+IfTMGPGjH+5F65tjhqVzv69VDa8fHb58uVqzxjvfrz99ttx3XXXad//eC7AY/F5+uLQoUOVUcZTJTlbyPv4ziyVUKdlK7Rs1wDVPS43LI0yFULQtl9ftNG/Tkz4DyMGmSAIgiAIxZ4ylQMQFNIAlcOWYd7qqLwTE13HgLid+HX5euxPzEK29c9zgdjYWCxatEidNsg7xbhfbsiQIe63/y14wT2NskcffVQdavLqq6+qu8rsC9nPDCHoduMtuHFsf7T1uNywAqrW6YsxUz/B7R3cjwShEPx4ak9hjh+7p+cFOfo3DUPnKzlOHPH0vDDnNA+chvP0vCDnNN+cyHEqy9Q50ZET51SOaT4QJ3nnREfE07vCnBM5TtJDZxrOSXqcOKdpMg3jSzmF5V1h8TCVVZicglxh8gtyTsLQFVc5dE7yzonzrZy8/FPOgx8X38P678qBqHdhf4xol4SFkz/BorVrsXb1Kqyd/iLGPPg+FoceQaplkR0Paxlrdh4TX+jIToend4U5OwyNjOjoaMyePRuff/45atasqS585p6qk6GsRBxYtw7rmBce3U4ciEk5649W56zgxRdfjCeffFIZq4899hjWr1+vDtE4MS+9uVPRkWk44ul5Yc6JHCdh6JzI8fTcm/NlekzDOdGRE+dNTon09PQChxe4kTQ+Pt5o4ygzwkbn5J/8/onuaUGmcmx4f4c6Klfz8kQncpzGzUm4jIwMdSQsL1bUxVROfv/kdOcDGyMef6u7LMOJHKdxcxKOF3hyHwBPw9LFVE5+/+R050NUVBQCAgJQrlw595PCcSLHadychEtNTVUNe+3atd1PvGMqx5fpIYcOHVJHR5ctW9b9pHC8yeEIdXBwsLqAlsuIiJO45Q9DdMNRP1Z7pTqoupjGz2leOw0XGRmp0qN7f9Sp5reTMEQ3HC/1Zb+hRo0a7ifeyZO1DbMnvIa9jYbjiuv6o2P+qjJqPeZ/vRjfRTbHg68PQStXJhLD12LWo+MxZRfjRdcGd8/8ENc3Lo8K9orFw7/grScXw9V7CAYNPB+NKjrTEWdkWC/woAkdTiW/2Sljuf3666+xePFi9OjRQx1rX3D7no3cnMW4r/K1mFO9AapWLoVS+dc9pScgMqY9Rr7+GO4f2xON3I/PZnJzcxEaGooJEyYgLi5OnTTZvHlzNGnSxCc6IqczDOFSVX4L1apVcz/xjqksp3Fzmg8HDx5EUFCQumNOB6dybE5nGGJfxcB+kC7eZJWwPu5/fJwAO/sciWAjrIu9rpd3YugkjhFkAeNf3TCEYegYhtP5urCyY2efRpkOLBRMEwu6rhzGi+HoX/fjI2zI7PTo5gM7+7w4kR+6Lk50lJOTd5e8L3TEToq/v7+20VzcdcTOPitYuxOrA9PD32fcTqeOGIZhKcdER+yksLHQNZqLu47Y2afRbDL4lJWVdTxupjrS7TgQpzrinhN29nWNZuY1ZRVUXm+44QbVFrADZH/LTnTEtDDvTHXEzj7LksnARnHXEU+NY3p0jWYndaovdZScnKz6DSYDG8VdRzxunfWCrtHsVEfMB/a3Jk+erJbjXX311RgxYoSXwdZ/DLLsqRF48aqaqJG/St74IW586C9UHTL8nDHICL9nDgo+9dRTalknZ8148iQHoHTy3ImOnHw/jKdpu0fY2Wf8TAY2TNs9xo0y6JfhdDHtPxLm2/79+9GgQQPtOqi464iTVYTfnC7edGQ991MvC3IM5Ol5QY7+TcPQuSOj7ZzKceJM40bnJH5O0+REjqfn3pxpPjhNjxNnGjc6J/FzIofOiRwneUc8PS/IUYZpGDrTuNG/k/Q4CeckPU6c0zSZxs+pHNMw9F9Y3Iin33QSP+LpeWHOiRwnYehM4+dUji/iRucrOU6cUzmm4YgvdET/pmHYidy9e7cyMHiIxy233KJmok1WvmhxLBuZqSlItDqT7FDSJSQm4yivCnAds16nITk+GWlpR46/j09KRVbuMfwzcm8Zj2kpSE6w3x9Bamaegcx3OVmpSLHD/stZv5vjgis3HSkJ1n9n5eJYgdMBhcM846AQT+G85ppr8NJLL6nlnZwxs98X5pzoiI6YhiOenhfmnMTvVNLk6XlBzokMOl+mxzQc8fS8qJ1XOcqHIAiCIAiC4FM4C8D71p5++mk16/Pcc8+pmTHdmW19LIMrfh2+e/4mnBdYRxl7dQJro0m3/rhnToRljCXi8Oq3cFXwFXjvvftRL6geAi0/tfu8hEX745BuGY2W1YbcnEgsmXQjrmgbqH4j8NKxePqHv5FjGW1ANLYtmIThNWuili2jTiACA/lbV+HDPbnIDJ2Gm1pfg9eXheNwpoqYYzhryRnFJ554Qt3txXvaDh8+rAxcQTjbEINMEARBEAThDLBkyRIMHz5cLZvmDFn//v21l7CasRuLPv4Ev+1uiCfWHlXyYrYuwRu9K2L1+7OwUvnJQnr6Rjz9TCnMOByPxG9BdW4AALY2SURBVKNb8H7Ilxj30vfYdiDZen8IC566A8/93RQjp/9t/cYBLLs9AHtnPYf7vtmpfoHUbdcbE3/Jk3E0MQqRvz6FrtZzvQVu5vBeNhpmH374Ie6880412ygIZxtikAmCIAiCIPiYb7/9Fg899JA6PfC9995D9+7dtffSGRNfDZ1veQFPfPEibmhXRs0u+dcLRqvzO6JB2n6Ehed5K1OxPEZMfx39K1RAxTJNMeqFh3HBmvlYuDkKEX98j+l/1MOF/a9Cvx4NrN8IxAU9euOCalUQtmortuX9hIp/qdJ5MpQrXeq0djaZZ9xDNnfu3ON7y9atW6f25QnC2YIYZIIgCIIgCD6E+56ef/55XHbZZRg7dixatGhhdEiJMf7VUSOwLuolbcCc54YgJCQE9Vv2xKAHZ2IP7P1cZVCyVHu0blMRZbmHByVRrlkLNCuxA1HhR5B6NBuZIUGoE1gD1UrzcAY/lKpRG/VqlEKVxEgciuVv6LAV79/YHZ2bhqh4hISMxMs//oVD7rdO4Kxix44d8eabb6qZOV4VsHTpUjHKhLMGMcgEQRAEQRBOM9zbxNNcecHxF198gTFjxqhj7Xlku8lJd44oGYY/Pn4cI3tPwFf7WuCJrxZh0Q9T8d5DA9HQ7YWUsIwyZRfak3SlS6F0iRy4clx5Rpv171L5DyAoWRIl/UrA75hl1OW6n3mlCa5/8QvMmmfFgZdfPxyA9ZM/waffbkCE24cTOBvXpUsXvPHGG+pEPxpnvEKAJ1ELQnFHDDJBEARBEITTiG2M3XPPPfjtt98wfvx4DB48WF1Zc1pnxmwO7MSfEZbFdNVYPDFxHK7v1gqt6tdFrdKZ+YygbOQe24lQLl+0z8U4FImD2T3Qsm0AAqpY/w7bjF37ohF9NO81khMRm5SLlEo1UV372qzyqBHSFM1aWnFo1QoX9DsfDfziEbc/GvFH3F4cwpmypk2bqouj27Vrp05fnDFjhjrpURCKM2KQCYIgCIIgnCZ4P9L27dtx++23Y8uWLXjkkUcwZMgQdV+b7r1Mp0xGOtIORyEppwRKVa8L/5yD2Pr7d3j7g9+Q7vZCKywrLQ7fPfQO1lpxzkYUFr79MVa36og2wQGo1qYnLm+ahJ2bVmPT7sOW/2Ts2LgWG2NTUK1DS7TQu6rtJI5EHMChFKBEpfIoXwSHS3K2sVmzZurqgJ49e2LevHl499135bAPoVgjBpkgCIIgCMJpgHuYtm7dqoywtLQ0dbx937591aW/PjPGSL0LcHHX2vDf+Rbuv2EQBg29Fy//cACBV/VCx6wwRNO+QimULtkIfdttx0NDr8U1g27E42EXYMLdV6BzkD/KVG2JQfeNx9WVt+L7p0Zi0KDrceesMJS/8DpMuKoBkjauwPwvl2N35S5o3UJJLYB9+G7i7Rg1xIrHoEEY/tgvcF3QF/16t0e9IpospFHWsGFD3HrrrUrGhg0b8PHHH2PXrl1uH4JQvCj5rIX7v0+CozqpqamoWrWq+4l3eKcGMTkpiFP5dCZheLu2aRhy5MgRNaXNtcY6UIZ9W7hpeuifl73pwvy2L4jTlcUbxtPT0411ZMdNV46T/D4VHfEOluKqIzs9urKoo4yMDFSpwvUeehR3HXHpTYUKFbSX2lAGZZnI8aWO2GniLfqVK1d2P/HOqejIZL8IwxATOSQ5ORkVK1bUluVNR3PmzFH1TLdu3Y5/y77UEfXDsnQu6SgpKUmlp6h05AlbR4ybL3TEcJUqVXI/8Q7923E7nTrit0Cc6IjfO/NCBztu9M/DJXis/auvvqrePfnkk7joootU3WkSh4LhwRsVUbNpJ3Ts1h4hAdzf5X5FylZFYJOW6NSxCRrU5b1jddG4SVM0adoardt2QtcLe6Ff/944v30btGxRDxUTN2Du7Dj0fPkB9Aypi7atO6J7v8EYfF5DBFRkXV8alWsFo36dQNSr3wgNm7dHlwsvQf+e3dAxxKoTXKVRpVZzdLq0D85vXdOKmUUJS7flqiOkXQd06dQYtSr7o17ztujQqR3atbXi0bo12p/fC/2v7I3OTWqhShHbqP7+/qhfv77Sx9q1a7F+/XqlT/uZ6TdnUo7o37RvQtinY1jW37qYliP+Ph3R/baJkzqVJCYmIiAgQDvv8pej4qojwrKsi7c6tYTlocAb9NiJjI2NRXBwsPuJdyiQ6GYiM4OZSGeSIcxA0zCER6KyAdRtMBg/dgLY8dSVY6eH/k0+dHYK7fToyuJHwQ2rvLVeFyc6Yn7zry90dOjQIdXx062MKINpMtUR48dCe7p1xFFRNup169Z1P/EOvzm7UtGRcyo6Yhjdb8EmMjIS1apVQ/ny5d1PCqe464gdJw4E8CJTXU5FRyZ7RpzqKDw8HDVr1tS+YNbO74K+nxtuuEG1Bffdd9/x+saJjpgW5p2pjqgfliUu89LFVzoyrVNtDh48qNKje++UNx15gv4Zzhc64kAN+w21atVyP/FOcddRWFiYqrt1Zdn5zTpl4cKF6vAO7mli+eHx9sWWrHhEr/kIw676HdesX4xxjYFS+tlU7GFf9vfff1dH41NHo0aNUvrQrR9tvfL74beqg12OTNo9QuOF8jiLqotpu2eXI8JwujgpR5QVGhp63AjWwc5vJ3WdiY7o37RvQuyDYtgP0sWbjkpkZmYWaJBxtIsbIU06kkwcKUjgiVBRttOtkAnlmIYhMTExyhjT7exTBmU5iRv9634UhB8Tw9hOBzZ+LLwmHUknOrLD+EJH0dHRagRLd+ShuOuInUh2VAIDA91PvGMqx9c64sAGR7t0G7PiriOuBGAHyqSzfyo60m2UiFMdcWCjevXq2p19bzri5bU8opqHEuQ3yEx1ZMux8003TdQPB6BoZOpS3HXEgQ2mx2Q1QGE68oQvdUSjmf0GdiT5l4MCBw4ccL/1jC91REzSQw4fPqw6XbqdVsphnb9z5051FxY7oTxJkcfaF2vOcYOMsJ5fuXIlZs2apQZJOVtJY1lHt3Y5Mil7TsorYV3HcE5W1eh+33bcmHb2TThTqQPDEF05hLI4+MQDbHTLrJP8dhLGqY7Y7ybsB+niTUclLOu90BmyuLg4lYm60NKkIN3EMTPsDKGidMIQ+jcNQ9jZ5wyZiUHGNJlY6fZHQUwaDI6k2OnRleV0hoy/b6IjO00m+c2PzzQMYWefM2QmBpkTHdHR/+nWERtnLh8zMZqLu46czJBRlhMdMQ/odHGiIzbU7EyaGM2noiOdDoCNUx1FRESojnFRzZDRIOMMGTuX+Q0yUx0xLcw7Ux05mSEr7jqiwcL06Bpkdn6byPGljvLPkLHvwMMUvvnmm0LbJ8bNRAbjRkd000NM5diwbmA9pyuLcljf79u3Tw2IvPjii8V7ZswmNw1HI9ZjzqwwtLzjRnS1+pl+Zll1VsBv9Pvvv8frr7+uvvG2bdtq1ZH2d+fkWzX5TglnUhhOdzCNOClHbCvpOnTooE6l1MG0TiWUxYEZDuixTtHBSZ3KPKBj3HTznDKYJpO+CXEyQ+atb1LCikyhBhlHh5iJuvBDIrrTfxTPjKdjo6SbIcxAhqEck4+do8YcddBdskjlcqSPBUNXjp0e+jdp1Jnf9G/yAbKDwllMk2Wl1BF/X/cDtD9Y5oUvdMTOPtd9myxZ9JWOaAAzDxhONx/YoHM0xWRgg+mx43Y6dcQKgmFMdcSOJDsbukYz85qy7LzTwZc64ogkG2qT1QCnoiOThpb5xrCUY6IjjkiyY2yyJKcwHV1//fWqLeBx3XYH24mOmBbWdaY6on5YlkwGNoq7jthJYXp0ZXnTkSdsHbFd0e0MOdURDRGGo5HJtvaTTz7BzJkzMWHCBLePk2F6KENXDuPG9PAv6y1dqFdi0r4SGpZsj3S/b8aN3ynryP3796tT/niwhMnyM+H0wG+AB6xwkGDbtm3q/jce/MHv3BvUK+sFfj+6ZY/fKL9v3f6wDb8fyjLZL+tkySL796tXr1bl9csvv3S/KRzT/iOhLA5QMK916yDqinlu0jexwzBuunKYz6b9R2Jfo8B+kC7e+iZikHnBibLs9NC/biVOxCDLQwwyMciIL3UkBpl3HYlBVjBOdXSuG2RTpkxR+3Z4sEVBmLZ7TnVk901MdcS9L/zemRc6MG6UxZUeNEaZ9oEDB6o7x7g8TjgzsO7YvHmzWq5IQ/nqq6/GVVddpT3jTr2yHNnfqg78Rk37JoSzL5RlsjzbtBwxbjSS3n//fSVPDLIzb5DpSxcEQRAEQRAKhZ1Bdj7vvPNO1elftGgR3nnnHdUpZQdQ8C00xrh3jJdEcyk3B5foTAweQTjdiEEmCIIgCIJQxLDDP3bsWLVkkUeu0yj7888/1SynkIqIjeuxLyoJqTlA0oE/sSv0AA6nul8XEZzJWLZsGaZNm6ZmKMaNG4drr73WaHZVEHyBGGSCIAiCIAinAW6PoAHAO8holE2cOFFdUsxZGy7l+u9yFLsXfolvZv+AeQt/wddffYB5KzYiPMX9ugiwD5b56KOP1BKxMWPG4NJLLxVjTCiWiEEmCIIgCIJwmuA+ziuvvFLdScZ93y+//DJ+++03dXLof9coq41LbrsSZbbMx5QXn8S06M5o1u5CdNbfIloo3MP37bffYvr06WjVqhWeffZZdcCKIBRXxCATBEEQBEE4jXBfWfPmzfHxxx+r2RrOmC1fvvz4AQ6OcB2DKyMW+7dvU6cG5ncHDh9F+vGVkdlIjYvAgb/t97uxPzwBaXx1LAsZydEI3bkfMTHh//zG3lik5Vq/Tz9ZiYjYcwDRiWnItKOafRRxEeGIOJSA1Mw0JMdE4mBYDFI8rcZkPNNjsW/bPsSm5SI3MwEHd4UiutzFuPfTOfjfmjVY89pwdPFPR1h0EtLyDsR0BPOSxhgPq5gxY4a6a4x7+eRAFaG4IwaZIAiCIAjCaYaGGI0ynmjXpk0bvPTSS5gzZ446zdrRYR/HspF74EuM7nw+eve9HJdfMQADBliubw+Me+cXbDyUiRzr/9KT92HZtGdx3/X91PvLLx2Fux6fgZWWgZWTEYP9v0zGHRffiFcmPYE+A67AFQP64+Ib38ayg0mWAWbFK/onPDv0brzz0w5EpLtlJ67FzGeewsRXvseG8J1Y9skrePjej/BbnPt9fo5lIjv0S9zc8SZM3ZmKtPC5eGTAnfhgaShiMughB2kbp+OJ0XfgvncXYovDZYvMQ54u+8orr2DBggW48cYb1ZULjRs3dvsQhOKLGGSCIAiCIAg+glfvcAand+/eeOONNzB79mxER0c7nCnj8dmd8MC8Ldi2LwxhYWHYP+dBZC34GYs27kBMThR+nfw83llXGue9skK93770CVweuBqvPjcfB9VsVCriEv7GnEVN8E1YKEL3LcUr1d7HiKfnISwuHcdO86rK3MwwLF2yDLt3hjnulPLIc1618OCDD6qDUx566CF1kmJAQIDbhyAUb8QgEwRBEARB8CG89JczObfccotaxjhp0iTs2bPH4bH4x5CblaXuU6I7cCAUGZkZ8ONdR9uWYN7K8gjuOACDLgnKu3OpcQt0alMH9Vd9hbkbaG2VgH9QIEZ+8DR6gffVNcEd77yA7vOnYPaOFCSoK9wsGTlZyMrKk5FpycuxlzQqXHAdy0G2Ow55frKtUN44hqiFn2BfQBNUb9gFereC/RvmGS98pgHGO8a4R2/IkCHqPlNBOFsQg0wQBEEQBOEMwJkcHjjx66+/4s0338Tu3bvdb3ShSfQnnutVD3UDKqlTHVuMWoc2D9yFEX3ao2R0BJKT5+OLJwehg/WO7ytVaoGeo9/C96mpCIs4ZIWviDKl26JxffWDFpYh17gJWvhtRngYjTA+24FPb78YbWu7f6PhlXjoyxWIVP7JYWz6+SUMbWrLaIhW572MFe63BbMe8yIvxgWNWuKCIPcjQ7jnbdiwYeqSZ15GfsEFF6jLgQXhbKJEWlpagZPRHOHghtM6dYro2JtiANdqs7KoUKGC+8nZDW9nT0pKQmBgoPvJ2U9MTIxa0lG+fHn3k7Mb3n2SkpKiGotzBS6v4egjTw87F+DJZ0ePHkWtWrXcT85+uLG9WrVqRXbEM/djBAcH4+6770bdunXdT30H9cOydC5d5hoZGanSU6ZMGfeTsxueGsh+Q40aNdT3x1MFeSHvTz/95PZx9sGLhFl3ly5d2v2k6MmyLJ6lS5eq5Yssr48++ij69evnflsIuZnI2fM++nb4Fj3nz8Todv6oYkUzcu4DGPcu0PeF8biq9Pd49UvrO+t1A+4d2gHV3EEVfqVQxhWPsKWf4/5H9mHoLzNxawO+4LzWEtxf/TqkvrEVz3T9DU+PmIUqYx7CyIEd0bCi9Tr2N3zy3BzsrtYbo+7tgPhZUzBzdWUMfuMRXG51RzJi/sbKj5/Gw0t7YMqmh9B91wfo034uBq5ZiLFVZ+OO/t+i6atvo9P+T3G41WBc3DgFPzw9E2GNr8SoB29At39F1DNcpsiTFO+77z5lhHFPXv369eHn56f2652tJCcnq1m/073c8sCBA+pKAF4P8Nlnn7mfFj08STQ8PBxBQUFKN+cC7HeTopyF9WNDUJBjBcTM8/SuIEf/dAzr6f2JzpbBwqMbho4nFjEMR0E8vS/IUZZJGLsSNgljx41/Pb0vyBGGMckHxssXOmJ6iquO6JecSzpi3ERH566OPL0vyJ2KjkzzgBQkh7934m860RHDE1Md0a+JHDpf6YgyfKUjUzm+1BHjZcthOFv2if7yO773lY7oTreO7DSbyOHgY58+ffDWW2+pwVX+/eGHH9QAhB6lUL6KP/ytDjw78S169USrCkk4cigJpSvUQeUjMQg/eBgJyHt/3FWtjIplSlrh05CVvR2h4Xm/ZvWgrd76fuw5NhjdLqiISjTAUBJlK1ZBVX93WP/KKF/WqjdVAOKHkqXLo7L7fe2QELTp0QXBCdux96Dby4kc+gFrKg5Ax8Zt0LiymQHFvKERcc8996jBIuYZT1JkXtKo9ZTPtnOiI34HpmH43RDTb47+7XKk6wjD6H6rlMH0EKbNkx9Pzi5HJmWCjrJOdzlyoiP6JSZh6Bi/otaRFf+8zC3IMXGenhfk6N80DJ2TMMTT86J0jJdTOcU174gv5DhNjxNHPD0vzDmJnxM5dL7Ku+Iqh85XYZzqyNQ5iRudaTj690XeeZNT0HtTOXROdOQtfp6cEzl0pnKcxI3OiRwnaXISNydyTnQ6+eJUjpO8c5IPTsI4SRNXG7Rt2xYPPPCAmuV5/fXXMXXqVAOj7B9KJcQhIssfZapVROUul6B/53JIXv0Tvl/8l2WUWURtwPzX78dVt7yOJTF8cAzJhw7hm4fewirk4ljuAXz16MtY07cnulUrj4p5STIi+2gKIrZuQWipINT1uIDnb3wxOx6N2zZCk4ZVUdpABldu8dqAt99+W82OXXfddahXr57q6HrKW0+OeHpemHPyzTmV40SWaRg603DEqRxPzwtypvGynZMwxNPzonZe5diJLipn4+ldYc40jKn/U3FOZPkqjC+dk/g5CePEiZw8ZxrOxtO7onQ2nt55c6bhTP07dTae3hXmTMOY+j8VV5gsp+88OVP/p+KcyHISxlfOV3ErKjnefsfb+4KcaTgbT++K0jmVQThKzuPw77//fnWJMZfjTZ48WS3/LBjuOtmGj2/pg0u6n4fzzrPcqLeR26sfLunYAoEVQnDJmAdx28UlsePt4ejL95ffiw/WlcJlo69DF7UqrgL8qzREn05bMPq8bji/+7V4ouR4fP3sFWgUUB6cQ/NOPP7+/RM8cEVeHC7sNwpPL6iI0R+Ox4V5kwMnkIG2PfqiU6O6qFJGzxrjKZR79+7FE088gUWLFmHixIkYM2YMqlevfnxGRccRT8+9ORtP7wpypv6dOqdybDy9O9POSbxsPL0ryJn6d+q8ynEVck089ydxz1VISIj7iXe4FppwpIICvEHxLGR0rIx0whCuHWYYe0REFx6Lyv1J3EemA9fxck08p8B15djpoX97OlQH5jf92xWLDtz7Eh8fr/Z26EId8fcpS1dHzG/mhS90xH0VXJdbsaJaJ+EVX+qIo5XuqWXtfEhNTUViYqJaP60L02PH7XTqKDs7W4Ux1RHXg7MR1N2LybymLDvvdPCljrg/ifv8TPZGnYqOTPZ1Md8YlnJMdMT7eLgnTnefnzcd8QQztgXjx49Xo9HEiY6YFtZ1pjqifliWTPY0F3cdcQ8H06Mry5uOPGHryF5io4NTHXHvC8NxzxXbWh6w8Pvvv2PJkiVuHydj2u451ZHdNzHVUWhoqPremRc6OGn36J/h7Hzgv/ltfPfdd/jf//6Hjh07qnJ3Uv3EC5fTIrBx3T6kWPmSvzNXrVEHNK5TDZVVFmUhKXwfDhyMQkIm/10alavXQ4MWjVAzNxw7Fn6C+x/cgYEzJqJlxmF6AOq0RY9m1VG6pJWG9Cjs3BqD0sGNUK9mFZRnUc9KQPi+aBwt6Y86QZWQFROGvaGxlpllUxJlyldHow5tULdcLo6lRmLTn4dRo3MH1Ct1GH//tQ8lgtujQWAVVOTKvsx4HNgTjQwrTJ2QQFTNW+13HObPjh071MmUsbGxGDVqFAYNGqT6ctQR6ybmnw5OdGSHsXWkA79R074JsS8LN9kva1qOGLd9+/ap6xcoj3fj6WDafyQss5TVsGFD7bwr7jpiv5uwH6SLt76JvnRBEARBEAThtMLOZIMGDTBixAgMHjwYW7ZsUQdWbNiwwe3DTQmrY1cxBJ1790bvSy7BJflchwa2MUbKwD+4JTpcaL/vga7tLWMsvz1bsizK1W3zz2+0rJlnjJHyddDyvA5oUsdtjJEy1RDcshVaNqsL/wpVUKthW3S3wyrXExddYBljPJurREn4VWI8u6B+lVIoVaEu2nTvgdbBbmOMlK2OBm1ao0Xjk40xDsQsX74czz//vOoIP/LII7jqqqvU1QG6RoEgFHfEIBMEQRAEQShG0CjjzNy1116LkSNHqtVKPIXxJKPsHIerF5YtW6Zmcrgig3vsLr74YrXSSRDOJcQgEwRBEARBKIZw+eeVV16J4cOHq+VVnCn7/vvv3W+LgDIBqNPxKtz7wq24UOOoeV/CvXOzZs1SF2dzaRhPVOzVq5f28lFBOJsQg0wQBEEQBKGYwj3VPBb/tttuU4bJBx98oIwyJycwnkSpSgho1BVXDOuDFsVo0on7lL/++mvMmzcPrVu3xp133okuXbqIMSacs4hBJgiCIAiCUIzhfiku1Rs7diwaN26sZo14aAqNMh6acC7Bwzt45P+vv/6KTp06KWOsa9eu7reCcG4iBpkgCIIgCEIxh7NDnC3i0r127drhiy++UKfjRUdHq+WMZzs8QfSvv/5Shib3yvXu3VudpsjT+QThXEcMMkEQBEEQhLMAGmUtW7ZUd5VxP9WMGTPw4YcfqutieOT32QqNsTVr1uCzzz5Td41x3xyNsUaNGrl9CMK5jRhkgiAIgiAIZwm8x4h3VE2YMEHdxcV9Vlzit337dnWn0tnGkSNH1H11n3zyiTpNksf9DxkyBAEB6tZqQfhPUMIqCAUuPuYFcLzQlqf86MJRDqJ7aRzXPnOqnc7kojmOBNkXwJlc5hYXF6cuHC5fnpdjeIfxYppMLqez08O06F5OR1iR2unRzQeG4WWcvABWFyc6Yl7zry90xEsfednj6dYR40b/p1tHvLCRDY7JJY9Mj/39nE4d8SJFhqEcEx2x0axatar2xazFXUfch8G7bmrUqOF+4h3Wj3bcTHXEfNDFqY5iYmJUh0Z3Ezzzm7IKKq8creYF9OPGjTt+Qa0THTEtzDtTHVE/LEsmF3EWdx1xqRnToyuLcaMrSEeeoH/qyRc64hHlDFetWjV1Qt706dPxxx9/KIOhIIq7jpgO1t3MCx1ORUcmcbN1xDA0ZObOnYu2bdtizJgx6q/JpdlnEn4zvDicM31Mz4033qgOMDGJPy8hZz9V9/v2lY7o37TdI7wEn2F5mIsupu0ev5/9+/erb4f9fP7VwbT/SCiLOuIl+Cb5XZx1xH43YT9IF286KhEREVGgQcYKLC0tzei+B2YIKUjgiVBRdIT+dRXMTLQzXjcMYeFnB0W3k8K4MU0mchgvGxMFM7/tfNOVxQ+JnRRu+NXFlzpiOF05NtQRK2PdxlZ05Hsd0cAsV66cT3Rkkh7iREfsCNBxIEAXpseWoSMnv45MvjmnOmKjznt72ADoQDl0BemIhwnQEONJb2xYiRMd2d+CEx2xLHFATRfTb8GpjkzLqw11xPQwz3XwpiNP+FJH7HAwz5kmDgjwlLy1a9di5syZbh8nU9x1xI4X64XiqiM7XjwAg3d1cW/ZsGHD1CEYJvXZmYCDr4z3559/ruqWa665Ri3HZPtvoqOkpCTVT9X9Hs6EjkzSw/4Cw+oOShMn5SgsLEztQ0xISMA777zjflM4TsoRZbEcmeqI4Uzk+FJH9gmnRamjElZk8mo2D/Cj4Eh4SEiI+4l32GgSdtR0EmdnBh2NJN0MYcIYxtSqpZXOj0K3oqKC2ciwgtCVY6eH/nU7Q4T5Tf8mHwYNZt5cz5FrXagj/j5l6eqI+c288IWOuBaeI0O6HS9f6oiFkHnAcLr5wJF9jkAFBQW5n3iH6bHjdjp1xA4uw5jqiEcSc2SfHX4dmNeUZeedDr7UEQcB2Dm2Z350OBUdmYz+Mt8YlnJMdHTw4EE1c07DWQdvOrr++utVWzB+/Hh1YS1xoiOmhXWdqY6oH5Yl2xjUobjr6MCBAyo9urK86cgTto7YrtDp4FRH7HQxHGcr2NbycAYuReMMSEGYtntOdWT3TUx1FBoaqr535oUOTto9+mc4Ox90sHXEPGC+0fEC5ZdfflnJve+++3DRRRepvo5Jen0FjTHeMUbHGb17770XzZo1U+90+482nOlh3cT808GJjuwwJjriN2raNyE0kCjLZFWNaTli3Pbt26eMeMr78ssv3W8Kx7T/SPitUhYPZ9HNu+KuI/a7icmKDW99k+JXSgVBEARBEAQjLrnkErX0jMuo2NFesGCB6myz01mc4DJQ7nnjzNjgwYMxceJEtGnTxv1WEP6biEEmCIIgCIJwDsBZiEmTJqmZ19dee03tLbNnXM4knCWhYciZsWeeeUbtGbvllltw8803G816C8K5ihhkgiAIgiAI5wg0yrgnqG/fvmoWirNmERERZ8wos40xLnW/++67jy+tvOOOO4wOJBOEcxkxyARBEARBEM4huAf76aefxnXXXacOV+ESRu7r8/XyRRpjNAQpm4d2cL/Xp59+qpZX6u5BFoT/AmKQCYIgCIIgnGPQ4OEhPLyvbPny5XjooYewYcMG91vfwENoVq1ahd69e6tDF7799lv06NHD6EAWQfgvIAaZIAiCIAjCOQZPcuNpc8OHD8cLL7ygTsF88cUX1VUEvoAn//GUTd5h2L17d/z444/qtGHdkwAF4b+EGGSCIAiCIAjnKJyN6tmzJx555BF17DZnzb766iv329MDjwX/6KOPcOutt6rZsbfeektdzyPGmCB4RgwyQRAEQRCEcxjeR9itWze1fJFHzH/88cfqnjje7VfU8Fj7Dz/8EJ999hkeeOABvPTSS+q+JjHGBKFgxCATBEEQBEE4x6FR1qRJE4wcOVLNmNFgevXVV4vUKPv777/x3HPPYeHChRg9erSSFRgY6H4rCEJBiEEmCIIgCILwH6BUqVLKKONSQp7AuHTpUrWvLCwszO3DGTy8g3vTeAfanj171LLIYcOGoVq1am4fgiAURomMjAyX+79PIjMzE3FxcahXr577iXd4pCqnpHWnpXkkqv3XNBydn5+ZTRkTE4NKlSqpI2F1cCLHDkNMwpnmHUlPT0diYiLq1q3rfuIdJzqy0+MknKmOoqOjUaVKFe0jcZ3IscOQ062jtLQ0tZna5PLL4q4jHmEcEBCA8uXLu58UjhM5dhiT9BAnOuII8dGjR1G7dm33E++cio6c5IOpjiIjI1GjRg3t08y8yRkxYgRCQkLUPUJ2m2CHcZIPJmEI9cOyZHJvka90RDnEVEe8G4rp4b4eHez4Ofl+nOSDSRiSkpKi+g01a9ZUy9amTp2KlStX4ueff3b7OBlf6sg0PYR3Z3GGp3Tp0u4nhWPHz1c6Mv3m2BbReKKhxLaWupk3b546bIMXNtevX9/tU5+srCz89ttv6s4znqQ4ZMgQdQca+1m+0BGNSdZJNDZ1cJJ3dhhf6CgpKUnlhYkx66QcHThwQC0tZT+fy1d1cKIjyqKO7D2EOjjJOzuMaT6YyiHsdxP2g3TxlndWHPxURDw5O6CndwU5W5BJOFP/dE7k0Jn6pzOVQ7+nIsc0rBP/tixP7z05p/FyGs7T88KcL9JDZ8txEtbE8fdtWZ7ee3JO4mWHcRLO0/PCnNP0mMqy5ZiGc+LfVI6pfzoncuhMw9CvnXeFvT/xme3yP/fmiGm44izHDuMknKfnBTn6t9Pk6b0nZ/s3leU03In+Sf5/n+iIqRyn8bJleXpfkPOFHNu/qSyn4ehovHAgl8YTT0Gk4cl7y2hAm0Dj4fvvv8cHH3ygfvOuu+5Cv3791MC3abzonzgJ5+l5Qc6JHFP/tnMazjSMLcc0TcTTu4Icf5+Yxs+Jf9t5eu/JOYkXnZNwpnGjs+UUFK6EZbHlDTV5gEeWHj58WI2K6sKRF8KCSaHeoGXKSwNpOXIESicMYRiOxDAME6ILR/Y5+8LKQgfGi6M/HMHUlWOnh2nRHbEhHFnk6IHJxleOGPM0I4486ML02HHT1RHzmn9NdMQwzAfKMdERR/b9/f21ZzGd6oiO/k10xDJhf3O6+cDZF46mcARSl+KuIzbe3KStO4tJGawbTMqrrSO7TOjiREecfeHovslMM3VEGbrlNb+OdGdEiFMdHTx4UM2+cN+IDsxryipIR1x+xHqGS5HsGTInOmL6WdeZ6oj6YVkymWk2rVOd6ojfNsOY6ogj1EyP7iymNx15wpc64uwLyx9nmtnWctR9xYoVWLx4sdvHyfhSR4RyTHQUGhqqvnddWb7WEePFfNPVEdsi5kX+mWaWLS5d5B1hNLBomJ1//vle40+/P/zwg5ph43fMJZAXXHCBSgPTQ5gPupj2H2142TT7qQyngxMd0b9pPeykb0ISEhJUHDnTrItpOWLc9u3bpwxpyvviiy/cbwrHtG9C+K1SVsOGDbW/byf57Usdsd9N2A/SxVvfxI8Pi9LZeHpXmDMNY+r/VJwTWb4K40vnJH5OwjhxIifPmYaz8fSuKJ2Np3fenGk4U/9OnY2nd4U50zCm/k/FFSbL6TtPztT/qTgnspyE8ZXzVdyKSo633/H2viBnGs7G07uidE5lOAnnJIwnV7VqVVx++eUYM2aMGrCeOHEiZs6cqTr5BUFDlUsU58yZg0aNGqmwNMZONBDzy/HmbDy9K0rnVIaNp3cFOVP/Tp1TOTae3p1p5yReNp7eFeRM/Tt13uTom4OCIAiCIAjCOQf3A/PyZh6Lz5mMyZMn47vvvlOzJ5xFyA8P7Zg2bZqa/ezatStuvvlmtGvXTnsWURCEkxGDTBAEQRAE4T8ODarzzjsPjz/+ODp37qwOZeGyUx6GZhtl69evV8flb9q0SV34fPvtt6t7zQRBODXEIBMEQRAEQRDU/hbud3700UfVEkQuSeTyRd4vxhmxjz76CHv37sWgQYMwdOhQo323giAUjBhkgiAIgiAIgoL7WXiAzyOPPIKBAweqS57ff/99vPnmm+qIdF72zAM8xBgThKJDDDJBEARBEAThX/CkY+4pu+aaa/DXX3+pfWY81v7SSy9F5cqV3b4EQSgKxCATBEEQBEEQToJXm4wePVotYXzhhRfUvjHda4MEQdBHDDJBEARBEAShQHgsPk9f1L3rSxAEM8QgEwRBEARBEARBOEP48QbtonQ2nt4VpfOFDNv5Spav5PjS+SpNIseZs/H0riidjad3Re18KYd4eleUzhcybOcrWb6SQ+dLWb5wvkpPUcnx9jve3heVs/H0riidL2TYzleyfCmHeHpXlM4XMmznK1m+kuNL56s0FRc5JbKysvJ8eYC3tPNEnXr16rmfeCc3N1f95dGpPKnHG4wE77fg35IlS2qFIQxDZxKG8D4Nrn/mZlUdGC+myUnc6J/hdMnJyTmeb7qy0tPTkZiYaHTakRMd2WFM84FhdeXYREdHo0qVKmrtug7FXUdpaWlITk5GnTp13E+8U9x1dOjQIQQEBKhN3jqcio4YNzpdnOgoNTUVR48eRe3atd1PvMP02DJ05OTXkcmyH6c6ioyMRI0aNVC2bFn3k8Kx87sgHQ0fPlydvHbvvfcebxOc6MjOB1MdUT8sS7Vq1XI/8Y7pt+BUR3YYUx1FRESo9OheqOtNR55g3Ozv53TrKCUlRfUbatasiaioKHWPFY9K5yl9BVHcdRQeHo7AwECULl3a/aRwfK0jyiG6stgWZWdnq7pBl+Kuo7CwMFUn6co6EzoySU9SUpKKX7Vq1dxPvONER/v378eHH36I+Ph4VVZ1cKIjyqKO2H7Y36s3mH47v4ujjtjvJuwH6eJNR372h1mQI56eF+SYOMK/nt57cjae3hXknMiho3/TMKZynMbNDuNElqd3BTkn8bPx9K4gZ6fFRA6dkzDEJAz9moahs8M4keXpXUHOSfxsPL0ryNlpMZFDR053GPo1DUNnhzGVZSrHDmMSzsbTu4KcEzl0TuSQguTY7z09cxI3hjEN5ws5Np7eFeRsGabxc+KfmISzMZVlhzEJd6J//jfJ7+dER0zl2Hh6V5Cz42Iih86Jf1M5Nqay7DAm4Uz90zmRY+PpXUGOv0+cxM/T84KcEzk2TuJmGob+ncoxCWdjEoZ+TcPQmYahX9t5eu/J2ZzuuNGZxo3OllNQuBLW/+TlrgcyMjJw+PBhhISEuJ94hyMvhCMVOtYmI0brlI6jhCaWMK1NjlrpWsKEI/ucfdE9JYiZlJWVpeKmK8dOD/2bjA5xZJFWuomlzhFjjm5w5EEXpoe/b6Ij5jXzwkRHdhjKMdERR/b9/f21ZzF9qSOWCfub080Hzr5wNIWXbepS3HXEUePq1atrz2JSBusGk/LqSx1x9oWj+yYzzdQRZeiW1/w60p21Ik51dPDgQTX7Uq5cOfeTwmFeU1ZBOrr++utVWzB+/PjjM2ROdMR8YF1nqiPqh2XJZKbZtE51qiN+2wxrqqMDBw6o9OjK8qYjT9g6svNBB6c64uwLyx9nmtnWTpkyBb///juWLFni9nEyvtQRoRwTHYWGhqrvnfWqDk51xDD8fkx1ZNf3ujpiW8S8MJlpNtURdcM0MY66+UZM+482nOlh3aRbBznREf0znImOmA+mfROSkJCgZHGmWRcnOtq3b5+6X47yvvzyS/ebwjHtmxB+B5TFQ2F0884u45RTHHXEfjdhP0gXb30TPz4sSmfj6V1ROl/IsJ2vZPlKji+dr9Ikcpw5G0/vitLZeHpX1M6Xcoind0XpfCHDdr6S5Ss5dL6U5Qvnq/Sci3KIp3dF6Xwhw3a+kuVLOcTTu6J0vpBhO1/J8iaHg6hcOrxu3TqP721H42nVqlX45ptv1IC/Jz++ct7SVFSuuMjRNwcFQRAEQRAEQTir4OoP7s8fM2YMbrrpJqxcudL9Jg/OsC1fvhzXXnstBg8ejEaNGhnNbgqnjhhkgiAIgiAIgnCOwmV8bdu2RdOmTTF37lx12fe4cePUcs/du3dj5MiRuPHGG9Xy4i5duqBJkyYqjOA7xCATBEEQBEEQhHOYNm3aoFevXuq/aYhxaSJPQd26dSv+97//qf37nCl78MEHUblyZbWMTvAdYpAJgiAIgiAIwjkMr6k5//zz0a9fP7VXjHvEeMQ+/x45ckQtUezTpw+6du0qs2NnADHIBEEQBEEQBOEcp0WLFrjssstOOiGZpw3SIJswYYI64Vpmx3yPGGSCIAiCIAiCcI7DK5+4R+ySSy5xP8mDV0h0794dF110kRhjZwgxyARBEARBEAThPwAP9rjqqqv+ddcr94yNHTtWGWxikJ0ZxCATBEEQBEEQhP8AVapUQefOndGjRw9lfJUrV079u3fv3m4fwplADDJBEARBEARB+I/QsGFDdecYjbFq1arhlltuQdWqVd1vhTNBiaysLJf7v08iIyMDcXFxCAoKcj/xTm5urvrr5+enNe3Jk15spxuGcAMiXcmSJY2mV3kxHqdm80/VFgbjxTSZyGG8GI7+mSZdcnJyjueBrqz09HQkJCSgXr167ifecaIjpomY6shUryQqKkpVDCduOi2I4q4jnmCUnJyMOnXquJ94p7jriMfjshLnqU06FHcdpaamqlOmAgMD3U+8w/TYMnTk5NcR80EXpzqKiIhAjRo1VIOrA+XQFaSj4cOHIyQkBPfcc8/x+saJjuxvwVRH1A/LUu3atd1PvGP6LTjVkWl5tQkPD1fp0b2A1ZuOPOFLHaWkpKh+Q61atVQ9PnXqVHWs9sKFC90+Tqa46+jgwYOq7i5durT7SeH4Wkd2HujKYluUnZ2t6gZdiruODhw4oPqpuicDnoqOTOKWX0cm6eHJhwxXvXp19xPvONHRtm3b8OSTTypZX331Ffz9/d1vC8aJjiiLOmL7ofs9OMlvX+qI/W7CfpAu3nRUwqo8CzTIeB8BDTKTzj4zpCBhnmBm2H9Nw9kZb0JMTIxaI2tikJnKscMQk3CmeUdokCUmJqpb2HVxoiM7PU7CmeqIRjOn1E0MMlM5dhhyunXkxCAr7jo6dOgQAgICjAwyUzl2GJP0kMLybtOmTaoRogGWn6ysLFXfcbDmXIHfHOu5ojq+eNq0aarxufjii7Ua7qKG+qGezkYdccN8p06d0L59e/eTPGg003jRNch8VY6chCE0yKinmjVrKoOM38wff/yBn3/+2e3jZE6lrjvddTeh0cyBGl2DzI6fr3RkWnc7MciKu45o8FNPDH8uwH4d06LbT3UKv4W//vpLGYCDBg1yPy16+C2wn8p2w/R7La6wX0db4oILLlAXbuvg7fsuYVmGeaXGAxzpio2NRXBwsPuJd1jQCTsBOoWKiqJ1yr+6YQjD0DGMiYLZkWRnnxmpAzOQaWJlrCuH8WI4+jcZHWJDZqdHNx/4UdBSN5nFdKIjWvbEFzri7AsLrm5lVNx1xM4/KzyTgQ2mh7+vO2rjVEcMw7CUY6IjdiTZOdc1mouLjl599VXMmjVLdYBNRrYEwSks/2x3uGH+gQcecD/NIywsTHX2abDp4KROdVKOWCfQ+DWt69jBY7+Bs35Msz1DtmjRIrePk6EcO26mdZ2ukUSc1nUc2eeAp67RfCo6MombrSPmAfNNV0dsixiOAwG6mOqIaWGaiImOTPsmNo8++ihmzJiBxo0baw8SCsKpEB8fr77xm2++Wa0a0cFb/7GEVagLNcgOHz6sphl1YcEldiXhDYq3KzBWeLqFkJUrw5h08IgTg4yZyAbTpHKlo39mvi7Mb/rXrfQIDTJ+GCZGM3XE39et9Kgj5jfzwhc6cmKQ+UpHHLliHjCcbj6wQ8bRIROjmemx43Y6dcQGkGFMdcTRSC6n0DXImNeUZeedDqdDR5MmTcLGjRtxxRVXqE3MgnC6odH12muvYeDAgScZZOzsc+bcxCBzWo7YrtDpwPqE7ZFpXXeiQTZlyhT8/vvvWLJkidvHyZi2e/nrOt18I3bfhLJ0846EhoaqwTTmhQ5O2j36Zzg7H3SwdcQ8YL7p6ohtEb8hE4PMVEfUDdPEOOrmGzHtP9o8/PDDWLlyJZ599lmjlSiC4JS1a9di8eLF6pqAe++91/20cLz1H8Ug84IvO/umlR4Rg0wMMuJUR/9Fg2zPnj0YNWqUOmFKEE43u3fvxvjx49GnTx8xyDxg2u7lr+vEIBODjNAg40AbvzeT/qogOGXp0qVqVrZDhw5FZpDp10qCIAiCIAiCIAhCkSIGmSAIgiAIgiAIwhlCDDJBEARBEARBEIQzhBhkgiAIgiAIgiAIZwgxyARBEARBEARBEM4QYpAJgiAIgiAIgiCcIcQgEwRBEARBEARBOEOIQSYIgiAIgiAIgnCGEINMEARBEARBEAThDFHi4MGDLvd/nwRvjufN0pUrV3Y/8Q5vZye6t/vzJnc6Qv+6t7PzJng63ZvjbVJTU9VN2bwJXgfGjWkykcN42eje1E+Y33a+6cpiGN6iX6lSJfcT7/hSRwynK8fm6NGjKFu27Dmjo+zsbGRmZp5zOipXrhxKlSrlflI4p6Ijk/SQwnT04YcfIioqCqNHj0aPHj3cTwXh9LF7927cc8896Nq1K8aMGeN+mkdKSgoqVqyoyoUOLBN0p7sc2eXVtK5jPcdwFSpUQExMDL755husXbsWM2bMcPs4GdM6NX9dx3C6mNapNsVdR3a8dMPl15EuxV1Hb775JrZs2YKpU6ciJCTE/VQQTh9Lly7FF198gSZNmuCWW25xPy0cb+WoRFpaWl6p8QALbkJCAurUqeN+4h12Pgk7aroFl4WQFRI74LqFkGGYOIYxKfCHDx9WHWPdyojxysrKUkacrhw7PUyLboeVML9ZuZpU5DTGkpKSEBgY6H7iHabHjpuujpjX/GuiI4ZhPlCOiY7YkFepUgXly5d3Pykcpzqio38THTG/7W9ONx84qMFGvXbt2u4n3inuOoqOjoa/v78yynSgDNYNJuXV1pFdJnQpTEdvvPEGQkNDcfPNN4tBJvgEGmT33nsvevbsifHjx7uf5hEZGYmaNWuquksHlgfTds9JOWI9wvbItK47cuSIClejRg018MEOy8qVK/HTTz+5fZyMabuXv67TzTdi900ox6Sui4iIUHU380IHX+uIecB809UR2yLmRfXq1d1PvGOqI9b3TA/RzTdi2n+0efrpp7Fx40YxyASfQYPsq6++Qps2bTBu3Dj308Lx1n8sYRXqAg0yBqYBY/KBsyNJKFSnQFG8XRnZFYsOrPAYxqTSI4cOHVKdfd3ZClYsrIw4Y2NaudK/aWef/nUrPWIZ1IiPj0dwcLD7iXecdvaZF77QETsp7OxzVFIHX+qIxhXzgOF084GzsomJiQgKCnI/8Q7TY8ftdOqIDSDDmOooPDxcNei6AxvMa8qy806H06GjSZMmYc+ePRg1apQYZIJPoEFGQ6xPnz544IEH3E/zOHDggBrwZN2lw6mUI9POPtsj07ouOTlZhaMBw7Z2ypQp+P3337FkyRK3j5Mxbffy13W6+Ubsvgll6eYd4QBOvXr1VF7o4KTdo3+Gs/NBB1tHzAPmm66O2BbxG6pVq5b7iXdMdUTdME2Mo26+EdP+o83DDz+sDDJ+b2KQCb6ABhln/jt06KAG3HTw1n/Ur5UEQRAEQRAEQRCEIkUMMkEQBEEQBEEQhDOEGGSCIAiCIAiCIAhnCDHIBEEQBEEQBEEQzhBikAmCIAiCIAiCIJwhxCATBEEQBEEQBEE4Q4hBJgiCIAiCIAiCcIYQg0wQBEEQBEEQBOEMIQaZIAiCIAiCIAjCGaLkU0899SxvU/fkeJt7amoqKleu7PG9J8cb2m08vT/R0T8d/5s3V5/4viDnJAzdkSNH1C3wdJ7ee3KUxZu1Pb3z5Oy42Zz4viDHm+1N5NBRR7z9u1KlSh7fe3L543fiO0+O/p3kt5MwdCkpKeo281KlSnl8f6Kz42eqIzobT348OerIND1ZWVnIyMgw0pEtRzdudnr436Y6Ik50VK5cOZQsWdLj+xOdHb8zraM//vgDiYmJ6nb9+vXru3/51MlKikRo+GEkZlt5mXEYUeHRSPErh9Lp0di7cRt2h4cj3KPLQNlaVVCuVEkZHTtHiY+Px6JFi9CgQQN069btX99jcnIyKlSooF0uWB7416S8sjyYliO77JnWC6zn2CYxTawjNm3ahLCwMIwYMcKjfzqnceN/+6KuS0pKUnW3bjgncaOO+JdhyInvPTk7H0z7DOwvUF758uU9vvfk7Lwjnt57ck7ywYkcul9++QXR0dEYNGgQqlat6v4FDbJTkRK9F+u37v6nTo6IRGbFIASUK2HF3e1PEE4gNDQUW7ZsQe3atdG1a1eP3+WJrrC+CV0Jq3D+YzmcQGZmpmpM6tat637iHf6ojV25FEZ+/0QnDDGVYxMTE6Mq14oVK7qfFI4TOU7j5iQcG0B2MOvUqeN+4h1TOfn9k9OdD6xYq1Spohp1HZzIcRo3J+HS0tJU5yQwMND9xDumcvL7J6c7H6KiohAQEKCMMh2cyHEat8LCvfHGG9i/fz9uvvlm9OjRw/301Ild/gaemr4bfucPxOCAtfjpx79RdcTjuM41D89c+xpW1WuEWvmrHMbxaBR2HByAT/a8jiGNaqKK+5VwamTGh2J/cnmr3SqHjMgYZFesg2rVrfqktNuDj9m9ezfuu+8+9OzZE+PHj3c/zSMyMhI1a9ZUA1A6+Koc5Q9DdMNxwJP9hho1aqg6Ytq0aVi5ciXmz5/v9nEypvFzkh7iNFxERITqdHEQV4dTzW8nYYhuOLZFNJqrV6/ufuId0/g5zWun4Z566ill/E+ZMgUhISHup4WTnZaEhL9XYPn3M/HEj9uRVz1bBm6pHJx36ze4o08gWjapgfIyWCZ4YOnSpfjqq6/Qpk0b3HXXXe6nhePt+y5hWWz/LtX5YGc/NjYWwcHB7ifeYUEnnN3QLbj26JBuGMIwdAzDESJdDh06pDr7NMp04IgN08TKWFcO42WPXHEGQRc2ZHZ6dPOBnf2EhAQEBQW5n3jHiY5ycnLUf/tCR+yk+Pv7axvNxV1HnGXmKGu9evXcT7zD9PD3GbfTqSOGYVjKMdEROynVqlXTNpqLi45effVV7N27F6NGjSpSgyz+97ctg2wX0GWAMsh+/mk3/Ec+gWtzvsfkR5ch5KPf8MSFbs/EdQxYci9qXZ+NVza+IAZZERI+63aMWNgOTz7bDLseewvRFz6C64f1Rrtabg8+hgYZDbHevXvjgQcecD/Ng7NHHKgpW7as+0nhOKlTnZQj1gmc2Tet6zjjx34DDRi2tVOnTsWKFSvUDGFBUI4dN9O6TtdIIk7rugMHDqhBaV2j+VR0ZBI3W0fMA+abro7YFjFcrVr6BcJUR0wL00RMdGTaN7F59NFHsXHjRm2D7FhWKvav/hZT3nwba8uOw6TZd6CLepOFrLTlmNjmdnxeazg+m/Uw+oQEoHxJ/bgI/w1okM2YMQPt27fHPffc435aON76j9ZzP/WyIMdAnp4X5OjfNAydOzLazqkcJ840bnRO4uc0TU7keHruzZnmg9P0OHGmcaNzEj8ncuicyHGSd8TT84IcZZiGoTONG/07SY+TcIWlh791Oqhesw4CqtdCyRIllavuXxVBgTXdbzXJyUBKQjxiDx/GYbeLSzqCtCyrY3MsGxlHU5CUkIiUlET3+zjrfTryuqaEY2s5SEuM/ec3klKRlWMvA8pG+pEkxNvvjrtYxCceQUZOrhWFo0iMT0b6Pz9aOLmZSE1O+Fec6eISk5HGvtWxXGSnH/Eg8zCSM47h2PHhwBxkpCQgPtZ+n4CUtMx8actFlvU7iSf8RmxcEtL+Fdcc1Oj/Er57/Xp0qNQR17/3NR4bcxFas++p4pqMlCPpYJYqjuVYHbAjSFLpdz87TRT0PXp6Xpgr6LcKc76Sc6Kzy5und7bz9r4gZxqOOMkH0zD07zS/TcMRT88Lc07j5um5N+fLvNPnGJJ3/YIFP/yMP1u+iOnHjTFSBmUqXIoX9/+Gl2p+ilc/34TIpDSkJccj7oS6Rzmr/kk5moZUq25OTjqKTNYrudnISk2y3rN+TrOM2VQkWPVZamryP+Hij1r1zTFVYyM3A0cSk3AkNRPZ/6zY/Ae7jkqw6tTMDByNzyc/v+NvZqYh2WojjqRn459qPx1HkxKRmGLFRdV7x5CTmYqUODtsLOKssJnKswdy0pEcH5evjrfaoPQs5ORmqfYkf77ExlvvMijEMshzrLjke/ePi8dRK6NyPbR3dAnJqXl1sdXmZaa662a7vnZZv5t5FAmxiared6kMzEH6CW1eZrY7gKrzE/PJiLfyId1qCa3fsfLliJ2XsVb6jhSYA4Vi8r0ST8+PO+VDEARBcE6NQDRo2QLt6zRB4xpt0bxVEwTVdr/TwjJcwubgqcG90K5+A7XfqH5wPXQdORFfrE3AsZStWPzO47j9kmEYP2EkQhrUR/2W56P7nTOwV7WyXIN+DNkZf+Oz4W3Qvll96zfqI+iW9/HLjsNW48yWawfmPjwCfevWQ1BInowG9UMQHNQWvYe+gJ8PRGLX/Em4ods4zIxQkfJO7DJMvnMgOtULQog73g3qB+PioXfj8w3ZVl8jAn/Pfwp9Ausi6Ph7K24hdXH3nDgkZFjxVh2EUMx99Er0act4M+3X4oEPl2OPZSTm9SsisGH2RAyrUw/B/B3rN0KCm6JVp9swPZzvmT6mfxemjOqITs3dvxN0E15bvA2Hcq3OT9zv+OTee/HgM99gXRLDWBzdhT8+fxajr34G86LdzwRBOHdxJSPywE4kJJXAwCEDcPKGHHaLG2L0vSOx74OvsTxuB7568FJc3DavbqtXpw7q1gvOq++6j8aTH3yGLyY9hrG3vYNfYo/hWOx2/PHOjajXshsuGvM5tq5/F1cHD8DkyQ+hcdPGqM96uZ9V3+6OQRrr5eiFePmG2/Hk5F+wPSUvBv8idR/+/Op5jLp8Aj5ZsQSvDsir/+qH1EOd2nVQL8T6b8blyjexfPUnuKfPTXjxm004kMbAluGxcw6eHX0jhj0+A6sTrdo2JwE7f/kAE3qF5NWR9Tvi/J6TsCyDZooHDn2LB/p0RYugEHcdfwOembEGBw7/gemPD0c3d1tSPyQYbS65Do/9GGG1ZimI2fUlxtUORF27raGrH2TF+TK8uDwcsQe+xxMDuqNVkDsv+T4kCJff9Rp+/DsHx47swLIPnsLtw17CArtuzkpAzKq3cW3zEfg8LK/tyKvzO7nr/PoIvult/Lwl2jIYrdTE/45P7xuMLlb7pNqNBv0w8sFvsTU3GfvXTMdjlzAPrPxr3RkdnlmqBj8583ymEINMEAThVKlxMW69cRhGD2iCkF7XYOiYB3GZkUG2Gm/d9DLSL30d8/cdxdGjRxH684vom74Pv/9vFXYpP7HYvHkfth++HMuPxmLf769icMxz6PfM79Y7y+DI3YOPLu+CJ+q8jT/2xFq/sRPTqs/ChElTMH/LYfULpOtNL+LbzXkyjh5agx9eGoam7nfOaIgBD0zFsnD3b+5chEfbl8esVz/HBvW+EgKbXo8PtrvfpyTh6Nzb8NPYp7AwPgmpCMfscdfimeSr8Pyi0Ly0/9QPOVvm4ZPp65GgfoPUQJu+D2Dmbus34vZgy5z70N79Js8g249PB3bDE9Vfwv8sI5S/s2t6Pfw27WvM/XUPjuR5FAThv0xyGMJ2RGF7VBMEFbb1vmFTdCy1D9HhtTHo3fXYFmXVO3tm4qF+12DsxG+xMtL6999z8Pat3ayaySYGOzbOwzezkvH0D7ux48sRCEE2MrM24LHHSmBaxGEkHN2GDxvOwr2T5uKv/fbIkA7lUavZlXh2lSU3OQYxK1/AeX7d8NK6BMSmWM9WPonLGlbHvxc/x+K3xYuwce1W97+TsP3nj/Ha+z8j9s4Vqo6M37cYk4esw603fIEDbl8n0wq3ffIbtsZYco4uwBu3BuCvNz/AhoTz8NJGPjuK6A0/4JnOflj12VysdYeqWDMY98zLe6/c1rdwZWBVKyU2LTDqnSXYGO1+v2E6+h2LwrfT52Gn20fBuOv8qy6w6vwXsWR7jPUbf2N68E946o3PMGejbcXVR7+7PsL/wijjT/z00SBU+n0G3nj+Y/w1fKn1LAGRGz7HHetHotaDS91hzgxikAmCIJwqatlCnlPLbvy4/Mb9TofwIAyZ9xtefqgPOgTmLV+o1boj2ja0Gq8ELs3L89bwwk4Y9ujtVkNcEYENu2H0hJvQaMYH+Gx3Jo79bzKeXHMD3nuuP2pXr2j9RgiG3HgN6v19EH+FReNQ3k8cj98/SyWsf7vfOaVEiX9+74hlcMUejrTay39GGinBfk9hoft24ph7jwn++BKTV3bFTaMGokvbWspPrd79cWlANNJ+X4qVu/O8Af6oVCkEQfXcsiyZx+OdmwMseRfPrBmC15+6AvVqV1J+ggYPx1UZv2Hn8i3YbkVJEASBsO4otI5u1BjNS25F5MFMZGX/U7/lr8uUy/cbMZtW4cev52BztzEYfgHf5dWtpcqVxahv30b/8uVQzq8hRr74GC5evwhLNkXgYHpeWC3y1bOqvWFsTohL/iTF/DIFe0r5o2LTi6F2sB/YhHW/hiOi6vV49PZOKkz5wLpoO/gq9F/9Cj5apoJ5wJKVX3ZcTVz0gFXffvYYBjfPe1YlKAQtO7VGcFoYwt0rLJi//25r8tXZin/HPyH+MJKs9i5/21EgrPP/9y6eXXMtXnvycgQFVrZ+IxhX33A16u+PwpbQQ7AXeuRvn/yidmLb8u3YUGIYXhh/vvWsHAKqtcEtowch58uFWGL5P82r1wtEDDJBEIQzTZ0ghFSrjoCd0zBmcDd1AExwpxvw9KxViLIap7zmqQaqVm2C+vXLoiQbyPIVULlhXTRO34i/Q63XudnIbNcCzSuWRRnVS/BDmfoN0bzsYaRGp+DIUfUjXkjF4dDv8WC3eioO9eoFW+5BzEtMQ4bbx8kcxOLJd2Fg67wwLfo+ih+OdsBdL96IDup9KmL2z8UD7t8MCmmEC5/Kwl1zn8FlNasi4cAuHE2bh9eHX4KOIZRnpb3BZbj7s4VYZlmiUXEJQEoykmNjLaOSjar60X/BQwRCd29GRs4cPNy9LZoFB+X9TsNrMHHZRvxxKBrxKZwjC8eyTyZgcBt3+pr3xnVPzcbevJ8RBEHIw4+nK7ZCcF2rPvV6nsthbPp5Eh544lP82f51zHttMOqXcr9CKZT064BWrcujtBr88kPZxk3QrNQuxEQcseo++tmPH166Cf1auuulepdh9DM6s0SFsRVLI1uiUWB79GpYSnX2UxJjERP9G1b++BiubhSiZAUFt0KXS5/A3Mw0bNsXlhfUG9VqomatQARG/47PHxmY9zstLsHQJ7/FPq7W0LCn8tiNWY8MRs9meelue83HCG3cF7eOvRzN1Pt47PxtMm7r7M6Xhm3R6bp3sFm9s8jNQmab5mhWudw/bV5IAzQtF4eMaKvN8LQswnUMxyqXR9kmDdCwLJVk6aR0OVRs0hjts7Zjt9WWWs3JGUEMMkEQhDNNqc2YesMA9Br0ObK73YdP5y3Dsu/ewH0DOuKfs9AsM8yPjbv7nxx9LVXSau6z8jZwsz0qUxol8w/7liyF0iWsl8dc+Q7QKIzyqBbUBw/OsOQvW4al/1uEqbdswkM9nseCQ1xe6Ik6uPCGJzD5h7wwP302Hr3L78Ssd3/C3+p9eVQP6nv8N5f9shhf3lUSs+77ACsTjiA1NweuZsPw5KezsZDvlVuB1Rv+wqIPH8H1HaoAyUmIyzmKQw1r58uPf5PLU/TajsX73y/A/47/zh9Yt3kr5r0wAr0a8UTQQJw/9BG88737/fypeOPuy6B3ULYgCGc9la2OfdNaaFrrAKJi3M88sfJXzMtqhBohZVDWq0FWDS0vvhUP3j0YLbe/gnFv/45Y9xtVMZcoi9JW3/94zVyqlFVvW/WVVSnnGS9B6HP7y/iE9b5VL8196zJU2/ENXnziB8dG2favf0J65TKo3rY+yrmNw2M0RgJa4cLRr+G743Xkr/htxVqsXfc7Ph6ieX1Syf3432v3Ycglj2J+Yje8+G1eXfr2+MthdrtnfVwx4R1M+9md7reHoO7B1Zj7zQr38kl/NOpyAybOdsd18ff49o2RbmPNTdm8Nu943rLN87My1bKqCjQM/fwsI8xqS93/VCqydFLG0kmOfYDIGUAMMkEQhDPNpt/wfUZLXPbc83jk1ivRu0NzNK9eAcf8shHv9sLRwtTUg4ixW/rMLGRFpeBQ2f646Dzr32x9ti3FmoNZ/5wYGHMI+zOqoWz1iqiodUOBH0qVroLAxpb85pZr0RwXD74YNcM3YO/BTGTmnUp9AqVRqXpd1G+aF6ZDt87o0KIWSh7YiTAVV+s3y1RBnX/9Zl/UPbQee8OzEFCrPsrEhCHuWIDV+XH7cbvGwbURUKEUosL3IDopDE26tLXMv5PhMsyg+k3gt38HosqEILjRv3+nUd1qqFSWzW9pVAwIRIg7rs2bNkBw7apWQ1x84L2SPDKed3oJglDElAxAUMPmqOGXhB/em4Ut7sf/wNGtcMx+fwaqjRyMC2tWRWWvPeVSKFe5Blr3vARX9G4H14+T8d5Cew9TjmUbbEPoQTUulsehSIRlX4QWbaqhmj8flEHlmvXQwF0vdb6oM1qHlEP2/r2I+KcB0Cd2GTbktEPDBh3Qovo/1w5UruyPgFIlkRabiMxq/9SPeXVhEwQHaNaEe7didUxZ+I+8H089dTuu6WqFr1cTVf0yYLYyvCyqBoagoTvdXXqej9a1SyIzzDKWE/m+JMpWrI56dtvRrInVJlTPtwfNYvtyrAvLQLrdNsVE4UC6P0pVr4xKBbV5yTFI3LkRm22DPNsyxCIjsaNEI9QPYnvifu5jxCATBEE406QeRVJkGJLKVUfFypVRPnkdvp76LeYv3YUstxc27Ac3bsb8T+diBzKQcGgLfpz6HfZc2h99AkqjxHnX4c4Ga/Hh7DVIPsojfKOx9IdFOBgUhOYhNWG1c+ZYRl7czi0Iy60B/2olYbXlXimVnY2sjBJILhMAfw+Xq7GtK5d6BBGu2tZv+qFit2twfdMILJ85D2t2HULeCp7FmPzEY3j4vQXYkhyJA7tikHAwBOd1CvZoPJUoaXWIet6MOxqux+dvWvkTfyQv37Z/jYfveAAvfbsBoeqHiy/x8fHqotEHH3wQf/75J8qX/1e3QxCEIqEU/Jv1Rt9rLkfLqPfwzN35jbIsZKevwOs9r8UzB67A3bedj4b+XCKuR+mKIejUfRCG9iqNn979CHk2mQs5mUn49r7XsTrTqhtxCAve/hirm7VFa8u4qHF8aeM/pMXFICo6GanlqqJKZfdDbfbjx58jUbV+I7RqXgsV8kW+ZHAbdOjUCHUP/Q9fzvwjbxbvaBTC5r2EAYMfxw+61lRGOlJjIpGY44eS/rVQJXMf1i35Fh98vgomW+JOpHRmJo5ml0Fm+Sqo7O0aWj8rYeddj9sbbMDn361BfDIlx+DX+YsRWrs2mtUPRKCHvEXNhmjcoQXa5KzEFwu2WQ+ycPTIXvw4ezEyLr8EPctZX4gYZIIgCP9RWt6AW7tFY/0nd2PU1QMw4LqX8EtubbTpXBe1j8QiSR3G5Y96NWis/YDbB1yN6+59F3Or3oD3H+mJAL9S8Kt5Psa/Pwn9tr2AccMHYcCA4XhwV1uMvvVqXNqyNLbO/ArzV6chN6ghggtcmZKOxEPL8fZoKw4DLDdwEG58KQr9Xr4XvepWQQWPLUY01nw7CfcPc4e58QF8uTMNF464Bm3UkV/pSIjM95tXXoUBD32L1uPvQo9aVVA+oC1GPP0Erir/O6Y9NAKD6efmt7DqSA20bVkKe2a9i0lvTMPXy37AW+OuyfuNwTfitokzsCl2HT4b/yx+ivaDK+A83P3ey7gs/hM8c/O1GER/d0xFdO22aN86BDWK0zRYPmiIffHFFxg7dixeeOEFddoYL+3lBaKCIBQ9pSpWR9OeQ3D3/bejX7nFGMO6QrlBGHzd49jd+2m88vIDuLx5dZQvbdJNLouKQZ1xwTXXok+ZH/Dmh79YJgIHsppgQLfdePS6wVa9NAKPhnXH+LsHoEt9f+TNX0Xit2nP4p7r8uIxZOxH+BMtMPCWy9HCuN5KRb1W56FD0/qoXvGEOqRcINr2vwGjr2+HnLnjMYxpvuZW3Dt5O1oMGYyOarZOg5Be6HdeVZRa/zLuHsrfmIC3l8cjZEB3tMvcg783/IUfX/sCq8r0Qpd/jsL1QBgWT34YY4a48//W5/BHbg1cdHkvNPGW7hKWXqpZdf67Vp2/53VMuOlq6zeG4/6tTTHM+u8r2gXCsq1OpmwNNLv4Gtw+6iKU//oOpfNrbp2ITyvdhu+e7YtqlpczZI+hhKuQQ/d54z4vTdO5+dyGN7oT+/Z4b1C8fbM9b8LXCUN46z7DUA5PTtGFS0GqVKmCSpUquZ8UDjeL83btsmXLasux00P/Jo0q85v+dW/DJ2lpaapBDw4Odj/xDnXE39e9DZ86Yn4zL3yho8jISPj7+6NiRW9DJHn4Ukfp6ekqDxhONx9SU1PVMqSgoCD3E+8wPXbcTqeOsrOzVRhTHYWHh6N69eqoUEFrHZzKa8qy806H06GjSZMmYc+ePRg1ahR69Ojhfnq6SEfSoX3Yu+UwKnS+BK3y3xPNajd6E35YfQzt+rVFcKWySN75CzbsiUeSGmKshKDWDVA5PQlZOVVQq142Nk2fhpnLj6HXw0NRLTHaalgqoXKT83BFG/uHWZUfxd7f/oeth7ORxZU39TqgZ7sGCKxyDFHb1mP73ixUadEaLVsEQg28ZiUhav9+7IvyQ/0uTVElaRdWr9qDZL47TjW06dsLzQJK46S+Sfoh7Ny0A7vD4/916EelWvXRvH03NKmSauXBLqxZfeJvAg26Wx2AumVQRo3gpuLghlXYHpaAFLX0pCLqtmyLljUjsfCtmfhxsx/OG33hv/cnZKcgYddyfPRBMm5f9zPuamQ1aCWOYO/vS7EtJhOZamN2FTTq0hXNQ2qgSm40dm0+gJQytdGgVUPUpLGYnYyY0P3YE2H1Mbp1RIje52zE7t27MX78ePTp0wcPPPCA+ykQGxuL6dOnY/Xq1di5cyf2W3rgN/vSSy/h5ptvVu3UiZxKOWK7QqcD6xO2R6Z1XXJysgpXu3Zt1dZOmTIFv//+O5Ys4dllnjFt9/LXdazzdbH7JpSlm3ckNDRUHSjAvNDBSbtH/wxn54MOto6YB8w3XR2xLeI3RKNfF1MdUTdME+Oom2/EtP9o8/DDD2Pjxo3qezPpryIjGbEHtmDZZvsMWvbzS6LhhdeiU2CJf/br2qRFYMufYciu2QCNmtSDWuGXGY+Du0MRmVIB9Tu1Qt3y1qMjhxG2fQ12ZQShbZnFuKnvElyz8FXUjgmFH+v+kK64rH0w/CtY5lhaOLas2479Mcn5Lmcuj5oNmqNV++YILJmC2IP78ff+XAR374wG7BYdy0ZO0l78+r9I1LusN5pWsYw+xjU1FH/+sQ05wV3RomEgAjjJnhGDPVsPINGvBhq0boxa5bKQEm393sbNCFWrorkssC7a9uqOxp66xdZvrlsRjrLNW6NRUHVUdq+ATAn/Czt27kKYWlpYFgF166FuYDlk7I+BX5Pm8NvzJw5kN0G3ge0QqEJYHNmDFcsiEHDeeZasOOxYuw1h8UeRfyV8QP02aNmqNYLLJSJqX6iVLyURcl57BLNuzs1Eetxeq42KQ1DfnmhqxZd1/r4VS7E12l3n122HHm0boq6/ZY5l5NX5yVad39Cu8xXZSI0Px9/r/sRe3v1WqhzKNu6Gqzvo31WzdOlSzJgxAx06dMC9997rflo43vqPJaxKoFCDjI2GSWeflQoxqVxZeOlY4HULIQu7aRgSFRWFypUraxtkjB8rL5MKwk4P/etWroSVkZ0eXVlUcEJCgmowdHGiI7ty9YWO2JBXrVrVyCBjmkx1xPixYJxuHdFoTkpKQt26J19BWRD85hi3ggruiZyKjhhG91uwodFcrVo17WVVxUVHr776Kvbt2+cjg6wISdqIH9+3DLI1/hj+8XMYpP8pnd3Er8L0SQvwZ2or3Pb+cLRzP1ZkxiJy5ccYOXQ1rj1ukLnfFSNsg6xXr16YMGGCqq8XLlyoGvT169crQ4zfLL/zfv364amnnsL555/vDv1v7DLhpB42KUesE1gHmdZ1KSkpqt/Azj7r8alTp2LFihVYtGiR28fJnEpdx/pEF9N2zyYsLEzV3bqy7Px2oiPGjfmgg60jO166stgWMVzNmvlHiAqnuOvosccec2aQnW6yEhG3/iNc028prvnrF1VHGU24CcUW1t9cYt6+fXvcc8897qeF463/WCIzM7NAg4yj9Jx9MelIslIhBQk8ERZY2+kWdkI5pmFITEyMMsZ0O/uUYTdmpnGjf4bThRUYw9hOBzZ+HPGqU0fzdBwLJzqyw/hCR9HR0Wp0WHf2pbjriAYZOyqBgcfHibxiKsfXOuLARkBAAMqV87go4CSKi45ef/111QEWg+wsgTNw6w8gOrs62lzSHP/qQuam4+ihLVj0cxSaDLsa7asWX4OMI6gcSW3WrJmaMdq0aRO2b99+/Bsn7LgOHz4cffv2VSsEPGGXI5MBCvonnspDQTgpr4R1HTvvHFCj4clOCwdvFixY4PZxMqdS153ufCARERFqxk/XsKAcxvF013X5dUR0ZbEtoo64wkGX4q6jJ598UgwywafYBlm7du1w1113uZ8WjrdyVMIqmIXOkMXFxRktteIIBwXpVkYsuHbhNRkVoX/TMISdfc6QmRhkTJPJaBfjxXDEpDJiJWmnR1eW0xky/r6Jjuw0meQ3Pz7TMISdfTboJgaZEx3R0f/p1hE7KVzKY2I0F3cdOZkhoywnOmIe2J0OHQrT0WuvvXZ2zpBlRGH3+s3YFlEerQf0RHPjjd7CmYIG2bhx49QABpfLbtmyRX2X/LZt+G8OblxwwQWFDoCyrBLdMkTsMEQ3nJMwhGWP5ZxpyT+gy5mygjiVuo71iS6MF9GVY3Pw4EFVd5sYZHQmdaodxqSuY/rtdo/oymJbRD3VqFHD/cQ7pu2eUx2Zfgs2jz/+ePE0yHIzkHZoPebMPIDmt49ElwCrT6ifLKEYk3+G7O6773Y/LRxv5Uj2kHmBlYqv9icxv+nfpCKXPWS+1ZHsIctD9pAJgh40yDiCWr9+fTXQtHbtWnWKIsuD3fzyO+U3fvXVV6Nbt24Ftk8sqywTuvUCoX+GY3lg26ID48X42XJ0ZeWfISOUSWOGG/YLwrTdy1/XyR4y2UNGHO8hEwSH0CAr8j1kVoERg6wQWLGIQSYGmY0YZHmIQSYIeth7yHr37o0xY8Yc31PFZYt0/F7tZnjkyJGqc9m2bVv17xM5lXLEdsW0s29a1+U/1EMX03Yvf10nBpkYZEQMMsHXnA6DTL9WEgRBEATBEWyEORh4xRVXqIEBLrMaOnQozjvvPPWc75ctW4YNGzaoQRxBEAThv4MYZIIgCMI5R9rBP7F05TaExschfPsfWPvX3whPzBuBP5NwZJQzyzTMHn30UXVCHA/z6Ny5szLEli9frg6eEQRBEP47iEEmCIIgnHPEr3gfj02ahaW7dmPV1y/j3SnfY/WBNPfb4gEPv+jfvz/eeOMNPP/887j++uvVseR79+5Vy5YFQRCE/wZikAmCIAjnHGXKlkOJfHt4ypQujVKa+3N8DWfMLrvsMrz99tvqThueYCrLFgVBEP47iEEmCIJwujmWjayUaOzdvh9x+Sc+MuMQumMfopMzka1OQc9C8qF92L1tMzZvptuNsKhkZPBVbjqOxIZhp3qe323Blq37EJvpgiszFvu27UVM1EFs374t7/3fEYg7mom8Q78tco4iPnI/duT7jW279iEiKUvFMzPlEHble2e7AwlZyOaPZCUiYk8oDsUdRYb9oxlJiA7bj73hsTiSnYXUhEPYd9JvbMHWbfniudWK59Fs5Pxz+vs/ZB9B7MGDCI+Mx9G8u2Kt9GfgaFwkQvdGIm/l4THkWv6id+eTcTDJimPeD9YOaYSqVf1RtmQZlC1dHkF1a6Kaf/G+L4DXSPAesp49eyqjTBCE/zjZaUiJ3vdPHbd1B7YfOpL3jocBWXXpfqvOjz7irktTY7Bv13Zs3nkQh+NjERUWhvDQUOzfvzsv/LY9CI1OQXbeL7jbppPr/N0xaVZdav1+VgIO7tqPQwlpyLTre9bP4fnqZ6ttSjn877Zpy/adCI2XWX4TxCATBEE43ViNWtSaTzCmz3jMjnA/I4e+w0P978RHK8ItQyUHR2O34Yc3x2PsDVfhmmuuwaDLx+KJd3/GpqR0y47aizVfPYPru/VEv6uuUe+vGTwIV13eDxdfOBYzw13IDf8ad198I1598WkMvXE4Bl1zFfqNeAafLd+B2Ay2nFk4emA5vnl5AkZemfcbV1/ZH1ePGIOJc0ORkRWHyJXvYWTn7ug70C2Drv/FuH/aToSl5CA3ZhEm3TQBb323CXkrAHORvv1HvDXhLtzx3DdYlxiNrT+/iXvO745LrnCHd8ez58V34+vwXLjCZ2Lshbfi878SYf3kySSuxcxnnsLzr8/DX0nuZ6n78efXb+H+W17DksOWMZaVgvCtP+P1W/tbMgZbbiD6PD4LG0ITkcWeSVBzdOvSGq39G6JpswvRrnUQanq+b1kQBKH4kZOOI3tX4vu3xx+v868ePgrD3pyP0DhWvpbBFME6/3Z8tj4WSdnpSFz2Lu6+dSQGjHsfPyydjQ8ffwSP33Yf7rn/Llx5zSBcOexOjH97PnYm01jKRfbRMGz/8WXcenne7w8ePBgD+5yP615bjfAjWTgWPR/PXX8v3vtpOyLSVays+nkdvp74NJ6b9AM2JmUjPXoD/vfRExg1wB3Hq67EoKsHY9yUXShei8SLN2KQCYIgFAeyQ/Hj0/djcux5uH3qGnWB9cbvh6Fu4lJ88skKRCnDpRqaXnA73l+1T73f9/dGrPvmXrRXP2CzFZ9PL40Hv1qMzftWY8qlYZgzfTYWrotEds5eLJs+F3tzL8Szy/J+Y+vS6Xi0S1ls/Goe/lQjoOVQtVY/PPerW4bldk29Cetffh9Low7DPTZ7nNzMCKz+43ds3rgb+RcEBnfqh6e+d//GzvVYM/MetHO/O2WOpSNuz1K8d+9j+LHPN5aMvZb7Da8deRr9n/4Ru2NTcazuIDx3T390al4drYdNwND+fdC6iju8IAhCcSdmC36ZMxuf7e6Mz9bk1aXbls7EU7mPo9vji5FqtQl5F2bkkZW6DG+/PB+NBr2BBd9Mwh09m6AyIrBiVRJqn/cAlu7bjCWv9ketnVPw5Gd/Ij0nCVG7f8GXb27CZbPddfWe3fjthYtx6KMv8Wv8EaTmF+CJY5HYuPgnrPyrCsb+nPcbO9ctxsfXh2Dz5On43dOAm+ARMcgEQRB8hMuVi4y0VLU/SLm0TOQcy2vxXH9+hy/WNsIll12Czi2rqPdl23TB+TXT4bdqAZbv9NYy2vjhmnefwGXBdVAVdTHg3nHom7gbm9ftwI7Qmug+4S08+f79uDw4XckoUaUaQlo2Rb2Mg4iMyvsFlysHmfni+fffu4GSJaz/L4F/356Si5jfZ2O/qxwqtuwN/Zv2SC6y0tOQ5paRmpqBzJxc/LOC0YWcrEyk2/FIS0NGVnbe++QoxPy2BDOjR+DjZy+2HrApa4hb7h6BSotXY1VyKo7oZpcgCEJxpN75GPzUp1gx9xkMqJWt6mRUrIoLx03EwFnv4ZNQuJd8W3VpRhp+f+1J/OB/KS7o3QSNjl8zVwKdhg/E1UP7o5nVIrS8qD+G9mqLMgt+wPz95VEr8EpM2Pg7njg/Q9WzaVadXKv7pWhf6gCiInJgVbkWx5CdmY6043VxuvXcXVen+KPNwAfxyJz3cGOLvDYlt1RZ1OvUFc1z9uLAQXoSdBCDTBAEwSdkIPnwAjzQrpK6mF65Nvfhx8gEtawjMmK/1eDNxasjLkIz+32lThjywiwsTErGoZi4vJ/xSkc0CimLsvZ9rHXqIaTiIaTFxCOpTA1Ur1oVAfsW4d17LsmTUaczLhv/Jf52e4cVm6To+ZjQ1o5DJbSdkICbv3kWVzcKxL8nmbZiWUxrhNQ6D/2buB9pswEv92uI4Gq2nKF4edF2RLvfAgex5IOx6Fff/b5OV1zxwFfY5X6LCmVRqn0jNHD/U9GoKTqW2oeY8CzIIYWCIJwbpOHQ5tl4rBvrwtoIajYKXx7bgF37OHjG9xvx6hVNccPe2/Hhe49jROdgVFThSAPUrF4HNewtqZWromqt0qiWuhvhieVRtl49BKfGIHLWrXn1rPW+UvuH8UtyGv6pQrfjszE90a62uy5uOBAPfrkCkXxltSdVatRAraj1mP/i1XnvazRBm2vfwmYVVtDFjzdHF+R4Oztvj/f0riDH29npGNbT+xMd/fHWeN7srhuGzg7Do4E9vS/IMZxJGPvoYZMwvG2eeUBZnt4X5HirPcOY5APj5URHDGOiI/oXHeUtoGbY060j5psvdGSHMdURw5nmN7/vM60j/hbjcWYoh6o1++P1v5KRnOx2m9/GwHrVUN7tA81G4/X5mxBhv3e7XT9/gAm9arg9eaMESuSfxnL/Q/1viZ2Y99SN6NlxPBbmDsGPe63fj/gTC966Ec2VL1Ie/oED8Obmf+RvfjMAX9wwET/sj0GK2xfZ+uVPyC6bhWqd6p8wc6ZDJzy6aC8OxObJ2PlFEP54+g188O0G5G2zC8alY9/Hov3ueESsxfzXRqCZepcHk/ZvuSfO4BUP7Lr9xO/RpIzTnUo54l9P7z05xokUVI4KcoyXiRw603aP/ux6y9P7ghzzgM5JXWeSB0yLaZ3KPGMYJzqiHJP4Ucbp1hHjxHxjfnt6X5CzdWSSHrozV6f7igqo2/46vLiKdeEhhO38GCPcb/LoiIfm/40ZTT7DXfe+gpkbI5D/jNZ/1ZP87+MrHRJwcOOHuLlOO3R7OjWvzk9KQPKmSbikagWUVX5IK9z60XJsOuSui/fOw6s39kA9vioRhlVTHsLA5kPxwtq2mP639T5mNzbPGV90S9SLKQXV6wU5wrJX0PftV6ZMGRTkSpcuDT8/P4/vCnL0T8ewnt6f6GwZ/EB0w9CVLFlShSlVqpTH9wU5yjIJwzgRkzB23PjX0/uCHGEYk3xgvHyhI1WAi6mO6JecSzpi3ERHRa8j+zfPFCX8SqN8pSqoUsXtKpdDGb+8xrFOvfooH/U3dkUcwdES+fxYrnLF8ihbSjfefyH0IDvG7n9GRSIirQtCWjVE8JFtWJsehJbPvoMP3hiDfg2s3/ezGpWkOOxze2eLXaJEaZTLF89W/S9HG9d+RIVnIMMeNo1egk1lzkf9xt3RrpqTxRalULZiZVR2y2ja4yK0rnwUqYcSkaQ2qlnff9nyqFjZHY/KlVChnKVDFdYiPQVpG5fitzD3v8mBfdic0wC16ln6/qc3ccbhN+epDjAp43QsP6bl1Uk5YpxIQeWoIMd4mcihs/NGVw79MQydp/cFOcowrbfoTHVk57cTHZmEsXXEML7Qkcm3QBmnoiOT9NCd+1hlpKS77ShXDuUTExDm1wFNGrJu4XurLq1QGT0feA4DE5fgmxkrsDnUNskOIi4+GvGJ7n+mpCD5cDlk1uiJrg3iEbdtL9b2eRLfr/kct7diPWu52Ehs5wCBO4hVE6BMuYqofLwuroByZUrmLbE7uB87o60+/JhJmDrjKVzbxHpfphRKWTJ3qLDnNiZlyfZf0Pdtfft5BaAgxwLl6XlBzi6Ent4V5pyEIZ6eF6VjvJzKKa55R3whx2l6nDji6Xlhzkn8nMih81XeFVc5dL4K401HxZWSnQfjho5H8NfcOVi6YW/e4Rn7F+P9h8ZhxKNfYGWC8qZBDn58+A38EsnZrCgs/vgzLKtaFfWaBCHYlY3syH04FB2PBFcllEvbhRU/fYFX3/vNClUwpWKisTu3HqrVZkPCJ3vw7fwY+Netizatq1tGpfJ2SsRu34TdiaVRmksYK7gfFkSV2qjZ/TIMC1yFV79cZT3gboYwzPjoa6RccgHO97c6D2fO7vaIp2/R9Pum/4J+qzB3OspRUTmncpzknZN88FXeOYmfUzmenhfmiJNwps5JHtD9v73zgNOrKPf/s+mb3jZ1EwhFmlKVcrnU6EURFLzcK8qVSBFRUSMoKoIU9SJFsAUsIRjKFf1fvDZEpSlSxBIUpIWUTTabbMomm55s2n+/s2dwje++78zs7tk3m9/385nPm8w5szPz/M7MeZ7ThjLdkbWzH7HvXX6hnXXR3fYXl7PZVi9/3u69/tv23CFvtzc3B2Q9W+Rx9B10sk399Km28en77Ye/ed7mrCN3mz37/x60n/34EZvbfEZ45fcP2//97o/WePxR9sZe22376pW2+tXnbM7WETawYrNtnf89O+eie2zV+s3/8MGQNtm21bYur7XltQtsyfYhVtm02F596i679KoHip5TugOxxyoUyn8t+QHQUclTaFuxFFsmdv/2pJS68iqTZ0ppX0qZlKR6WlJsOU+hbR2ZPIW2lUqx5YrtX9b029veddX1dsG+c+z/Pnm6/evhh9vhp11rj6ydZKef/TZ7Q/ASWgfYu09fY7d+4F3Nf+MtdvFzr7dzL3i3vePwsdZ777fZOyePsf5/vNLed2Lz3//X8+3G32y0N33wdHvjpnnNgRrlN9ma5Y/Zf5/evJ02kC680w78+MV28oRRWaDTZAcdc5wdsf8+Nrxv628rrrVXH/up3fed39qrw4+2gw/Ksgvygn37/Ml24pEtdbz5o09Y1X+ebe886Q02rtT6zT0HWNV+b7aP3XiVvfmRKc3lj2hOp9pn+lxqP7z6NNu/qv8/fPGxHCh0PKakjvxbxVK51xNbzlNoW0em1DpSyqWUSUmp9cSW8xTaVix1VyonHGEnvP0kO6LpO/ZuNxcfZce945P23a1TbOad59n+fZptle3bQn8bPvlj9pE3r7Hnf/n/7JFZ82ydjbMjD6m0uqdvtdMP/1c744YnrPGYD9tXzjvMKofsaROP/w+7aNL/2WdOaf77b/wXO+qMH9mkmz9v7xxQYw2Lebw1+9NtMe5oO7b5XHLoyq/ZxZOb/8Yx77IPfu1lO+TKD9ibt75sC1ov89JNKXRMFkol991R5OFbnnNctmyZTZw4McspDc9HArfkqKAUVO+fG+aWXUgZ8M8nUw+RZSiLFy92t1x58TAE/yx43759g+vx/WF/bt2Hgr394wShdtiwYYM1NDTYhAkTspzSoBF/3z9WUAo08s/s56FRXV2dDR061AYM+PtrqcXIUyOe881uLQfbga8OrVq1yqqrw79BR3982zpTI/++Q6xGtbW1NmLECOvfv9StjBawNXV524XQGRrdcMMN9uqrr9qUKVPsuOOOy3JzYHuTbWpcbLNfWW8jDj3IxvuXxjYuthefW2H999nXxg6ttL49N9uK+a/YwvpGW+e+btXXho6daBP3GGtDe6yzVfVLbUlDhVXtv5dV8UhetqjnSy+ssRGHNf/dxdPs1CPvt3+d8d/2xhHNJ/QdW82G7WkHThpjIwe2PDKxYfk8W1i7yJa5q6e9beDwETZ8eB9rWrLG+u21n1XtqLOX/rao+UT+j1S97kjbq6qf9d2y1Oa8tMCahu1t1WNH2GDasaXRlixYamu297MBzYHj2tqltmlAte190LiWj4D4dr5IO19v463O/jarxhq3bW91Fba/jd53X5tQNcT6b19ldfOX2vpeQ230xDE2hKeztq63xqX1Vre8uS0H7G2j+m63rZtXW90Lz9sC39hRB9hR+4ywvr3Cj+XOZvbs2TZ16lSbPHmyXXbZZVluCzU1NTZ27Fg3d4XQnnHEeYUUAvMJ56PYuY73Syg3evToLKc0see91nNdqN3A+ybUFWo7mD9/vo0fP97ZIoSU8x77U87bIQSvETbAbqEacS7iGBo16rXP8JUkViO0oU+0MdRuEOs/ei6//HKbNWuWzZgxI8pf3RXYumGVLa+dY68uzRYB69Hbeg/bww5tnlsrm+1rm+rs+WcbbPCB+9u45sm4d/Mht2bRczZvVV8b0esFu/eL/2c1w46wE99zvI3b1jxRVg6zqupJdsDYFh9466a1tmzeszbHfzOqYrBNOnyCbfzLy2Z7H2F7DGq0BS+vsF7j97CxVYOsksOzqXl+rllm63sMsVF7jLF+6xfb4gVzbNFq/kBP6ztgmI2dNNQ2vVJrPfY/yvYZRn734pFHHrF7773XDj30UPvYxz6W5RanlP+ogKwEeTr7sZMeKCDLVyMFZC0oICtDdmw3mzfN3vam5oDsR9+3Dx4z1kaW0XtUuysKyIoTe95rPdcpIFNABt05IGsXS39lN116j82tPsWmXP5fdsyILF+0m84IyMJnJSGEEEIIIYQQHYoCMiGE6BZUmFWdbFO/9ik7db8hNjD8pqIQQojuxuCD7JQPXGD/9e9H215hDxyJLkQBmRBCdAd4BIIT8PveboeN7W/9wp58EkII0R2prLaDTzzR/vXIfWx0vyxPlC0KyIQQQgghhBCii1BAJoQQQgghhBBdhAIyIYQQQgghhOgiFJAJIYQQQgghRBdRsXbt2jbXIWNNCNasiFlThPUtgDUrQtaRYJ0K1qwghZYBv7ZK7JoiK1ascOtbVVb6lVmLQ7voU8yaIr4/9CV0TRFg7Snfn1A7UIa1X2LWFEnRyK8pkodGy5cvd+vEdbZGtI39O1sj1nBpHmdWVVWV5ZSG/vjjpzM1Yu0bylBPjEasTzhkyJDgdYDKRaNbb73Vrf30/ve/v/utQybKEtYhY52a448//p/Wq6mvr3fr+TEuQkiZU9mfsRQzjpgTOP/HznXr1q1z5YYPH57llIb9fdti57pQu0HqXLdkyRI3d2OLENqjUUzbvEbYALuFasS5CFsMGxa+Wm9eGsX6Jp6rr77a/vKXv9idd96pdchELrAO2d13320HHXSQfehDH8pyi1PKf6yoq6trMyBj0LKoLY5XKJSBmIHrU1uNLIR31mInVyYjnMjQxQppF32KqYe2UY6+xLSNyYj9Y+xAGRabY7HrUFI0ok8Q0zY/Ifs+hdIdNSIoGzRoUJZTmnLXaM2aNS5gDj3ZpozXztBo2rRpbnH4888/XwGZyAUCso9+9KN21FFH2cUXX5zltsDFNC4Qhjr7eY0j9mcOamsctQUOB+VCF/UH9vdtC6mn9VyHHUJJnesaGxvd3B1aV94aUQ/lQjXiXET7YjSKPe+lahR73vPcfPPN9te//lUBmcgNArK77rrL9tlnH7vggguy3OKUGkcVzQOnzYCMgcuV8JgDnCsp4K/alILqmRxIOOChg5CBSxnqCZ3AAGeM4IU7MCEwqXCSIUAIrcf3h/1DT7QQuxo+bNiwwRoaGmzChAlZTmnQiL8fehXKT/zYIg+N6urqbOjQocEnjDw1KrXSeiG4qMGd5urq6iynNPTHt60zNWKCoEysRrW1te7Kfv/+/bOc4mBr6vK2C6EzNLrhhhvs1VdftSlTpiggE7lAQDZ16lSbPHmyXXbZZVluC9ytHTt2bPCd5vaMI84roc4x8wnno9i5jgCTcjFP1cSe91rPdaF2A++bUFeo7WD+/Pk2fvx4Z4sQUs577E85b4cQvEbYALuFasS5iGMo5qmaWI3Qhj7RxlC7Qaz/6Ln88stt1qxZNmPGDAVkIhcIyO6991479NBD/+nJh7Yo5T+Gz0pCCCGEEEIIIToUBWRCCCGEEEII0UUoIBNCCCGEEEKILkIBmRBCCCGEEEJ0EQrIhBBCCCGEEKKLUEAmhBBCCCGEEF2EAjIhhBBCCCGE6CIUkAkhhBBCCCFEF6GATAghhBBCCCG6CAVkQgghhBBCCNFFVGzatGlH9u9/YvPmzbZixQobP358llOa7du3W0VFhUsh7NjRUj2/seVIPXrExZRLly61gQMH2oABA7Kc4qTU48tATLlY28HGjRtt1apVNm7cuCynNCka+f6klIvVqL6+3gYPHmz9+/fPcoqTUo8vA52t0YYNG2z16tU2duzYLKc05a7R4sWLbdiwYVZZWZnlFCelHl8mpj9QzHY333yzzZs3z97//vfbcccdl+UK0XnMnj3bPv7xj9uJJ55oU6dOzXJbWLRokY0aNcr69OmT5RQnr3GUUgbWrFnj/IaqqqospzTtmes6e+6G2tpaGzNmjPXu3TvLKY5vX14axc7dnIu2bNliI0eOzHJKU+4aXXnllfbss8/ajBkzbOLEiVmuEJ3HI488Yvfcc4+94Q1vsI985CNZbnFKHd8VTU1NLaOmAM3BmgvIqqurs5zSbNu2zf0yCEMGFYOWRkJoGaAMqWfPnlGDF2d/0KBBUQEZfYqph3ZRjv1jJqOtW7e+ZoPQugjIVq5cGRU056kRZWPKwJIlS2zIkCFRAVk5a5QSkJW7RnV1dTZ8+PCogKwcNLrpppvs/vvvdwF/jNMoRCpr1661OXPm2IUXXmiXXnppltsCzv7o0aODAzLGBClmHPm5JGYc+fHa1jhqCwIy/AaCzFBi59TWcx12CCV2TvUsXLjQzd2hAVneGnkbhNaVEpCVu0ZXXHGF/fCHP3TOcajfIER7WLZsma1fv97e+9732iWXXJLlFqfUOKpoHjRFAzIqjbniwECHXr16BQ9cBiGDlwkvdBBShs5RJnQCA67s44xxlywE2tUctLoTZmg9vj/0BTuEwpVFJq+YiRxnv6GhwSZMmJDllIb++LaFaoSt+Y3RiDLYgXpiNMLZHzp0aHDQnKoRif1jNGJM+GMu1A4MWu5ixlzYKHeNcCRHjBgRfPKjDuaGmPHqNfJjIpRiGv3mN7+xJ5980jmOrcHepNB5AWgbfz+0P2jjU0x/sF1sGaCP6BN6fFOPPxZCoV2UibWD1zX0OAX04RgKnReA45t2dbZG9AfaKoMOJ510kh1//PFZTgs1NTXO2e/bt2+WUxzqoU+dPY7oP+ej2LkOZ5/xR5AZSux5j7b5uS40kAXvm1BPqO1g/vz57oJnaF15a0S7sFuoRpyLsEVM0ByrEXMC/QHsEEqs/+j5/ve/b3/729+c3UNImVPZn3Ix44Ey2CFmTgXGEGVDL3gCfQ/VB/j7jY2NNmvWLKfvqaeemm0pDv2hjpgxRF3MDfjeoeXKXSNuhuCnnnLKKXbsscdmucUp5T9WNDemQwMyTppApSEG8cYg+YklBA4+ysRMepASkHGwcsIMrcf3h/1jRMbe7B8zqPIMyLBFHhqlBGR5acQgxAaUC7VDSkBGf3zbOlMjToCUidUoNiDD1tTlbRdCZ2jE3Yp169a5v9saNCI/xpFkHFFH6Hj1GvFL+0LxumKDGI0YR1wF7y7OPvow33WmI5mqEcc2ZdrSiDyezCC1JiUgSx1HsRpxPmprHLVFSkAWe97zGjEmQu0G3jeJHUexARltw96x44hy3g4heI2wAXYL1SglIIvVCG3oU+w4ivUfPc8995x7qibUdt7eMRr5Yy7m+GF/+hQzXoFAibI8hRJK7FzH32f+ueuuu9y4vfXWW7MtxYn1H4HjYMGCBc5PDdUoxd55asQ4oi/ER6HxRCn/UQFZCRArL2c/dtIDBWT5aqSArIVdNSBrC5x97ijFvIvZHo1iHMlSzn5b8KgVTle/fv2ynOLkpRF9Ya6L1Qh9GEsxj/6Wu0YKyBSQAftTztshBK8RNsBuoRp1x4CM94LxU2ljCCka+TIxGmGHWN8EeA2FumIeq0/RaO7cuTZt2jR3TMycOTPbUpxY/xE4Dqhr0qRJwbYrd43wuwE/KJRSvkl47UIIIYQQQgghOhQFZEIIIYQQQgjRRSggE0IIIYQQQoguQgGZEEIIIYQQQnQRCsiEEEIIIYQQootQQCaEEEIIIYQQXYQCMiGEEEIIIYToInqwPkBHJk+hbR2Z8qjDp7zqyquePFNefVI9aclTaFtHJk+hbR2d8qwHCm3ryJRHHT7lVVde9ZDyrCuPlFd/umM9UGhbR6Y86vApr7ryrAcKbevIlEcdPuVVV1715Jny6lO51FPR1NTUslcBWCxtxYoVblHEUFiUDdpa+GxnaAQLs/EbuqAdUIYUUwaWLl3qFoUOXXSYdtGnlLaxf+jidMCidt5uoXWx0ByL+sUsaJuikS8TawfKhtbjqa+vd4t3hy46XO4asXg3C6bGLGhb7hqxwPqwYcOssrIyyylOezSibaRQUjRiwWEWh45Z0Jb++DpC6mmtUegCppCqEQusjxw5MnjxXG/vztbI2yFWI/RhLMUsaBt7LKRq5MvEarRo0SLXn9DFc1M0om3++OlsjVi8G78hZkHbcteIRfDHjBnjFqgNIW+NqAdC6+JcxMLQzA2hlLtGCxYscH5qaF1doVFMfxobG137hg8fnuWUJkUjFtS+/fbb3ULUM2bMyLYUJ0Uj6kKjCRMmvHa8loL+e3uXo0b43YAfFEopjSo2bdpUNCBDqBhHEiO2VVkhMIb/jS3nDR/DsmXLXEAW4+zH1uPLQEy5WNsBq7MzeDlhhJKike9PSrlYjQiaCchinP3YenwZ6GyNCJpxVGKc/XLXiKB56NCh1q9fvyynOCn1+DIx/YEUjXD0cfhjnP32aJRih1iNlixZ4k7ooQFZSj2+TIodYsoA+jCWYpz9vDSiHojViKCZ/oQGZL595arR2rVrnd8Q4+znqVFsf4Cgmbk7NCDz7ctLo9hjjnMRAdmIESOynNKUu0YEzfipoQFZiu18mRQ7xGpE0IwtYpz9FI1qampcQNbQ0GB33HFHtqU4KRpRFxpVV1cH2yLFdr5MrB1i6wH8bsAPCqWU7SqaG9IyagqAs08AM3HixCynNE1NTe6XySvEIFRPdEripBRqRCJNylBPjCG5so+zT1AWAgbkBINTE1qP7w/7x1wdwt7sHxOp40gymLjyEAoa8fepK1Qj7I0t8tAIJ4WDPPQuZp4a4RBiA8qF2oG7L1xNYTIKhf74tnWmRpyYKROrEZMrJ/TQCxvYmrq87ULIUyOcfRyVmDvN7dEoNEgC7EZZ6onRaOHChS7ADA2a89KIvjDXxWqEPoylmAuE5a4RDhH9Ca2rPRpxXgm9Op2qEY4k5WIuPsWe91I18r5JrEbz5893d1+wRQgp5z32p5y3QwheI2yA3UI14lzEMRRz8SlWI7ShT7Qx1G4Q6z96uNODn0obQ0jRyJeJ0Qg7xPomwI0Q6oq5+JSi0dy5c23atGnumJg5c2a2pTix/iNwHFDXpEmTgm1X7hrhd0PMhY1Svkl47UIIIYQQQgghOhQFZEIIIYQQQgjRRSggE0IIIYQQQoguQgGZEEIIIYQQQnQRCsiEEEIIIYQQootQQCaEEEIIIYQQXYQCMiGEEEIIIYToIhSQCSGEEEIIIUQXoYBMCCGEEEIIIboIBWRCCCGEEEII0UVUNDU17cj+/U9s2rTJVqxYYdXV1VlOabZt2+Z+e/ToYRUVFe7fxdixY8drKbQMbN++3aWePXsGl4H6+nobNGiQDRgwIMspDu2iTzH10C7KsT99CmXr1q2v2SC0ro0bN9rKlStt/PjxWU5pUjSiTxCrUayusGTJEhsyZIj1798/yylOuWu0YcMGW716tY0dOzbLKU25a1RXV2fDhw+3ysrKLKc45a7R+vXrbe3atTZmzJgspzT0x9cRUk9rjbBDKKkaLVq0yEaOHGn9+vXLcopDPaTO1sgfC7EaoQ9jafTo0VlOaWKPhVSNYserp7a21vWnT58+WU5xyl2jNWvWOL9h1KhRWU5pyl2jhQsXurm7d+/eWU5x8tbI2yC0Ls5FW7ZscXNDKOWuUU1NjfNTe/XqleUUpz0axbSttUYx/WlsbHTlRowYkeWUJkWjefPm2e233+58yBkzZmRbipOiEXWh0cSJE4OPhxR756kRNgP8oFBKadSDxnRk8hTa1tFJ9aQlT6Ftu2rKqz951UPKs648Ul79yaue7pY8hbZ1dFI9aclTaFtHp+5YDxTa1tFJ9aQlT6FtHZ1UT5q9PYW27aopr/6UqqeiOTL8u4V3gitdy5cvtwkTJmQ5peHKC3ClIiTapBFEp/yGlgHKkChDxBnK4sWLbfDgwTZw4MAspzhE3PSJq2Oh9dAuyrF/zNWhzZs3v9afUDtwxZhIPeYuZopGRPaQh0bcfRk6dGjwXcxy14i7L1zxirmLSX/4+6FXbVI1ogxlqSdGI+6+cGUo9C5muWu0bt06d3V/3LhxWU5pmpqaXmtbrEahV9shVSPuvlRVVUXdIaOumPGaohF9wXaxGnGHjLEUcxez3DVasGCB60/fvn2znOKkzKl5asTdF/yGmLuY5a4RV/aZF0LvYrZHo5i2eY2wAXYL1YhzEeVi7mLGakRf6BPEaBTrm3jmz5/v/FTKhZCiUcrxgx1iz3uwatUq176Yu5ix5z3aNnfuXHeHjPruvPPObEtxUjTCbtyN23PPPZ39Qih3jRoaGtxvzF3MUho15/dwG9tKFCqU31Zi/9gypKwxwSm1npQU2zZSSvtS+5RST6H8UinWDqn9SUmxbSOltC+lHlJKPSm2g0L5bSXqiC1Dim0b+6f0J6VcSn9SUmqfYtuXWk9sGfaPbRsppX151ZNShhTbvtR68mgbKa96UlJqPbHlIA+N2D/V3rHloFB+sZTatkL5pVJetsurHogtB4Xyi6WU9rWnT1BoW6GUUgcpz/7EloNC+R2dStbj9hBCCCGEEEIIkTsKyIQQQgghhBCii1BAJoQQQgghhBBdhAIyIYQQQgghhOgiFJAJIYQQQgghRBehgEwIIYQQQgghuggFZEIIIYQQQgjRRSggE0IIIYQQQoguQgGZEEIIIYQQQnQRCsiEEEIIIYQQoouoWLBgwY7s3//E1q1bbdOmTTZw4MAspzTbtm1zvz169LCKigr372Ls2NFSPb/sH1IGtm/f7lLPnj2Dy8D69eutT58+1rt37yynOLSLPsXUQxnfL+wQCvb2dgutKy+NfH9i2oY+lAutx9PdNNqyZYs1NTXZgAEDspzSlLtG69ats379+lmvXr2ynOJQR6pGMf2BPDXydYTU4/sDMcdcXhqlzKkpGrE/tovVCH3Qtn///llOaWKPBd8fiNEodrx61q5d6/qDzUPYFTSiXGVlZZZTGmnUPo18u0LLbd682bWvO2m0Zs0a5wOF1tUVGsX0B40oy/wdSopGCxcutJkzZ1pjY6Pdcsst2ZbipGhEXYyjQYMGBZdBH8rF1kMKtQGwf4pG+N3QkRpVbNiwoWXUFICDYuXKlTZ27NgspzQ4NoATENI5jIHhMQgOeKhB2J/OUSZ0EMKyZcvcwA09qdM2TjIECKH1+P7Ql1BnCLA3B0XMgcFBwWAaM2ZMllMa+uPbFqoR/aFfMRqhD2WoJ0ajpUuX2uDBg4NPGHlqhL39MRdqh40bN7oTxujRo7Oc0pS7RvX19TZ06NDgyYg6mBtixqvXiP0ZE6GkaNQ8D7oAZtSoUVlOadDIty1WI47VUFI1WrJkiQ0fPtz69u2b5RSHtsXOqSkaYQfmuliN0IexVFVVleWUJnZOTdWIY5uysRrV1dW5/oTWlaKR708eGuF0UW7kyJFZTmny1AioJ0ajRYsWubkbW4SQqhHJ2yEErxE2wG6hGnEuwhYjRozIckqTqhG/oXaDWP/RU1tb6/xUyoXQHo1ixjjHaKxvAqtXr3Zlhw0bluWUJkWjefPm2be+9S1btWqVTZ8+PdtSnFjfBKgLjaqrq4PtkHLey1Mj/G7ADwqllG9S0WyoNgMyChPATJw4McspDR0DKg09KLwR/cQSAmJRJmZAweLFi52zH3pHCbE40HFqYg8K9g+dIAB7s3/ogAIcyYaGBpswYUKWU5rYAYVGfnDkoRFOCgd56N2KPDXCIfQDN9QO3PFjwmMyCoX++LZ1pkacACkTqxGTKyf00Asb2Jq6Yia9PDXC2cdRGTduXJZTmvZoFBokAXajLPXEaMTVTwLM0KA5L43oC3NdrEbow1iKuUBY7hrV1NS4/sQEzakaeWcthFSNcCQpF3PxKfa8l6qR901iNZo/f76NHz/e2SKElPMe+1PO2yEErxE2wG6hGnEu4hiKufgUqxHa0CfaGGo3iPUfPQQW+Km0MYQUjXyZGI2wQ6xvAtwIoa6Yi08pGs2dO9emTZvmjgnulIUQ6z8CxwF1TZo0Kdh25a4RfjfEXNgo5ZuE1y6EEEIIIYQQokNRQCaEEEIIIYQQXYQCMiGEEEIIIYToIhSQCSGEEEIIIUQXoYBMCCGEEEIIIboIBWRCCCGEEEII0UUoIBNCCCGEEEKILkIBmRBCCCGEEEJ0EQrIhBBCCCGEEKKL6HnVVVddwyrahRKrua9fv94GDRpUcHuhxKrXnkLbd07sT+LfrFy98/a2UkoZ0tq1a93K36RC2wsl6mJl7ULbCiXfNs/O29tKrDAeUw8JjVj9e+DAgQW3F0qt27fztkKJ/VPsnVKGtGbNGreaOautF9q+c/Lti9WI5Cm0T6GERrH9YWV7VtGP0cjXE9o23x/+HasRpGjUr18/txp+oe07J9++ctWIlfpJAwYMKLi9UMpTI35j+7R69WqrrKyM0ojf2LaRPIX22Tn5MikaMd/179+/4PZCKS+NqAdSNKI/oeMitW2U8xTaZ+fk7RDbH+a5WI1S28a/Y9rn64ntU2Njo5u7Q8ultA2N+KUM7Ly9UPJ2iPUZ8Beoj7mh0PZCydsOCm0vlFLskFIPadWqVc5P7UyNWpeJaR/lUjSiXIxGaBpbz8qVK+2Pf/yjq+8d73hHwX12Tt4OsTZAo8GDBweXa23vnbe1lVqXiamHFGu7DRs2uF/8oJ23tZXQqFh/KpqF+HvksBOcABsaGmzcuHFZTmn4ox5vlGK03h9CykBsPZ6lS5e6yRXHK4SUelLbllKOEyAH+tixY7Oc0sTW03p/6Gw71NfXu4HLST2ElHpS25ZSjoFLADNmzJgspzSx9bTeHzrbDkuWLLFhw4a5ySiElHpS25ZSjgtP69ats9GjR2c5pYmtJ8/+wOLFi23EiBHWt2/fLKc4KfW0twyElkMfHIeqqqospzSx7Uu1dWq5uro61x8uQIXQXnunlIHQclzwxG8YOXJkllOa2Pal2jq13KJFi9y8wEXcENpr75QyEFqOcxFBM3NDKLHtS7V1armFCxc6P5WLuCG0196dWQa4CECQMHz48CynNLF1sX9NTY1961vfcn7+9OnTsy3FSbUDGlVXV7sLhCGk1uPpbI3wuwE/KJRSdVU0R2x/32MncPaXL19uEyZMyHJKw0AHBkZI52igvzoUWgYoQ6IMkW0oOCk4+wRlITAo6BOTcWg9tMtH3KEHH3Ai8/0JtQPOPlc5ONBDSdFo69at7t95aISTMnTo0OCgudw1wtlngh0/fnyWUxr6w9+nbZ2pEWUoSz0xGuGkcLIIDZrLXSOcfRyVmItP3Pn0bYvVKNS5g1SNamtrnbMfGjRja+qKGa8pGtEXbBerEc4+Yynmwka5a7RgwQLXn9CgOWVOzVMj7vjhN8Rc2Ch3jXBamRdCg+b2aBTTNq8RNsBuoRpxLqLcqFGjspzSxGpEX+gTxGgU65t45s+f7/xUyoWQolHK8YMdYs97gLNP+2IubJQ673k9aD/Qtrlz59rtt9/u6rvzzjtdvod2F9IhRSPsNm/ePNtzzz1fq78U5a4RQSzEXNgopVFzfg+3sa1EoUL5bSX2jy1DyhoTnFLrSUmxbSOltC+1Tyn1FMovlWLtkNqflBTbNlJK+1LqIaXUk2I7KJTfVqKO2DKk2Laxf0p/Usql9CclpfYptn2p9cSWYf/YtpFS2pdXPSllSLHtS60nj7aR8qonJaXWE1sO8tCI/VPtHVsOCuUXS6ltK5RfKuVlu7zqgdhyUCi/WEppX6kyXMziCTECcgIQn+/h35Qn+OYiPxeLCFb8fj7Ftsunju5PWwliy0Gh/I5OJetxewghhBBCCCG6Jffdd59dcMEF9uijj7oAzd/t4q4S/+YO969//Wv7j//4D/vd737n7uiI/FBAJoQQQgghRDeF10AOPPBA99rOv//7v9uZZ55pjz32mAvGePXlgQcesLe97W32zne+015++WW3PfTVHtExKCATQgghhBCiG3PMMcfYaaed5j6O9Pjjj9tnP/tZu/vuu+3hhx+297znPfbss8+6R+euvPLK4PfDRcehgEwIIYQQQohuzJAhQ+xNb3qTS3wAgw8l8TEr7pDxMR7/sZdzzjkn+ENDouNQQCaEEEIIIUQ3hrtfRxxxhHsskUcVgS8Z+nfJuCt2+eWXv7bunsgXBWRCCCGEEEJ0c1iu5qijjnKBWeugi2CNu2NTpkwJ/jS96FgUkAkhhBBCCNHNIdh6wxveYO9617teu0sGrM970UUXuYBNd8e6BgVkQgghhBBC7AawmDEf+DjkkENeW7OLBerPPffcbA/RFSggE0IIIYQQYjegV69edsABB9hZZ53l7pINGzbMfWVx3Lhx2R6iK+h51VVXXYMghRIv+rF43KBBgwpuL5RY2dtTaPvOif1J/JtIfeftbaWUMiS+KtO7d2+XCm0vlPxq5YW2FUq+bZ6dt7eVeLkyph4SGvEJU17CLLS9UGrdvp23FUrsn2LvlDIkvvrTp08fN2kU2r5z8u2L1YjkKbRPoYRGsf3hy0V8wShGI19PaNt8f/h3rEaQolG/fv3c4w+Ftu+cfPvKVSMWwCQNGDCg4PZCKU+N+I3tE4t8VlZWRmnEb2zbSJ5C++ycfJkUjZjvePG80PZCKS+NqAdSNKI/oeMitW2U8xTaZ+fk7RDbH+a5WI1S28a/Y9rn64ntU2Nj42sfOSi0feeU0jY04pcysPP2QsnbIdZnwF+gPuaGQtsLJW87KLS9UEqxQ0o9pFWrVjk/tTM1al0mpn2US9GIcjEaoWlMPfhYwKfuWaPsi1/8ovsKY6F9WydvB9h5W1uJMmjEY5Gh5Vrbe+dtbaXWZWLqIcVqxJcp+cUP2nlbWwmNivWnovkk9/fIYSc4ATY0NERFzXQMqNQbpRitG4NBQsqAN3xMGVi6dKmbXHG8QqAOL1Zs29ifcqF4sXwKgRMgB/rYsWOznNKkaOTL5KFRfX29G7ih62CUu0YMXAIYHgkIJbaevDVasmSJu6rGZBRCuWvEhad169bZ6NGjs5zStEejmJemUzViAVAeTQn9fHFeGvl6vN1C60IfHJWqqqospzTlrlFdXZ3rj3eOSlHuGnHBE79h5MiRWU5p8tQIYvoDixYtcvMCF3FD8PbOSyO/f2hdnIsImpkbQil3jRYuXOj8VC7ihtAejWLKtNaodRmCfBJ29axcudJdoCGPuY5yPoAJIUWjZcuW2aOPPurqvfjii7MtxUnRiLrwvfloSOvjG81a+3noh19Bv7tao1LgdwPtDaWURhXNA7PNgAxnf8WKFVZdXZ3llIa1DagotHMYwxuEgRtSBtg/tgzg7HMlJSYgo08cKDFtoxzETEZMkr4/oXXhoDCQx48fn+WUJkUj36cYe3PwxZYBnH2u1MQEZCkakdi/szUiIGPCiwmay10jHEle/uUKXgi0jbpSNMIGpFBSNCIgw5mMCZrbo1Go4wCpGuFI4hiHBs15aURfsF2sRujDWIoJmstdo9raWtef0IDM2zumnjw1wtnHb8DxCiVPjSC0Hg/OPnN3TECWp0beBqF1cS5ijowJmmPn1FSNYo8FT01NjfNTQ+vqbI3Yj3MKvgwXxhgX+J60E5v49b/Yz0M7fHuwN/uFzgvA/hDaH68R45UUGqDH1gOUoQ7ORa3Lobf/e0D/8f3wz/EtmBtJzCfoyzZSW8Ro5KF+P45i+oTfDfhBoZQaRxXNjSkakBFBT5w4McspDY9nAZNXSOeonomSxMEXahAMSBnqCTU8MDiIvrlLFgLicsWPq8yh9fj+sH/MZIS92T9mksBB4S7mhAkTspzSoBF/P/QA9AcstshDI5x9bqGHBs15akQAjA0oF2oHJmaupsRc2KA/vm2dqRETBGViNcKRZAIPDZqxNXV524WQp0ZckeQEGfM0QHs0ill005+cqSdGIxxJTmShAVleGtEX5rpYjdCHsRRzYaPcNcJBoz+hdbVHI84rpBBSNcLZp1xM0Bx73kvVyPsmsRrNnz/fXfDEFiGknPfYn3LeDiF4jbABdgvViHMRx1BM0ByrEdrQJ9oYajeI9R898+bNc34qbQwhRSNfppBGzDMEXK+++qqbd7ExvjM3NCgH2IJzE3rhgxJYtP47/J98/j77kmKO03LG92fn45SAlWPLw3HJHMI8748ff3xzHOEX+gCN39e//vXu19upmEZtwbEa6z8CfjfE3Gku5ZsoICtBili+P+wfOkFA7KQHCsgUkEGqRkyAlInVSAGZAjJI0Yi+MNfFaqSArH0acV4JdVJSNVJAlnbeY3/KeTuE4DXCBtgtVCMFZGka+TLeDtiEgIIgbPbs2a4NPJZHH/ibJM4njG/uovh/c87Ev+FRt9D27i5wXHLniTuIzCU85eGD2wULFrh/owO6Yec99tjD9ttvP9trr73cL3d9OW5ixhHHaqz/CArIWpEyoEABmQIySNVIAVkLCsgUkEGKRvSFuS5WIwVk7dOI80qok5KqkQIyBWSANvSJNobaDWL9R09eARnzD+c+xi3zK/8mUGBu4nxIUMDXCzmPYN9JkyZlpUV7YS7HN+SuI7Z/7rnn7JVXXnHnbvxF9N93333dfLr33ns7nzjklQqO1Vj/ETojIOt5TTPZv/8JfwAWe2ZzZzjIIXTgAoOWFFMGI8aWASJvDB86SVAHfWKgx/aH/WMExt7s35ZYhWBiReRYjXzbQutJsXd7NMKJLFeNfH9C60IjTmhcCAil3DXiBEQwxgktBOqgrph68tQIR4BJmfdLQ2mPRqGOA1AGYuoBnGMuaoTWVe4aoQ9jqTtpxIv99CcPjWhbHhpRLvSCJ7C/b1tnasSxACkaMXdjixB822I1olyKRtggRiPORdQVesETYjXyxxyE2g28RjG2A4JMfKBQ28VqhI/18ssvuw9g/PSnP3W//B9YZPmMM86wKVOm2CmnnOICMi6+xnzsQZSG4xybcnHkwAMPtBNPPNFOOOEEd5eM45O7lARpzz//vM2ZM8cFavgnpfwUjgOOOz+OQuGYgNCL0kA7/TFXqK7wkS+EEEIIIcRuAE8gvfjii/bjH//YbrvtNps5c6YL/t761rfa9ddfb9/85jft8ssvt7e85S1RH0kR7YeAhruQBMFXXHGFTZ8+3f0ee+yx7g7ajBkznGa/+MUv3GOl3FwqdxSQCSGEEEKI3R7umHAXkcfhHnzwQfvKV75iX/3qV13eZZddZtOmTbOPfOQjduihh0bdZRSdC1occ8wxNnXqVPv2t79t5513nnvHj6D561//uv3qV7+yuXPnuiC7XFFAJoQQQgghdmt4dA0n/qGHHrIvfelL9vnPf949hnvttdc6x/7000/Xo4i7AHxE5eyzz7bvfOc7dskllzhNb7rpJrv55pvt4Ycfdv/3j8eWEwrIhBBCCCHEbgl3xQi8eLSNuyksksz7qt/4xjfco3A8ohjz7qooD/jYx1lnnWV33HGHfeYzn3FfwSTIvvXWW93dMu56lhMKyIQQQgghxG4Hd0r4SNUf/vAH+8AHPmA/+9nPXBB2991328knnxz8lVpRvvDBl3e+85323e9+1z72sY/ZU089ZZ/85CftiSeeKKt3yxSQCSGEEEKI3Qb/dT0eX+PRtnPOOcd9rp73xrgjFvMFT7FrwCfqzz//fBdw80GQD33oQ+7ffDGR46Gr6UEjOjJ5Cm3ryJRHHT7lVVde9eSZ8uqT6klLnkLbOjJ5Cm3r6JRnPVBoW0emPOrwKa+68qqHlGddeaS8+tMd64FC2zoy5VGHT3nVlWc9UGhbRybgkcRZs2bZpZdearfccou7Y/KDH/zArWcV8/lzseux//77O82vu+46927ge9/7Xre8RaFjpSMTFMr3qWLDhg1/HwU7wTO1rJodsxBnucNC16yRErN2QDnDM7AcSGPGjMlydn14zpd1X0IW9dsV4OoLj0TELJZa7tTX17vns7vL4xx8eYl1S2IWSy13uPLLy80xi+eWM+jDWKqqqspydn1Y6JT+xCyeW86whiR+Q3f6BPiiRYvc3B265mK5w7mIYCRmQdtyhwWa8VNj7mrxiCLL8LI2FO+KHXTQQd1GY1EaAiDmqj//+c/24Q9/2J37eUwV3zMkIMfvBvygjqKi+WBsMyDD2V++fLlb8ToUDm4IXXAPo3DbmN+Yhdkow+J+1BOzkOLixYudwUMXrqRdTF60LbQe3zb2p32hsDit70+oHXAkCZpZiDCUFI18mTw0wknhIA/9pCx10L5y1YhnlBm8LGgYCsccf79cNcJJwdkPvbBR7hrh7OOo8MhKKO3RKObEn6oRTgrOfmjQnJdGfk6N1Qhnn7EUc/EpL40oQ9lYjRYsWOD6Exo0Y2tsHlNPnhqxGDl+Q8zFpzw1AvoTo1FNTY2bF0KD5pTxmlLGa+Tn+1CNOBcxR8ZcfKIeb7eQevxxCikahR4Lnvnz5zs/FVuE8Mwzz9iXv/xl5z/dcMMNdvDBBysY2w3xc8m8efPs6quvdmvM/c///I9756zU8dfQ0OB+Yy5slPJNKpoHTtGAjDtK3MINhYELoU4hBvGTEQMidBBSBkNSJnQCg9iAjHZhRCbj0Hp8f+hL6AQBROuIFTMZMaFwYMQEzfTHty1UI2zNb4xGlMEO1BOjUUpAlqIRif1jNGJM+GMu1A44kQz0mKC53DXC2WciignImBtixqvXyI+JUFI0SgnI0Ig6Qsdra41i7oikasTimDhdoQEZtqauztaI/jPXxWqEPoylmCc2YufUVI04tikTqxHOPv0JDcjKXaOUgCxPjYB6YjTC2ediWmhdeWtEu7BbqEaci7BFTEAWqxHzFf0B7BBKrP/owaHGT6VcKZ588kn3uBp1fe5zn7PDDz886jgS3Q/GK8fQhRde6PzOO++8013MLDZ+UwKyUr5JDz+QOyp5Cm0rlmLLxO7fnpRSV15l8kwp7Uspk5JUT0uKLecptK0jk6fQtlIptlzs/qnJU2hbsRRbJnb/9qTUumLLxe7fnpRSV0qZvFJebSv3emLLeQpt68iUWkdKuZQyKSm1nthynkLbOiLxWXveEyPA/PSnP22HHXaYgjHhAvlJkybZjTfe6B715xFGLgAWOobak6BQvk/hl4mEEEIIIYTYxeDpqHvuucfmzJlj73vf++yII47oNu/XivZDUEaAfv3117v3yr73ve+5O/55ooBMCCGEEEJ0W3hv7KWXXrITTjjBTjnllG7z0TDRMXCHirulJ554ovsc/n333eeCd/8YbR4oIBNCCCGEEN0SHkN7/PHH3ftBp59+ug0bNizbIsTfISgjUJ8yZYr7//333//au2J5oIBMCCGEEEJ0S37/+9+7LwPzAY999tknyxWiMHxo6bTTTrMHHnjA3SXjA155oIBMCCGEEEJ0O1gz87HHHnOfMudxNL03JkI4++yz3e9TTz312ppjnY0CMiGEEEII0e3gy4pLly61/fff3173utdlubsiG2zVoifsR1+6yX4xJ8vKePXn19kXPv9p+/RXf2F/rV9j+dzP6d7su+++dtxxx7kFxFesWJHldi4KyIQQQgghRLeDgIy1GAnGQtdkLE822ur6Wfar26fbbxe25OzYsd3mPvhl+8pNv7AX122x7T17sJZVy0bRbk466SS3DuHy5ctfW1evM1FAJoQQQgghuh180IPFeGMW8N012G47ts+3X99wjT204z/swk9dY1/46FvtDaMHmVZW6xgOPvhg27hxo9XV1blFnTsbBWRCCCGEEKLbwfs/rDE1aNCgLKd7sGNbkzX+7fv2o9/vbZM/erodMnSA/f3+33pb+IcH7cf3TLfp05vTTx63Py/I1tRqWmmLnv+9PfzAMzZ/XUuWbdtkG5f8xX4+80H7W/Nu23eQucZeeeh/7N47s78x/Vf2p5qG5r/czMY6e+Hx39rvnnrFlmwko5mmRlvy4jP20E+fsrn+7+7iVFdXu0/hL1iwwNat6/xOVaxZs8aZvhB8WWTVqlU2evToLKc0/pv9DAA+IVmKHTt22Pbt210KLQPcPiRRpkeP8LiSZ0H59GnoGhS0iz5xhSW0Ht8f+tKzZ88stzSsHu/7E2oHyrB43ahRo7Kc0qRohK35zUMjbg8PHDiw0zWibezf2RpxZWXt2rVWVVWV5ZSG/vjjpzM12rp1qytDPTEaLVu2zL0kHfqCdLlrxFWw9evX28iRI7Oc0jA/+rbFaoQdQknViPcm+LwzJ5QQsDd1xYzXFI3oC7aL1Qh9GEsxV7rLXSM+OEB/QuuibaQYjdgfnfLQCKeFcsOHD89ySlPuGnGHhbkbW4TQHo1i2uY1wgbYLVQjzkXYIubT73lpFOubeFj0GT915+N7w4YNNnXqVOdYX3bZZTZmzJhsy65Ig9X86V67/oxpNvSuF+2LR8+1Bz54ur37mXfbL5/+tP3LiAHWcjZeb7V/fsDu+t6P7IW6Dba9Tw9bvmOEHXDM2+2Cd022w4YstF/PmGHf+XlvO/uuG+2s8c1FmoO0pc98y/7ztN/av//5l/bhvdfZ/N/eY1+77SfWsGOA7ejZ2zYu2mHjz3qP/de7T7I39vyTffuKu+25/sfZ+z5/gR3PaXPtS/b4PTPslns229n3fd3OnuAas8tz/PHHuwWjL7roIps4cWKWa68tGo0fFEop36Sirq6uzYCMQctJMKZCylBRWxXuDAPWp9AywOTlJ7CYgctkhBMZ6qTQLvoUM0HQLsp5O4TCZOT7E1oXZXAmBw8enOWUJkUj+gQxGvkJWRptcY5kzBW6ctdozZo1LmAOPdnSNu+khNaTp0Y4HEyWeWlE+0JJ1YgTBhefsHkIeWnE/tguViP0QVsu1oTSHTUixdSTt0aUo0+h5KkRhNbj4Q4L80JoXXlr5I+d0Lo4F2GLGI1i59RUjWKPBQ83DvBTd7ZdTU2NXXPNNTZ58mT7xCc+EexTlCctAdl1b73RVn/i6/Zf+82yB2/+qy0++wq794NvtCGV2bl45e/tlo9fYw+OPM0+8cGz7dT9e9kLP7jRvvTDRTb43y6xG8+utN8XDcgetA8Petg++Y6p9qczvmJ3XXSi7TWi0lY8eYN94pbZts+ZH7Dzj1tvP/7C7hGQnXPOOe7dw/POO8/22muvLLflIi7ELDBeahxVNA+cNgMyBi5XwltHhaXAsQF/1aYUVM/kQGKwhA5CBi5lqCd0AgOupBC8hJ7UmVQ4yRAghNbj+8P+oSdawN7sHzORcwWIhesmTAg/+tGIvx/qePmJH1vkoRHP6w4dOjT4hJGnRgxCbEC5UDtwUYMTBlfpQqE/vm2dqRETBGViNaqtrXVX9vv375/lFAdbU5e3XQh5asSVfYLMcePGZTmlaY9GoXcWAbtRlnpiNFq4cKG7cx76InteGtEX5rpYjdCHscQaMaGUu0Y4jPQntK72aMR5JdQ5TtWIAJNyMU/VxJ73UjXyvkmsRrzUP378eGeLEFLOe+xPOW+HELxG2AC7hWrEuYhjKOapmliN0IY+0cZQu0Gs/+iZN2+e81NpY2sYXwRiRx55pPvdtT/q0RKQfe7Yz9jv9jvC9h7UaOPf8Q17/8l72ZGHjreBvXu2vIP09A32lk/V2XGXX2gXveNgc/cE5/7Ubvjiz+1Pg463z37+EFtx97ft1rtX2NGfvdhO4MGdLWts1Us/t+uuWmDn/ekBO//5C2yPKavsA9+90I4fM9hazvIv2Y+v/KbVHXGZffA94+2l6d/fLQIyPn/PfPbRj370H9aw8wtGxzyxUco3CZ+VhBBCCCGE2AXYc889XeDJotBc6O0ODKyaYO/5yq/sgTumWq+7z7V3nf8V+/W8Rtu8reWOpGOPUTZicP8skGpmyDCrGrLDBqxbaSvdklrrrX7OYzbzusvco5yXXX6VXT3t11bbvKU5hra6RTW2vd9f7Uf//Xn7HNtdmm6/29jPtgzqbT23d/4HLsqF2bNnuwsEMRcWUlFAJoQQQgghuh28z8gdQe6wdxt6Ngdbr3uf3fHTa+3Uxjvt+m89ZfNWNNlWH5M1bbBNm7fYVv+l9m1b3b+39eAuORlDbe83TbEbf/ln+/Ofm9Mzj9lD0y+yg9zOZr17NQcfe59rX/3Zb+ypP2b7ZOnHX3yfnbRP+GPjuzLc0eJuL4F9zKPyqSggE0IIIYQQ3Q4+1MTjoLwL2K3o0cd67HmuffnaydZw17U2/elaW7Zpm+3oXWkDav9gz76wwGpXE5Fts831i23hSrNNI8fZ2BLf2+FRuon7H2ZD5/zaHv7rCmvkb7Khaa01LFthK9dusi1tvujUvZg1a5YLyvgYTMy7YqkoIBNCCCGEEN0O3v/j3TS+Oss7bd2Jih49bM/zb7HPn1Rv379+uj05Z4mtPexddt4JFTb7T7+1Pzw721avrrFHH/2NPdu01fY96kDbPyvbJhXNYcFJF9uVx9fZfTdMt6fmLLRlq1fb6iduswvPOt8+decT9spadtxuW5o22Po1zdvYvnqtrdvYHKxt3Wwb16+zTS0fzNyl4T1s7rDyfqICMiGEEEIIIRLgg2d8tIl3gbjbsSvDZyAIwv7+OQj+NcnO/9/v2QUr7rYPTfmm/eqlnvaWG75nn9/zWZv+3tc3BxSvs9N+uMPe+L7P2n+fuV9Wqvlv9Kho9Xcg+7qly93LLvjR4/bFMffaR/9lHxvXHJQMf8vdNuK9n7RPnfdme/1gPiJTZ499d6qdtm/zNrbvcYyd/qnb7ME/ftc+c8Zk+/LvW/7qrgrB+7e//W0X0Md8ab49KCATQgghhBDdjqOPPtoOOeQQ+8tf/mJPP/10lrsrMtwmHP4h+/orz9p1J2RZr3GSXf3CXKt9+gt25oFjrNLG2tuu/Yn9tmadC0bXPXabXXlq9oXAwQfZyZdcb/f8/It2hv9gbe9hNupfPmm/XPxj+9BeZi3f+dzTzv2f2TZ3efY31v3JbrvgWHsdr1KNPMEunvYLe8Xlt05z7c8/u9pOc+V3bZ555hmbO3eunXHGGVFfX24PCsiEEEIIIUS3g0/1v/nNb3a/v/3tb3fhu2TcweptfSr7WZ9/Whmhp/XpV2mV/XpbL3fnq4f17N3X+lU255H69bHevTJ3v4Jtfaxv397W00cAFc1leva2vpV9m8u7/zbTw3r1zcq71Fwvn9ZnW4+e1qtPq7/fKvVr/rvhi9SULzNnzrRJkybZ4YcfnssHPUABmRBCCCGE6Ja86U1vskMPPdT+9re/7eJ3yUQevPzyy/bAAw/Ye97zHnd3LGZNvPaggEwIIYQQQnRLWBD6uOOOc4to/+QnP7ElS5ZkW0THMtwmHXWBXfXje+ziw7KsXQjeG2N5BBYRP/jgg+0tb3mLDRo0KNva+SggE0IIIYQQ3RYePTvllFPspZdech9r2NU/8FGe9LZ+g0Zb9f772phdcKky1qu79dZb7dlnn7WpU6dadXW1e9Q1Lyo2bdrU5ndAN2/ebCtWrHBfGQmFRdSAW3wht/n8Z0j5DS0D7B9bBvj0Kc+DDhgwIMspTko9vgzw1ZpQYm0HTCqrVq2KeukwRSPfn5i2+XIxZaC+vt4GDx5s/fu/ts58UVLq8WWgszXasGGD+yzs2LH+DdrSlLtGixcvtmHDhrlnxkNIqSe1bSkarV+/3r2UPHr06CynNO3RKOaYS7VDXV2dW4OHq8IhpNTTnjIQUw59GEujRo3KckqTl0YpxxwsWrTI9adPnz5ZTnF8+2LqaU8ZiCnH1WX8hqqqqiynNOWuUW1trVuHqHfv3llOcXz7YuppbxkILce5CMeTuSGUctdowYIFzk/t1av420vLly+3u+66yx588EH7z//8T7vwwguDz2Gie8O5Zfr06fbNb37TPvzhD9s555zj7o61dRzidwN+UCilju+KpqamllFTgOZgzQVkRImhbNvWsjQ4gzBkQPmBSwotA3SMRPQaWgZw9jFyTEBGn2LqoV2UY/+YyYjFC70NQusiIFu5cmVU0JyikT+QYjWK1RV4nIDPjMYEZOWsUUpAVu4a4ezzqduYgKycNSIgW7t2rXO8QqE/vo6QelprFHPVLVUjnH2cLh7XCYF6SJ2tkT8WYjVCH8ZSTNAceyykahQ7Xj04+/QnNCArd40IyPAbYoLmcteItYiYu0MDsrw18jYIrSslICt3jWpqapyfWiogA/a955577IknnnBf0FNQJjivPPTQQ3bttdfaueeea2effbYLtIqNRfxuwA8KpdQ4qmgeNEUDsmXLlrlF0UJhoAMDI3TgMggZvEx4oYOQMnSOMqETGHBln7svoV9NoV0sKsgJM7Qe3x/6EjJBeLiyyOQVM5FzIDU0NLi1NkKhP75toRpha35jNKIMdqCeGI1w9ocOHRocNKdqRGL/GI0YE/6YC7UDzj5XU2IubJS7RjiSI0aMCA6aqYO5IWa8eo38mAglRSPuvuBMxtxpRiPqCB2vrTUKdcAhVSMcSRzj0IAMW1NXZ2tE/5nrYjVCH8ZSzIWN2Dk1VSOObcrEaoRzSH9C72KWu0Y4+4y/mKA5T42AemI0mj9/vrvgGVpX3hrRLuwWqhHnImwREzTHasR8RX8AO4QS6z965s2b5/xUypWCdvE5c4Kyp556ys4880y74IILFJTtpjAe7rvvPvvZz35mkydPtilTprggq9Txh98N+EGhlPJNepDZkclTaFuxFFsmdv/2pJS68iqTZ0ppX0qZlKR6WlJsOU+hbR2ZPIW2lUqx5WL3T02eQtuKpdgysfu3J6XWFVsudv/2pJS6UsrklfJqW7nXE1vOU2hbR6bUOlLKpZRJSan1xJbzFNrWUYmgjc+ZE4jx4Yb//d//ta9//esu8Ba7DwTmBPJf/epX7Yc//KH76At3xwiwfMDU0QkK5fsUfplICCGEEEKIXRgc7r333tvOO+88e/vb3+4eX7z++uvt8ccfz/YQ3RmeiOHuKO+L/fGPf7S3vvWtdv7557t3XwmMugoFZEIIIYQQYreBR7lf//rXu8cVeWeIx6FvueUWu+OOO9xjbDwSKroXPErMY+I/+MEP3Jc2eQ/s/e9/vwvMYz5E1FkoIBNCCCGEELsdvC901lln2aWXXurexefdMu6ccNeMDwnxPpzY9eEDhY8++qgLxH7+85+7d3cvvvhip32ea40VQwGZEEIIIYTYLeGjOocddphdc8017suLPM5222232YwZM+zpp5+2xsZGBWa7KHyY8De/+Y2783nnnXe6D7qw4POnPvUpO/roo7O9ygMFZEIIIYQQYreF98r4oMMll1xin/nMZ9wSKA888IBNmzbN7r33XnvmmWfcI24KzHYNWHP4d7/7nc2cOdNuv/12e/LJJ23fffe1T3ziE+59sZivjOaFAjIhhBBCCLHbw6f9TzjhBLv11lvtyiuvdO8W3X///faNb3zDfY2PwIzlk1gKQJQXfFae9Te5q8mjp2j4yCOP2Ote9zqn5ec+9zk75phjgpeCyRsFZEIIIYQQQrTi+OOPt6997Wv2hS98wS2kzZ2yG2+80T369vDDD9tzzz3n1uTkq32ia8D2fL5+1qxZ9uCDD7pHE6+77jp3d/Oggw5yX8+86qqr7Mgjjwxe77GrUEAmhBBCCCFEAY499lj3BUac+3322cceeughu/baa13icTic/xdeeMHdnWFx9Kampqyk6Ej48iW2xcYLFixwATELOt900012xRVXuECMpQu4C8bacgRivBsYs4B8V9Lz6quvvib79z/BJyL5FOiQIUOynNL452tDV6jHwJQhha5QD75cWytetwVfzSFKDhWIevwK+qH1+P64hd4C7QDUQ5mY/rCy/YYNG2zw4MFZTmn8CvqxGvEbo5EvE6vRmjVr3C3l0BX+89SIMRHbHyaQjRs3diuNmBArKyujNKKumHry1ohHUGK+thQ7XrtCowEDBriFUEPw9u5sjegLtovtD/qg08CBA7Oc0sQeC6ka0Z8UjfhYAP0Jrau9GsXYIUUjHhnC5hx3oeQ5jiCmLuAT6MwLoXX59qVoFHusYrsYGwDnIsqVs0bYIQY0wk8NLZeqEV/m+7d/+zf3mfw3vvGN7ljn8TgWl37sscfcJ9UZ0/hkjAVszS/zFnV6G4bWuTuDb4v9iEHwCflKYn19vc2ZM8e9G8bdSoJh7opxjjv11FPd+2Ef/OAH7eSTT7bRo0cHHXutx1GMLmgM+EGhlDofVTQfKG0utsAJECOMHz8+yykNHYPQA33ngRtqEMqQYo3Ii36cAEMnoxSxfNvYP+SA8LQWK7QuDlgmo3HjxmU5pUnRyJeJtQNlYyY9YNARvPTv3z/LKU65a8TAxTlmMg+l3DXiGfphw4YFT0bt0Yi2kUJJ0YhJn0cfmMRDoT++jpB6WmsUGiRBqkZ1dXXuMZvQxzS8vTtbI2+HWI3Qh7EU8zJ27LGQqpEvE6sRV9TpT+gFwhSNaJs/fjpbIxwn/IaYNX3KXSMeSeMDD6EXn/LWiHogtC7ORTi7zA2hlLtG3C3BTw2tqyM14nifPXu2+6Q67yv99a9/dfZi3j3kkEPcAtQcP3xQYr/99nOBI+0kta6btsS0pzvgA1UPmmBnfvEDX3zxRVuyZIktXLjQnn/+eRfwEuDid+y///525pln2uTJk91yBdiuLY2K0Xocxdgevxvwg0IpNY4qmjtXNCDjqzIxjiSGbKuyQngx+I0t5w0fA5/AJCCLcfZj6/FlIKZcrO2Ag5MrMgz4UFI08v1JKRerEUEzAVmMsx9bjy8Dna0RQTOOSoyzX+4aMVkOHTo0+OXYlHp8mZj+QIpGOPo4/DHOfns0SrFDrEacyFhjJzQgS6nHl0mxQ0wZQB/GUoyzn5dG1AOxGhE005+YJzZI5aoRT6DgN8Q4+3lqFNsfIGhm7o55GoCUl0axxxznIgIyvigYSrlrRNCMnxoakKXYzpcp1T7mKAJEgomXXnrJJdrHrw848de4iN563PN/8neVx+s6AmzE8ejBn2W8cSMIG+OrV1dXu2CWRw8nTpxoBxxwgAtsCxGqUWt8mdhxhN8N+EGhlDq+K5ob0jJqCoBxCGAwQihEvMDkFWIQqucgJXEghhqRSJMy1BNjSK7s4+yHPvaCATnB4NSE1uP7w/4xV4ewN/vHROo4kg0NDe4KQShoxN/f+QpNW6AR9sYWeWiEk8JBHnoXM0+NmGyxAeVC7cDdF66mMLGEQn982zpTI07MlInViBMMJ/TQCxvYmrq87ULIUyOcfU4MMXea26NRaJAE2I2y1BOjEVcVCTBDg+a8NKIvzHWxGqEPYynmAmG5a8QVX/oTWld7NPJX4ENI1Yi7L5SLufgUe95L1cj7JrEazZ8/3919wRYhpJz32J9y3g4heI2wAXYL1YhzEcdQzMWnWI3Qhj7RxlC7Qaz/6OGjDviptDGEFI18mRiNsIP3TegPi02TR9DB/IwOHv6P74MNqAvb0b5QaJs/DkJsx98nQcx4oP0QWg9QT2s7eA4++OB/uMPEuWqPPfZwgSk+IP/GX89Loxg74HdDzIWNUr6JArISpIjl+8P+oRMExE56oIAsX40UkLWggEwBGaRoRF+Y62I1UkDWPo04r4Q6KakaKSBLO++xP+W8HULwGmED7BaqkQKyNI18mRiNsIP3TegP/wfsQmqN3wZoRF0xd5rz1Ii/T12hGlEHGu25557/YDvK7/w3fB5to40xc117NYqZFzojIAuvXQghhBBCCBEFDjhBAomAgWCwdSIg8AmnndQ6b1dPhfpD3s528MFUW0FLd0YBmRBCCCGEEEJ0EQrIhBBCCCGEEKKLUEAmhBBCCCGEEF2EAjIhhBBCCCGE6CIUkAkhhBBCCCFEF6GATAghhBBCCCG6CAVkQgghhBBCCNFFKCATQgghhBBCiC6ioqmp6R+XC28FK3+vWLHCqqurs5zSsEo2hC7q5lcsJ8UsBMfq2iQWkItZPK6+vt4GDRpkAwYMyHKKQ7voU0w9tIty7B+z8jerjHsbhNbFyt8rV6608ePHZzmlSdGIPkGsRrG6wpIlS2zIkCHWv3//LKc45a7Rhg0bbPXq1TZ27NgspzTlrlFdXZ0NHz7cKisrs5zilLtG69evt7Vr19qYMWOynNLQH19HSD2tNcIOoaRqtGjRIhs5cqT169cvyykO9ZA6WyN/LMRqhD6MpdGjR2c5pYk9FlI1ih2vntraWtcfFkgNodw1WrNmjfMbRo0aleWUptw1WrhwoZu7WbQ2hLw18jYIrYtz0ZYtW9zcEEq5a1RTU+P8VBYVDqE9GsW0rbVGMf1pbGx05UaMGJHllKacNaIuNJo4cWJwXSn2zlMj/G7ADwqluEZm/x/XvLp9ZVsZEAAAAABJRU5ErkJggg==;" vertex="1" parent="1">
          <mxGeometry x="980" y="-20" width="419.58" height="320" as="geometry" />
        </mxCell>
        <mxCell id="Blg_qwweMGSraaD5Vuuv-24" style="edgeStyle=orthogonalEdgeStyle;rounded=0;orthogonalLoop=1;jettySize=auto;html=1;entryX=0.5;entryY=0;entryDx=0;entryDy=0;" edge="1" parent="1" source="Blg_qwweMGSraaD5Vuuv-7" target="Blg_qwweMGSraaD5Vuuv-23">
          <mxGeometry relative="1" as="geometry" />
        </mxCell>
        <mxCell id="Blg_qwweMGSraaD5Vuuv-7" value="Начало" style="rounded=1;whiteSpace=wrap;html=1;arcSize=50;" vertex="1" parent="1">
          <mxGeometry x="195" y="360" width="120" height="40" as="geometry" />
        </mxCell>
        <mxCell id="Blg_qwweMGSraaD5Vuuv-13" value="Конец" style="rounded=1;whiteSpace=wrap;html=1;arcSize=50;" vertex="1" parent="1">
          <mxGeometry x="330" y="800" width="120" height="40" as="geometry" />
        </mxCell>
        <mxCell id="Blg_qwweMGSraaD5Vuuv-22" value="" style="edgeStyle=orthogonalEdgeStyle;rounded=0;orthogonalLoop=1;jettySize=auto;html=1;" edge="1" parent="1" source="Blg_qwweMGSraaD5Vuuv-14" target="Blg_qwweMGSraaD5Vuuv-15">
          <mxGeometry relative="1" as="geometry" />
        </mxCell>
        <mxCell id="Blg_qwweMGSraaD5Vuuv-14" value="Пользователь вводит название песни в поисковую строку" style="rounded=0;whiteSpace=wrap;html=1;" vertex="1" parent="1">
          <mxGeometry x="187.5" y="520" width="135" height="60" as="geometry" />
        </mxCell>
        <mxCell id="Blg_qwweMGSraaD5Vuuv-18" style="edgeStyle=orthogonalEdgeStyle;rounded=0;orthogonalLoop=1;jettySize=auto;html=1;entryX=0.5;entryY=0;entryDx=0;entryDy=0;" edge="1" parent="1" source="Blg_qwweMGSraaD5Vuuv-15" target="Blg_qwweMGSraaD5Vuuv-16">
          <mxGeometry relative="1" as="geometry" />
        </mxCell>
        <mxCell id="Blg_qwweMGSraaD5Vuuv-19" style="edgeStyle=orthogonalEdgeStyle;rounded=0;orthogonalLoop=1;jettySize=auto;html=1;exitX=1;exitY=0.5;exitDx=0;exitDy=0;entryX=0.5;entryY=0;entryDx=0;entryDy=0;" edge="1" parent="1" source="Blg_qwweMGSraaD5Vuuv-15" target="Blg_qwweMGSraaD5Vuuv-17">
          <mxGeometry relative="1" as="geometry" />
        </mxCell>
        <mxCell id="Blg_qwweMGSraaD5Vuuv-15" value="Песня&lt;br&gt;существует?" style="rhombus;whiteSpace=wrap;html=1;" vertex="1" parent="1">
          <mxGeometry x="205" y="610" width="100" height="80" as="geometry" />
        </mxCell>
        <mxCell id="Blg_qwweMGSraaD5Vuuv-29" style="edgeStyle=orthogonalEdgeStyle;rounded=0;orthogonalLoop=1;jettySize=auto;html=1;entryX=0;entryY=0.5;entryDx=0;entryDy=0;exitX=0.5;exitY=1;exitDx=0;exitDy=0;" edge="1" parent="1" source="Blg_qwweMGSraaD5Vuuv-16" target="Blg_qwweMGSraaD5Vuuv-26">
          <mxGeometry relative="1" as="geometry" />
        </mxCell>
        <mxCell id="Blg_qwweMGSraaD5Vuuv-16" value="&quot;По вашему запросу ничего не найдено&quot;" style="rounded=0;whiteSpace=wrap;html=1;" vertex="1" parent="1">
          <mxGeometry x="60" y="685" width="130" height="60" as="geometry" />
        </mxCell>
        <mxCell id="Blg_qwweMGSraaD5Vuuv-30" style="edgeStyle=orthogonalEdgeStyle;rounded=0;orthogonalLoop=1;jettySize=auto;html=1;entryX=0.5;entryY=0;entryDx=0;entryDy=0;" edge="1" parent="1" source="Blg_qwweMGSraaD5Vuuv-17" target="Blg_qwweMGSraaD5Vuuv-13">
          <mxGeometry relative="1" as="geometry" />
        </mxCell>
        <mxCell id="Blg_qwweMGSraaD5Vuuv-17" value="Вывод результатов" style="rounded=0;whiteSpace=wrap;html=1;" vertex="1" parent="1">
          <mxGeometry x="330" y="685" width="120" height="60" as="geometry" />
        </mxCell>
        <mxCell id="Blg_qwweMGSraaD5Vuuv-20" value="Нет" style="text;html=1;align=center;verticalAlign=middle;resizable=0;points=[];autosize=1;strokeColor=none;fillColor=none;" vertex="1" parent="1">
          <mxGeometry x="150" y="618" width="40" height="30" as="geometry" />
        </mxCell>
        <mxCell id="Blg_qwweMGSraaD5Vuuv-21" value="Да" style="text;html=1;align=center;verticalAlign=middle;resizable=0;points=[];autosize=1;strokeColor=none;fillColor=none;" vertex="1" parent="1">
          <mxGeometry x="320" y="618" width="40" height="30" as="geometry" />
        </mxCell>
        <mxCell id="Blg_qwweMGSraaD5Vuuv-25" style="edgeStyle=orthogonalEdgeStyle;rounded=0;orthogonalLoop=1;jettySize=auto;html=1;entryX=0.5;entryY=0;entryDx=0;entryDy=0;" edge="1" parent="1" source="Blg_qwweMGSraaD5Vuuv-23" target="Blg_qwweMGSraaD5Vuuv-14">
          <mxGeometry relative="1" as="geometry" />
        </mxCell>
        <mxCell id="Blg_qwweMGSraaD5Vuuv-23" value="Пользователь заходит на страницу &quot;Библиотека&quot;" style="rounded=0;whiteSpace=wrap;html=1;" vertex="1" parent="1">
          <mxGeometry x="190" y="430" width="130" height="60" as="geometry" />
        </mxCell>
        <mxCell id="Blg_qwweMGSraaD5Vuuv-28" style="edgeStyle=orthogonalEdgeStyle;rounded=0;orthogonalLoop=1;jettySize=auto;html=1;entryX=0.5;entryY=1;entryDx=0;entryDy=0;" edge="1" parent="1" source="Blg_qwweMGSraaD5Vuuv-26" target="Blg_qwweMGSraaD5Vuuv-15">
          <mxGeometry relative="1" as="geometry" />
        </mxCell>
        <mxCell id="Blg_qwweMGSraaD5Vuuv-26" value="Ввод другого запроса" style="rounded=0;whiteSpace=wrap;html=1;" vertex="1" parent="1">
          <mxGeometry x="195" y="780" width="120" height="60" as="geometry" />
        </mxCell>
        <mxCell id="Blg_qwweMGSraaD5Vuuv-33" style="edgeStyle=orthogonalEdgeStyle;rounded=0;orthogonalLoop=1;jettySize=auto;html=1;entryX=0.5;entryY=0;entryDx=0;entryDy=0;" edge="1" parent="1" source="Blg_qwweMGSraaD5Vuuv-31" target="Blg_qwweMGSraaD5Vuuv-32">
          <mxGeometry relative="1" as="geometry" />
        </mxCell>
        <mxCell id="Blg_qwweMGSraaD5Vuuv-31" value="Начало" style="rounded=1;whiteSpace=wrap;html=1;arcSize=50;" vertex="1" parent="1">
          <mxGeometry x="1175" y="370" width="120" height="40" as="geometry" />
        </mxCell>
        <mxCell id="Blg_qwweMGSraaD5Vuuv-42" style="edgeStyle=orthogonalEdgeStyle;rounded=0;orthogonalLoop=1;jettySize=auto;html=1;exitX=0.5;exitY=1;exitDx=0;exitDy=0;entryX=0.5;entryY=0;entryDx=0;entryDy=0;" edge="1" parent="1" source="Blg_qwweMGSraaD5Vuuv-32" target="Blg_qwweMGSraaD5Vuuv-41">
          <mxGeometry relative="1" as="geometry" />
        </mxCell>
        <mxCell id="Blg_qwweMGSraaD5Vuuv-32" value="Пользователь заходит на страницу &quot;Библиотека&quot;" style="rounded=0;whiteSpace=wrap;html=1;" vertex="1" parent="1">
          <mxGeometry x="1170" y="430" width="130" height="60" as="geometry" />
        </mxCell>
        <mxCell id="Blg_qwweMGSraaD5Vuuv-37" style="edgeStyle=orthogonalEdgeStyle;rounded=0;orthogonalLoop=1;jettySize=auto;html=1;entryX=0.5;entryY=0;entryDx=0;entryDy=0;exitX=0;exitY=0.5;exitDx=0;exitDy=0;" edge="1" parent="1" source="Blg_qwweMGSraaD5Vuuv-34" target="Blg_qwweMGSraaD5Vuuv-35">
          <mxGeometry relative="1" as="geometry" />
        </mxCell>
        <mxCell id="Blg_qwweMGSraaD5Vuuv-58" style="edgeStyle=orthogonalEdgeStyle;rounded=0;orthogonalLoop=1;jettySize=auto;html=1;exitX=1;exitY=0.5;exitDx=0;exitDy=0;entryX=0.75;entryY=0;entryDx=0;entryDy=0;" edge="1" parent="1" source="Blg_qwweMGSraaD5Vuuv-34" target="Blg_qwweMGSraaD5Vuuv-44">
          <mxGeometry relative="1" as="geometry" />
        </mxCell>
        <mxCell id="Blg_qwweMGSraaD5Vuuv-34" value="Пользователь выбрал &quot;Easy&quot;?" style="rhombus;whiteSpace=wrap;html=1;" vertex="1" parent="1">
          <mxGeometry x="1175" y="610" width="120" height="80" as="geometry" />
        </mxCell>
        <mxCell id="Blg_qwweMGSraaD5Vuuv-38" style="edgeStyle=orthogonalEdgeStyle;rounded=0;orthogonalLoop=1;jettySize=auto;html=1;entryX=0.5;entryY=0;entryDx=0;entryDy=0;exitX=0;exitY=0.5;exitDx=0;exitDy=0;" edge="1" parent="1" source="Blg_qwweMGSraaD5Vuuv-35" target="Blg_qwweMGSraaD5Vuuv-36">
          <mxGeometry relative="1" as="geometry" />
        </mxCell>
        <mxCell id="Blg_qwweMGSraaD5Vuuv-57" style="edgeStyle=orthogonalEdgeStyle;rounded=0;orthogonalLoop=1;jettySize=auto;html=1;exitX=1;exitY=0.5;exitDx=0;exitDy=0;entryX=0.5;entryY=0;entryDx=0;entryDy=0;" edge="1" parent="1" source="Blg_qwweMGSraaD5Vuuv-35" target="Blg_qwweMGSraaD5Vuuv-44">
          <mxGeometry relative="1" as="geometry" />
        </mxCell>
        <mxCell id="Blg_qwweMGSraaD5Vuuv-35" value="Пользователь выбрал &quot;Mid&quot;?" style="rhombus;whiteSpace=wrap;html=1;" vertex="1" parent="1">
          <mxGeometry x="1055" y="675" width="115" height="80" as="geometry" />
        </mxCell>
        <mxCell id="Blg_qwweMGSraaD5Vuuv-52" style="edgeStyle=orthogonalEdgeStyle;rounded=0;orthogonalLoop=1;jettySize=auto;html=1;exitX=0;exitY=0.5;exitDx=0;exitDy=0;entryX=0.5;entryY=0;entryDx=0;entryDy=0;" edge="1" parent="1" source="Blg_qwweMGSraaD5Vuuv-36" target="Blg_qwweMGSraaD5Vuuv-51">
          <mxGeometry relative="1" as="geometry" />
        </mxCell>
        <mxCell id="Blg_qwweMGSraaD5Vuuv-55" style="edgeStyle=orthogonalEdgeStyle;rounded=0;orthogonalLoop=1;jettySize=auto;html=1;exitX=1;exitY=0.5;exitDx=0;exitDy=0;entryX=0.25;entryY=0;entryDx=0;entryDy=0;" edge="1" parent="1" source="Blg_qwweMGSraaD5Vuuv-36" target="Blg_qwweMGSraaD5Vuuv-44">
          <mxGeometry relative="1" as="geometry" />
        </mxCell>
        <mxCell id="Blg_qwweMGSraaD5Vuuv-36" value="Пользователь выбрал &quot;Hard&quot;?" style="rhombus;whiteSpace=wrap;html=1;" vertex="1" parent="1">
          <mxGeometry x="940" y="760" width="110" height="80" as="geometry" />
        </mxCell>
        <mxCell id="Blg_qwweMGSraaD5Vuuv-39" value="Нет" style="text;html=1;align=center;verticalAlign=middle;resizable=0;points=[];autosize=1;strokeColor=none;fillColor=none;" vertex="1" parent="1">
          <mxGeometry x="1125" y="618" width="40" height="30" as="geometry" />
        </mxCell>
        <mxCell id="Blg_qwweMGSraaD5Vuuv-40" value="Нет" style="text;html=1;align=center;verticalAlign=middle;resizable=0;points=[];autosize=1;strokeColor=none;fillColor=none;" vertex="1" parent="1">
          <mxGeometry x="1010" y="685" width="40" height="30" as="geometry" />
        </mxCell>
        <mxCell id="Blg_qwweMGSraaD5Vuuv-43" style="edgeStyle=orthogonalEdgeStyle;rounded=0;orthogonalLoop=1;jettySize=auto;html=1;entryX=0.5;entryY=0;entryDx=0;entryDy=0;" edge="1" parent="1" source="Blg_qwweMGSraaD5Vuuv-41" target="Blg_qwweMGSraaD5Vuuv-34">
          <mxGeometry relative="1" as="geometry" />
        </mxCell>
        <mxCell id="Blg_qwweMGSraaD5Vuuv-41" value="Вывод всех песен" style="rounded=0;whiteSpace=wrap;html=1;" vertex="1" parent="1">
          <mxGeometry x="1175" y="525" width="120" height="60" as="geometry" />
        </mxCell>
        <mxCell id="Blg_qwweMGSraaD5Vuuv-59" style="edgeStyle=orthogonalEdgeStyle;rounded=0;orthogonalLoop=1;jettySize=auto;html=1;exitX=1;exitY=0.5;exitDx=0;exitDy=0;" edge="1" parent="1" source="Blg_qwweMGSraaD5Vuuv-44" target="Blg_qwweMGSraaD5Vuuv-56">
          <mxGeometry relative="1" as="geometry" />
        </mxCell>
        <mxCell id="Blg_qwweMGSraaD5Vuuv-44" value="Вывод результатов" style="rounded=0;whiteSpace=wrap;html=1;" vertex="1" parent="1">
          <mxGeometry x="1230" y="840" width="120" height="60" as="geometry" />
        </mxCell>
        <mxCell id="Blg_qwweMGSraaD5Vuuv-48" value="Да" style="text;html=1;align=center;verticalAlign=middle;resizable=0;points=[];autosize=1;strokeColor=none;fillColor=none;" vertex="1" parent="1">
          <mxGeometry x="1300" y="618" width="40" height="30" as="geometry" />
        </mxCell>
        <mxCell id="Blg_qwweMGSraaD5Vuuv-49" value="Да" style="text;html=1;align=center;verticalAlign=middle;resizable=0;points=[];autosize=1;strokeColor=none;fillColor=none;" vertex="1" parent="1">
          <mxGeometry x="1169.79" y="685" width="40" height="30" as="geometry" />
        </mxCell>
        <mxCell id="Blg_qwweMGSraaD5Vuuv-50" value="Да" style="text;html=1;align=center;verticalAlign=middle;resizable=0;points=[];autosize=1;strokeColor=none;fillColor=none;" vertex="1" parent="1">
          <mxGeometry x="1050" y="770" width="40" height="30" as="geometry" />
        </mxCell>
        <mxCell id="Blg_qwweMGSraaD5Vuuv-54" style="edgeStyle=orthogonalEdgeStyle;rounded=0;orthogonalLoop=1;jettySize=auto;html=1;exitX=1;exitY=0.5;exitDx=0;exitDy=0;entryX=0;entryY=0.5;entryDx=0;entryDy=0;" edge="1" parent="1" source="Blg_qwweMGSraaD5Vuuv-51" target="Blg_qwweMGSraaD5Vuuv-44">
          <mxGeometry relative="1" as="geometry" />
        </mxCell>
        <mxCell id="Blg_qwweMGSraaD5Vuuv-51" value="Пользователь выбрал &quot;Всё&quot;?" style="rhombus;whiteSpace=wrap;html=1;" vertex="1" parent="1">
          <mxGeometry x="840" y="830" width="110" height="80" as="geometry" />
        </mxCell>
        <mxCell id="Blg_qwweMGSraaD5Vuuv-53" value="Нет" style="text;html=1;align=center;verticalAlign=middle;resizable=0;points=[];autosize=1;strokeColor=none;fillColor=none;" vertex="1" parent="1">
          <mxGeometry x="900" y="770" width="40" height="30" as="geometry" />
        </mxCell>
        <mxCell id="Blg_qwweMGSraaD5Vuuv-56" value="Конец" style="rounded=1;whiteSpace=wrap;html=1;arcSize=50;" vertex="1" parent="1">
          <mxGeometry x="1390" y="850" width="120" height="40" as="geometry" />
        </mxCell>
      </root>
    </mxGraphModel>
  </diagram>
</mxfile>
